<svg xmlns="http://www.w3.org/2000/svg" xml:space="preserve" fill="#a3aeb7" width="600" height="149" style="shape-rendering:geometricPrecision;text-rendering:geometricPrecision;image-rendering:optimizeQuality;fill-rule:evenodd;clip-rule:evenodd"><path d="M75 0c41 0 74 33 74 75 0 41-33 74-74 74-27 0-49-13-63-34 13-18 25-38 36-59 0 0-3 66 20 67 18 4 41-52 41-52-2 0 17 33 22 30 2-1-3-8-7-17s-6-21-7-26c-1-8 0-11-6-12-5-1-7 3-10 10-9 20-26 55-32 54-9-2-7-77-7-83 1-6 0-9-4-11-7 0-10 8-12 13C31 55 17 79 3 97c-2-7-3-15-3-22C0 33 33 0 75 0zm497 79c0 6 1 10 3 12s4 4 8 4c3 0 5-2 7-4 3-2 4-6 4-11s-1-9-4-11c-2-3-4-4-8-4-3 0-5 1-7 3-2 3-3 7-3 11zm-6 25h7c0 3 1 4 2 5 2 1 4 2 7 2s5-1 7-2 3-3 4-5v-9c-3 3-7 5-11 5-6 0-10-2-13-6s-4-9-4-14c0-4 0-7 2-11 1-3 3-5 6-7 2-2 5-3 9-3 5 0 9 2 12 6v-5h6v35c0 6-1 10-2 13s-3 5-6 6c-3 2-6 2-10 2-5 0-9-1-12-3s-4-5-4-9zm-42-4V60h6v6c3-5 7-7 13-7 2 0 5 1 7 1 2 1 3 2 4 4 1 1 2 3 2 5 1 1 1 3 1 7v24h-7V76c0-3 0-5-1-6 0-2-1-3-3-4-1-1-3-1-4-1-3 0-6 1-8 3s-3 5-3 10v22h-7zm-17 0V60h7v40h-7zm0-48v-7h7v7h-7zm-65 48V60h7v6c1-2 2-4 5-5 2-1 4-2 7-2s5 1 7 2 3 3 4 5c3-5 7-7 12-7 4 0 8 1 10 3 2 3 3 6 3 11v27h-7V75c0-3 0-5-1-6 0-1-1-2-2-3s-3-1-4-1c-3 0-5 1-7 3s-3 5-3 9v23h-7V74c0-3 0-5-1-7-2-1-3-2-6-2-2 0-4 1-5 2-2 1-3 2-4 4 0 2-1 5-1 8v21h-7zm-79-21c0 6 1 10 3 12s5 4 8 4 6-2 8-4 3-6 3-11-1-9-3-11c-3-3-5-4-8-4s-6 1-8 3c-2 3-3 7-3 11zm-6 25h7c0 3 1 4 2 5 2 1 4 2 7 2s6-1 7-2c2-1 3-3 4-5v-9c-3 3-6 5-11 5s-10-2-13-6-4-9-4-14c0-4 1-7 2-11 1-3 3-5 6-7s6-3 9-3c5 0 9 2 12 6v-5h6v35c0 6 0 10-2 13-1 3-3 5-6 6-2 2-6 2-10 2-5 0-9-1-11-3-3-2-5-5-5-9zm-37-24c0 5 1 9 3 12 2 2 5 3 9 3 3 0 6-1 8-3 2-3 4-7 4-12s-2-9-4-11c-2-3-5-4-8-4-4 0-7 1-9 4-2 2-3 6-3 11zm-7 0c0-7 2-13 6-16s8-5 13-5 10 2 13 6c4 3 6 8 6 15 0 5-1 9-3 12-1 3-4 5-7 7-3 1-6 2-9 2-6 0-10-2-14-5-3-4-5-9-5-16zm-23 20V60h6v6c1-3 3-5 4-5 1-1 3-2 4-2 3 0 5 1 7 2l-2 7c-2-1-3-2-5-2-1 0-3 1-4 2-1 0-2 2-3 3 0 3-1 5-1 8v21h-6zm-13-15 7 1c-1 5-3 9-6 11-3 3-7 4-11 4-5 0-10-2-13-5-3-4-5-9-5-16 0-4 1-8 2-11s4-6 7-7c3-2 6-3 9-3 5 0 8 1 11 3 3 3 4 6 5 10l-6 1c-1-3-2-5-4-6-1-2-3-2-6-2s-6 1-8 3c-2 3-3 7-3 12s1 9 3 12c2 2 5 3 8 3s5 0 7-2 3-4 3-8zm-43 15V60h6v40h-6zm0-48v-7h6v7h-6zm-64 48V45h11l13 39c1 4 2 6 3 8 0-2 1-5 3-9l13-38h10v55h-7V54l-17 46h-6l-16-47v47h-7zm235-21c0 6 1 10 3 12s5 4 8 4 5-2 8-4c2-2 3-6 3-11s-1-9-4-11c-2-3-4-4-7-4s-6 1-8 3c-2 3-3 7-3 11zm22 16c-1 1-5 4-9 5h-3c-5 0-10-2-13-6s-4-9-4-14c0-4 0-7 2-11 1-3 3-5 6-7 2-2 6-3 9-3 5 0 9 2 12 6v-5h6v35c1 2 1 4 2 5h-7c-1-1-1-3-1-5z" style="fill:#a3aeb7;fill-rule:nonzero"/></svg>