<svg style="enable-background:new 0 0 32 32" viewBox="0 0 32 32" xml:space="preserve" xmlns="http://www.w3.org/2000/svg"><path d="M5 18v10c0 .6.4 1 1 1h20c.6 0 1-.4 1-1V18H5zm22-9H5c-.6 0-1 .4-1 1v5c0 .6.4 1 1 1h22c.6 0 1-.4 1-1v-5c0-.6-.4-1-1-1zM9.5 9l-.1-.1c-.4-.7-.5-1.4-.2-2 .3-.7 1-.9 1.3-.9h.1c.6 0 1.4.3 1.9 1.1L13.6 9H16l-1.8-2.9C13.4 4.8 11.9 4 10.4 4c-1.3.1-2.4.8-3 2-.5.9-.5 2-.2 3h2.3zm8.9 0 1.1-1.9C20 6.3 20.8 6 21.4 6h.1c.3 0 1 .2 1.3.9.3.6.2 1.3-.2 2 0 .1-.1.1-.1.1h2.2c.3-1 .3-2.1-.2-3-.6-1.2-1.7-1.9-3-2-1.5-.1-2.9.7-3.8 2.1L16 9h2.4z"/></svg>