<svg xmlns="http://www.w3.org/2000/svg" width="16" height="16" fill="#a3aeb7" viewBox="0 0 612 612" style="enable-background:new 0 0 612 612" xml:space="preserve"><path d="M306 0C137.012 0 0 119.875 0 267.75c0 84.514 44.848 159.751 114.75 208.826V612l134.047-81.339c18.552 3.061 37.638 4.839 57.203 4.839 169.008 0 306-119.875 306-267.75S475.008 0 306 0zM153 306c-21.133 0-38.25-17.117-38.25-38.25S131.867 229.5 153 229.5c21.114 0 38.25 17.117 38.25 38.25S174.133 306 153 306zm153 0c-21.133 0-38.25-17.117-38.25-38.25S284.867 229.5 306 229.5c21.114 0 38.25 17.117 38.25 38.25S327.133 306 306 306zm153 0c-21.133 0-38.25-17.117-38.25-38.25S437.867 229.5 459 229.5s38.25 17.117 38.25 38.25S480.133 306 459 306z"/></svg>