<svg fill="#748198" height="24" viewBox="0 0 32 32" width="24" xmlns="http://www.w3.org/2000/svg"><path d="M11.795 27.97c-3.537-1.227-6.273-3.963-7.474-7.416l-.026-.084S.035 22.8 1.45 30.795c7.995 1.41 10.345-2.825 10.345-2.825zM28.205 0l-3.42.4a14.497 14.497 0 0 0-8.615 4.14l-5.345 5.35-4.24-.465L0 16l6.455.81c1.67 4.25 4.535 7.21 8.725 8.725L16 32l6.575-6.585-.465-4.24 5.35-5.345a14.455 14.455 0 0 0 4.134-8.548l.006-.067.4-3.42A3.42 3.42 0 0 0 28.188.002L28.204 0zm-6.05 13.45a4 4 0 1 1 4-4v.02a4 4 0 0 1-4 4z"/></svg>