<svg xmlns="http://www.w3.org/2000/svg" viewBox="0 0 137.145 137.145"><path d="M109.715 0H27.429C12.28 0 0 12.281 0 27.429v82.287c0 15.149 12.28 27.429 27.429 27.429h82.286c15.149 0 27.429-12.28 27.429-27.429V27.429C137.144 12.281 124.864 0 109.715 0zm13.715 102.858c0 11.361-9.21 20.572-20.571 20.572H34.286c-11.361 0-20.571-9.211-20.571-20.572V34.286c0-11.361 9.21-20.572 20.571-20.572h68.572c11.361 0 20.571 9.211 20.571 20.572v68.572zM68.57 27.385 55.871 52.243l-28.4 3.989L48.022 75.58l-4.853 27.322L68.57 90l25.404 12.9-4.854-27.321 20.552-19.348-28.401-3.989L68.57 27.385z"/></svg>