<svg id="svg" version="1.1" xmlns="http://www.w3.org/2000/svg" xmlns:xlink="http://www.w3.org/1999/xlink" width="400" height="400" viewBox="0, 0, 400,400"><g id="svgg"><path id="path0" d="M96.800 0.407 C 90.300 1.027,82.603 2.248,84.500 2.359 C 85.295 2.406,85.429 3.011,84.738 3.438 C 84.452 3.615,84.385 3.548,84.562 3.262 C 84.719 3.008,84.657 2.800,84.424 2.800 C 84.191 2.800,84.000 2.950,84.000 3.133 C 84.000 3.317,83.733 3.467,83.406 3.467 C 82.957 3.467,82.920 3.337,83.255 2.933 C 83.800 2.278,82.269 2.201,80.046 2.772 C 79.251 2.976,77.520 3.364,76.200 3.633 C 72.262 4.436,63.586 6.769,60.800 7.774 C 53.505 10.405,51.510 11.297,52.053 11.685 C 52.466 11.980,52.419 12.017,51.865 11.837 C 50.926 11.532,43.895 15.106,44.263 15.702 C 44.414 15.946,44.333 16.006,44.070 15.843 C 43.507 15.495,41.897 16.310,42.195 16.792 C 42.315 16.986,42.202 17.275,41.945 17.434 C 41.652 17.615,41.584 17.550,41.762 17.262 C 41.919 17.008,41.887 16.800,41.690 16.800 C 40.992 16.800,40.814 17.336,41.303 17.963 C 41.740 18.523,41.717 18.535,41.120 18.067 C 40.094 17.265,36.494 19.742,37.279 20.710 C 37.604 21.112,37.624 21.248,37.330 21.072 C 37.072 20.917,36.783 21.017,36.688 21.295 C 36.593 21.573,36.562 21.485,36.620 21.100 C 36.765 20.133,36.594 20.195,34.467 21.878 C 31.384 24.318,29.618 26.106,29.878 26.527 C 30.013 26.745,29.941 26.811,29.717 26.672 C 29.322 26.428,24.000 31.608,24.000 32.236 C 24.000 32.408,24.538 32.034,25.196 31.404 C 25.854 30.774,26.498 30.364,26.627 30.494 C 26.880 30.747,24.560 32.600,23.990 32.600 C 22.514 32.600,15.052 44.168,16.062 44.891 C 16.463 45.177,16.415 45.216,15.876 45.041 C 13.870 44.392,3.990 71.261,4.923 74.827 C 5.034 75.253,4.971 75.506,4.783 75.389 C 4.595 75.273,4.334 75.858,4.204 76.689 C 4.074 77.520,3.795 78.851,3.584 79.646 C 2.927 82.121,3.057 83.932,3.822 82.976 C 4.418 82.232,4.426 82.238,4.004 83.108 C 3.761 83.608,3.696 84.238,3.858 84.508 C 4.079 84.875,3.994 84.871,3.526 84.492 C 2.816 83.917,2.416 84.795,2.405 86.949 C 2.401 87.861,2.510 88.007,2.933 87.655 C 3.337 87.320,3.467 87.357,3.467 87.806 C 3.467 88.133,3.296 88.400,3.087 88.400 C 2.878 88.400,2.801 88.760,2.916 89.200 C 3.031 89.640,2.962 90.000,2.763 90.000 C 2.563 90.000,2.377 89.595,2.350 89.100 C 2.295 88.110,1.677 91.234,1.630 92.743 C 1.608 93.429,1.766 93.622,2.209 93.452 C 2.701 93.263,2.739 93.366,2.409 93.983 C 1.924 94.889,1.870 95.728,2.314 95.453 C 2.487 95.346,2.629 95.608,2.629 96.034 C 2.629 97.312,1.817 96.642,1.579 95.168 C 1.401 94.063,1.310 94.337,1.102 96.600 C 0.355 104.729,-0.004 111.799,0.324 111.908 C 0.534 111.978,0.550 112.739,0.361 113.715 C -0.109 116.143,-0.071 119.769,0.429 120.269 C 0.733 120.573,0.735 121.157,0.436 122.266 C -0.153 124.455,-0.162 275.512,0.427 277.700 C 0.724 278.802,0.721 279.413,0.419 279.778 C -0.096 280.398,0.210 296.505,0.806 300.200 C 1.020 301.520,1.222 303.410,1.257 304.400 C 1.304 305.755,1.362 305.903,1.491 305.000 C 1.585 304.340,1.840 303.620,2.059 303.400 C 2.323 303.135,2.368 303.358,2.194 304.063 C 2.050 304.647,2.131 305.498,2.375 305.954 C 2.742 306.639,2.713 306.742,2.209 306.548 C 1.486 306.270,1.464 306.696,2.001 310.600 C 2.724 315.848,2.795 316.102,3.388 315.610 C 3.790 315.276,4.005 315.285,4.226 315.642 C 4.415 315.947,4.355 316.019,4.062 315.838 C 3.808 315.681,3.600 315.743,3.600 315.976 C 3.600 316.209,3.791 316.400,4.024 316.400 C 4.257 316.400,4.334 316.583,4.196 316.807 C 4.058 317.030,3.751 317.093,3.514 316.947 C 3.094 316.687,3.130 317.245,3.813 321.600 C 3.934 322.370,4.197 323.630,4.397 324.400 C 4.597 325.170,5.057 327.150,5.418 328.800 C 6.749 334.882,10.233 345.350,10.808 344.995 C 10.982 344.887,11.040 345.124,10.937 345.520 C 10.501 347.188,18.360 361.313,19.519 360.943 C 20.051 360.772,20.079 360.811,19.650 361.117 C 18.809 361.716,21.299 365.212,22.414 364.997 C 22.858 364.912,23.124 364.999,23.006 365.191 C 22.887 365.382,23.107 365.622,23.495 365.723 C 24.161 365.897,24.161 365.910,23.500 365.954 C 23.115 365.979,22.800 366.109,22.800 366.242 C 22.800 366.951,32.253 376.800,32.934 376.800 C 33.134 376.800,33.070 376.526,32.792 376.190 C 32.514 375.855,32.397 375.469,32.534 375.333 C 32.670 375.197,32.894 375.380,33.032 375.740 C 33.171 376.101,33.490 376.272,33.742 376.121 C 34.036 375.945,34.023 376.065,33.705 376.458 C 33.138 377.159,33.581 377.644,37.054 380.130 C 39.416 381.821,39.472 381.837,39.745 380.900 C 39.865 380.487,39.918 380.604,39.874 381.185 C 39.708 383.391,61.615 394.047,64.243 393.039 C 64.572 392.912,64.743 392.968,64.624 393.162 C 64.347 393.609,66.441 394.159,66.762 393.723 C 67.109 393.251,68.000 393.139,68.000 393.567 C 68.000 393.768,67.790 394.003,67.534 394.089 C 66.632 394.389,74.012 396.084,75.111 395.828 C 75.808 395.667,76.008 395.704,75.666 395.932 C 75.262 396.203,75.358 396.350,76.066 396.539 C 77.581 396.945,78.878 396.850,78.574 396.357 C 78.387 396.055,78.587 396.005,79.200 396.200 C 79.870 396.413,80.020 396.356,79.788 395.981 C 79.581 395.646,79.638 395.576,79.958 395.774 C 80.311 395.992,80.322 396.212,79.998 396.603 C 79.538 397.156,81.069 397.591,85.764 398.239 C 87.399 398.465,87.690 398.411,87.502 397.922 C 87.372 397.582,87.506 397.333,87.821 397.333 C 88.120 397.333,88.272 397.483,88.159 397.667 C 88.045 397.850,88.244 398.000,88.600 398.000 C 88.956 398.000,89.137 397.822,89.003 397.605 C 88.861 397.374,89.029 397.313,89.406 397.458 C 90.147 397.742,89.773 398.233,88.600 398.515 C 88.142 398.625,88.433 398.727,89.280 398.754 C 90.094 398.779,91.624 398.967,92.680 399.172 C 96.942 399.998,101.379 400.097,100.761 399.353 C 100.235 398.719,100.280 398.718,101.480 399.338 C 102.935 400.091,104.285 400.176,105.774 399.610 C 106.441 399.356,106.800 399.356,106.800 399.610 C 106.800 400.171,108.542 400.091,109.179 399.500 C 109.606 399.104,109.659 399.103,109.436 399.498 C 109.060 400.166,287.832 400.237,288.636 399.570 C 288.999 399.269,289.383 399.270,289.948 399.572 C 291.113 400.195,293.054 400.096,294.520 399.338 C 295.725 398.715,295.767 398.716,295.232 399.361 C 294.494 400.251,299.486 399.935,310.400 398.400 C 318.114 397.316,318.873 397.142,318.161 396.621 C 317.623 396.227,317.589 396.054,318.001 395.799 C 318.346 395.586,318.427 395.633,318.238 395.938 C 317.875 396.525,318.220 396.524,319.326 395.935 C 320.116 395.514,320.147 395.533,319.651 396.135 C 318.772 397.200,320.274 397.076,326.400 395.576 C 327.170 395.388,328.735 395.015,329.877 394.747 C 331.019 394.480,331.943 394.157,331.929 394.030 C 331.854 393.310,332.056 393.069,332.349 393.531 C 333.581 395.475,362.960 383.526,362.149 381.411 C 361.885 380.725,362.655 380.241,363.034 380.855 C 363.215 381.148,363.150 381.216,362.862 381.038 C 362.608 380.881,362.400 380.943,362.400 381.176 C 362.400 381.739,362.621 381.713,364.033 380.983 C 364.689 380.644,365.142 380.230,365.039 380.064 C 364.937 379.898,365.038 379.500,365.264 379.181 C 365.599 378.707,365.634 378.729,365.450 379.300 C 365.100 380.389,365.472 380.194,369.467 377.191 C 383.388 366.727,390.964 356.120,396.336 339.572 C 396.897 337.846,396.937 336.668,396.424 336.985 C 396.218 337.113,396.075 336.866,396.107 336.436 C 396.140 336.007,396.329 335.756,396.528 335.879 C 396.727 336.002,397.047 335.854,397.239 335.551 C 397.721 334.789,397.694 332.694,397.206 332.996 C 396.962 333.147,396.905 332.776,397.056 332.020 C 397.218 331.210,397.141 330.800,396.826 330.800 C 396.566 330.800,396.474 330.604,396.622 330.365 C 396.979 329.786,397.490 330.365,397.712 331.600 C 397.810 332.150,397.916 331.531,397.946 330.224 C 397.996 328.036,397.952 327.909,397.399 328.624 C 396.903 329.265,396.840 329.279,397.041 328.703 C 397.195 328.261,397.041 327.914,396.619 327.752 C 396.253 327.612,396.037 327.281,396.138 327.018 C 396.272 326.668,395.356 326.536,392.752 326.528 C 390.789 326.521,389.052 326.386,388.892 326.226 C 388.732 326.066,390.401 325.999,392.601 326.077 C 395.618 326.184,396.573 326.346,396.490 326.739 C 396.425 327.049,396.571 327.142,396.852 326.968 C 397.148 326.785,397.217 326.849,397.038 327.138 C 396.881 327.392,396.943 327.600,397.176 327.600 C 397.795 327.600,397.694 326.951,396.963 326.220 C 396.385 325.642,391.344 325.603,342.063 325.799 C 312.218 325.918,257.110 326.042,219.600 326.074 C 153.850 326.132,147.251 326.042,137.650 324.959 C 136.213 324.797,135.586 324.853,135.757 325.130 C 135.898 325.358,135.830 325.658,135.607 325.796 C 135.383 325.934,135.200 325.857,135.200 325.624 C 135.200 325.391,135.009 325.200,134.776 325.200 C 134.543 325.200,134.481 325.408,134.638 325.662 C 134.827 325.967,134.746 326.014,134.401 325.801 C 133.988 325.545,134.018 325.376,134.546 324.990 C 135.132 324.561,135.061 324.472,133.956 324.251 C 131.994 323.859,131.490 323.937,131.742 324.594 C 131.932 325.088,131.840 325.107,131.201 324.708 C 130.759 324.432,130.603 324.122,130.835 323.978 C 131.057 323.841,130.015 323.400,128.519 322.997 C 124.252 321.847,119.150 319.034,115.933 316.056 C 114.376 314.614,112.730 313.377,112.275 313.308 C 111.821 313.239,111.348 313.069,111.224 312.932 C 111.101 312.794,111.405 312.782,111.900 312.903 C 112.395 313.025,112.800 313.068,112.800 312.997 C 112.800 312.600,109.939 308.611,109.694 308.667 C 109.532 308.703,109.310 308.629,109.200 308.503 C 109.090 308.376,109.225 308.401,109.500 308.559 C 110.184 308.953,110.136 308.701,109.130 306.630 C 108.651 305.645,108.084 304.948,107.868 305.082 C 107.653 305.215,107.597 305.129,107.744 304.890 C 108.241 304.086,107.113 300.774,106.512 301.273 C 106.220 301.516,105.850 301.584,105.691 301.424 C 105.532 301.265,105.726 300.897,106.122 300.607 C 106.722 300.169,106.778 299.854,106.458 298.740 C 106.246 298.003,106.056 297.625,106.036 297.900 C 106.016 298.175,105.809 298.400,105.576 298.400 C 105.343 298.400,105.264 298.220,105.400 298.000 C 105.536 297.780,105.487 297.600,105.290 297.600 C 105.094 297.600,104.933 297.333,104.933 297.006 C 104.933 296.557,105.063 296.520,105.467 296.855 C 105.891 297.208,105.992 297.063,105.960 296.149 C 105.917 294.916,105.306 292.668,105.240 293.500 C 105.218 293.775,105.024 294.000,104.810 294.000 C 104.556 294.000,104.556 293.641,104.810 292.974 C 105.664 290.727,105.156 286.717,104.061 287.065 C 103.579 287.219,103.538 287.176,103.911 286.907 C 104.316 286.616,104.377 283.872,104.207 273.769 C 104.088 266.746,103.900 246.735,103.789 229.300 L 103.586 197.600 144.042 197.600 C 176.361 197.600,184.414 197.499,184.083 197.100 C 183.751 196.700,204.860 196.600,289.400 196.600 C 373.940 196.600,395.049 196.700,394.717 197.100 C 394.400 197.482,394.597 197.600,395.551 197.600 C 397.486 197.600,399.255 195.375,397.957 194.574 C 397.664 194.392,397.599 194.568,397.766 195.093 C 397.927 195.600,397.770 196.088,397.332 196.444 C 396.846 196.838,396.736 196.851,396.954 196.488 C 397.124 196.206,397.253 189.573,397.240 181.748 C 397.220 168.800,397.276 167.544,397.865 167.770 C 398.453 167.995,398.493 167.236,398.301 159.509 C 398.098 151.333,397.684 148.453,396.791 149.006 C 396.565 149.145,396.430 149.031,396.490 148.752 C 396.711 147.731,391.730 147.694,249.279 147.647 L 104.357 147.600 104.561 138.700 C 104.672 133.805,104.877 128.475,105.016 126.855 C 105.178 124.967,105.128 123.997,104.877 124.153 C 104.661 124.286,104.381 124.126,104.254 123.798 C 104.128 123.469,104.220 123.200,104.459 123.200 C 104.707 123.200,104.811 122.770,104.702 122.200 C 104.597 121.650,104.666 121.200,104.855 121.200 C 105.045 121.200,105.218 121.425,105.240 121.700 C 105.306 122.535,105.917 120.282,105.960 119.044 C 105.983 118.374,105.706 117.665,105.300 117.357 C 104.807 116.983,104.760 116.822,105.143 116.813 C 105.459 116.805,105.589 116.549,105.455 116.200 C 105.329 115.870,105.399 115.600,105.613 115.600 C 105.826 115.600,106.018 115.915,106.040 116.300 C 106.062 116.685,106.514 114.930,107.044 112.400 C 107.575 109.870,107.919 107.566,107.809 107.279 C 107.699 106.993,107.756 106.849,107.935 106.960 C 108.114 107.070,108.579 106.097,108.969 104.796 C 109.358 103.496,110.377 101.039,111.232 99.336 C 112.387 97.038,112.660 96.159,112.294 95.926 C 111.904 95.678,111.905 95.600,112.300 95.556 C 112.575 95.525,112.956 95.478,113.147 95.450 C 113.338 95.423,114.283 94.606,115.247 93.635 C 119.781 89.071,130.132 84.707,137.263 84.354 C 138.080 84.313,138.098 84.283,137.400 84.115 C 136.142 83.812,135.814 83.275,137.029 83.508 C 137.872 83.669,138.053 83.590,137.830 83.158 C 137.671 82.851,137.799 82.915,138.114 83.300 C 138.712 84.029,140.851 84.185,142.800 83.642 C 143.646 83.406,143.692 83.322,143.100 83.094 C 142.715 82.946,142.403 82.594,142.406 82.313 C 142.410 81.955,142.527 81.982,142.792 82.400 C 143.102 82.892,144.585 83.026,150.996 83.143 C 158.789 83.285,162.238 83.042,161.234 82.421 C 160.880 82.202,161.041 82.026,161.760 81.846 C 162.958 81.545,223.405 81.529,223.104 81.829 C 222.994 81.939,209.156 82.064,192.352 82.106 L 161.800 82.183 192.200 82.492 C 208.920 82.662,246.540 82.850,275.800 82.911 C 305.060 82.971,322.430 82.923,314.400 82.803 C 306.370 82.683,300.250 82.537,300.800 82.479 C 303.359 82.208,329.200 82.236,329.200 82.510 C 329.200 82.681,335.504 82.771,343.208 82.710 C 353.636 82.628,357.059 82.715,356.601 83.049 C 356.089 83.423,356.195 83.539,357.244 83.749 C 359.452 84.190,397.979 84.040,398.826 83.586 C 399.690 83.124,399.944 78.834,399.242 76.560 C 399.046 75.922,398.671 74.355,398.409 73.079 C 398.004 71.105,397.845 70.831,397.344 71.246 C 396.871 71.639,396.779 71.624,396.877 71.168 C 396.945 70.855,397.168 70.479,397.374 70.331 C 397.733 70.072,397.603 69.500,396.115 64.800 C 392.513 53.422,384.996 38.109,383.281 38.657 C 382.726 38.835,382.706 38.800,383.175 38.468 C 384.810 37.309,375.028 26.543,366.532 20.151 C 358.301 13.958,341.303 6.123,335.541 5.865 C 334.739 5.829,334.149 5.689,334.231 5.554 C 334.359 5.343,331.745 4.681,323.294 2.783 C 321.246 2.323,320.000 2.292,320.000 2.700 C 320.000 2.865,319.567 3.000,319.038 3.000 C 317.974 3.000,318.049 2.428,319.124 2.353 C 320.045 2.288,317.680 1.706,316.257 1.647 C 315.457 1.614,315.176 1.760,315.319 2.133 C 315.432 2.427,315.279 2.667,314.979 2.667 C 314.680 2.667,314.528 2.517,314.641 2.333 C 314.755 2.150,314.556 2.000,314.200 2.000 C 313.844 2.000,313.663 2.178,313.797 2.395 C 313.937 2.622,313.777 2.689,313.421 2.553 C 312.431 2.173,312.701 1.605,313.900 1.544 C 315.266 1.474,311.986 0.993,306.229 0.419 C 303.824 0.180,301.754 0.123,301.629 0.292 C 301.503 0.461,300.800 0.620,300.067 0.644 C 299.199 0.673,298.919 0.570,299.267 0.350 C 299.603 0.137,299.135 0.012,298.000 0.012 C 297.010 0.012,295.936 0.179,295.613 0.383 C 295.291 0.587,294.841 0.616,294.613 0.448 C 293.772 -0.176,292.434 0.015,292.653 0.727 C 292.838 1.328,292.812 1.326,292.414 0.706 C 291.891 -0.106,111.508 -0.421,111.007 0.389 C 110.852 0.640,110.473 0.604,109.969 0.292 C 109.321 -0.110,109.108 -0.091,108.804 0.397 C 108.509 0.872,108.332 0.892,107.937 0.497 C 107.125 -0.315,102.098 -0.012,102.611 0.818 C 102.722 0.998,102.626 1.261,102.397 1.402 C 102.168 1.544,102.006 1.511,102.037 1.330 C 102.286 -0.102,102.234 -0.111,96.800 0.407 M96.574 1.158 C 96.696 1.355,96.517 1.623,96.177 1.754 C 95.823 1.889,95.663 1.822,95.803 1.595 C 95.937 1.378,95.756 1.200,95.400 1.200 C 95.044 1.200,94.863 1.378,94.997 1.595 C 95.137 1.822,94.977 1.889,94.623 1.754 C 94.283 1.623,94.104 1.355,94.226 1.158 C 94.513 0.693,96.287 0.693,96.574 1.158 M309.200 1.176 C 309.200 1.795,308.484 2.044,308.265 1.502 C 308.133 1.177,307.944 1.141,307.730 1.400 C 307.288 1.936,306.400 2.092,306.400 1.633 C 306.400 1.432,306.625 1.176,306.900 1.065 C 307.767 0.715,309.200 0.784,309.200 1.176 M311.545 1.733 C 311.879 2.136,311.846 2.267,311.411 2.267 C 311.094 2.267,310.947 2.086,311.083 1.865 C 311.233 1.624,311.058 1.569,310.645 1.727 C 310.237 1.884,310.058 1.830,310.203 1.595 C 310.539 1.051,311.019 1.100,311.545 1.733 M90.574 1.958 C 90.696 2.155,90.517 2.423,90.177 2.554 C 89.823 2.689,89.663 2.622,89.803 2.395 C 90.134 1.860,89.342 1.896,88.274 2.465 C 87.484 2.886,87.453 2.867,87.949 2.265 C 88.534 1.557,90.205 1.361,90.574 1.958 M82.238 3.262 C 82.404 3.530,82.349 3.616,82.107 3.466 C 81.878 3.325,81.468 3.477,81.196 3.804 C 80.924 4.132,80.544 4.400,80.351 4.400 C 79.959 4.400,81.240 2.886,81.676 2.833 C 81.828 2.815,82.081 3.008,82.238 3.262 M76.000 4.400 C 75.498 4.724,75.525 4.789,76.167 4.794 C 76.588 4.797,76.821 4.912,76.684 5.049 C 76.547 5.187,76.145 5.188,75.792 5.052 C 75.096 4.785,75.346 3.996,76.124 4.006 C 76.410 4.010,76.361 4.167,76.000 4.400 M74.606 4.810 C 74.745 5.035,74.621 5.170,74.330 5.110 C 74.038 5.049,73.849 5.238,73.910 5.530 C 73.970 5.821,73.843 5.950,73.627 5.817 C 73.186 5.544,73.503 4.400,74.019 4.400 C 74.203 4.400,74.467 4.584,74.606 4.810 M72.452 5.337 C 72.207 5.632,72.125 5.992,72.270 6.137 C 72.415 6.282,72.323 6.400,72.067 6.400 C 71.532 6.400,71.509 6.303,71.843 5.433 C 71.976 5.085,72.268 4.800,72.492 4.800 C 72.747 4.800,72.733 4.999,72.452 5.337 M336.000 6.427 C 336.000 6.672,336.341 6.746,336.800 6.600 C 337.240 6.460,337.600 6.500,337.600 6.688 C 337.600 7.266,336.082 7.180,335.578 6.573 C 335.239 6.165,335.231 6.000,335.551 6.000 C 335.798 6.000,336.000 6.192,336.000 6.427 M348.434 10.579 C 348.635 10.455,348.800 10.524,348.800 10.734 C 348.800 11.178,347.584 11.717,347.276 11.409 C 347.161 11.294,347.271 11.200,347.521 11.200 C 347.771 11.200,347.920 10.975,347.853 10.700 C 347.786 10.425,347.807 10.336,347.900 10.502 C 347.992 10.669,348.233 10.703,348.434 10.579 M54.800 11.000 C 54.222 11.697,53.600 11.788,53.600 11.176 C 53.600 10.943,53.780 10.864,54.000 11.000 C 54.220 11.136,54.400 11.057,54.400 10.824 C 54.400 10.591,54.602 10.400,54.849 10.400 C 55.159 10.400,55.144 10.585,54.800 11.000 M352.034 12.179 C 352.235 12.055,352.400 12.124,352.400 12.334 C 352.400 13.161,351.362 13.086,351.323 12.256 C 351.300 11.785,351.369 11.626,351.475 11.902 C 351.581 12.179,351.833 12.303,352.034 12.179 M50.478 13.107 C 50.212 13.196,50.116 13.464,50.263 13.702 C 50.434 13.978,50.289 14.043,49.866 13.881 C 49.405 13.704,49.198 13.837,49.194 14.313 C 49.189 14.903,49.133 14.915,48.800 14.400 C 48.294 13.617,48.294 13.087,48.800 13.400 C 49.020 13.536,49.200 13.446,49.200 13.200 C 49.200 12.954,49.380 12.864,49.600 13.000 C 49.820 13.136,50.000 13.046,50.000 12.800 C 50.000 12.554,50.216 12.486,50.480 12.650 C 50.853 12.880,50.853 12.982,50.478 13.107 M360.081 17.773 C 359.961 17.979,359.736 17.799,359.581 17.373 C 359.427 16.948,359.399 16.432,359.519 16.227 C 359.639 16.021,359.864 16.201,360.019 16.627 C 360.173 17.052,360.201 17.568,360.081 17.773 M38.696 20.181 C 38.086 20.843,37.817 20.653,38.148 19.792 C 38.283 19.438,38.574 19.260,38.793 19.396 C 39.047 19.552,39.011 19.839,38.696 20.181 M35.838 22.062 C 36.028 22.369,35.946 22.414,35.594 22.196 C 35.213 21.961,35.133 22.050,35.312 22.514 C 35.487 22.971,35.387 23.093,34.969 22.933 C 34.516 22.759,34.486 22.579,34.839 22.153 C 35.396 21.482,35.475 21.474,35.838 22.062 M369.994 23.749 C 369.989 24.077,369.907 24.079,369.694 23.757 C 369.532 23.513,369.075 23.363,368.678 23.425 C 368.093 23.515,368.046 23.427,368.431 22.963 C 368.947 22.340,370.006 22.873,369.994 23.749 M33.438 24.062 C 33.628 24.369,33.546 24.414,33.194 24.196 C 32.806 23.956,32.735 24.053,32.927 24.555 C 33.073 24.935,33.026 25.140,32.823 25.014 C 32.621 24.889,32.342 24.970,32.204 25.193 C 32.066 25.417,31.752 25.600,31.507 25.600 C 31.261 25.600,31.483 25.150,32.000 24.600 C 33.084 23.446,33.062 23.454,33.438 24.062 M374.410 27.455 C 376.055 29.135,377.189 30.393,376.930 30.250 C 376.669 30.105,376.370 30.303,376.256 30.695 C 376.094 31.256,376.066 31.237,376.120 30.598 C 376.217 29.449,372.280 25.480,371.660 26.100 C 371.313 26.447,371.200 26.442,371.200 26.080 C 371.200 25.816,371.402 25.600,371.649 25.600 C 371.959 25.600,371.944 25.415,371.600 25.000 C 370.374 23.523,371.667 24.653,374.410 27.455 M29.105 28.160 C 29.150 28.698,28.924 29.220,28.592 29.348 C 28.267 29.473,28.000 29.390,28.000 29.164 C 28.000 28.938,27.775 28.882,27.500 29.041 C 27.225 29.199,27.436 28.850,27.970 28.265 C 29.134 26.987,29.009 26.998,29.105 28.160 M378.964 32.360 C 379.481 32.932,379.531 33.196,379.164 33.422 C 378.853 33.615,378.780 33.557,378.962 33.262 C 379.119 33.008,379.072 32.800,378.857 32.800 C 378.642 32.800,378.391 32.935,378.299 33.100 C 378.207 33.265,378.194 33.155,378.270 32.855 C 378.363 32.493,378.188 32.396,377.748 32.565 C 377.195 32.777,377.169 32.719,377.592 32.209 C 378.217 31.456,378.138 31.448,378.964 32.360 M23.786 35.223 C 23.612 35.504,23.345 35.486,22.959 35.166 C 22.515 34.797,22.494 34.569,22.865 34.122 C 23.420 33.453,24.259 34.457,23.786 35.223 M381.750 35.919 C 381.858 36.095,381.804 36.470,381.629 36.753 C 381.397 37.128,381.252 37.042,381.093 36.434 C 380.883 35.629,381.346 35.266,381.750 35.919 M385.004 41.193 C 384.889 41.379,385.021 41.619,385.298 41.725 C 385.574 41.831,385.421 41.900,384.959 41.879 C 384.356 41.850,384.170 41.636,384.304 41.124 C 384.407 40.731,384.653 40.509,384.852 40.632 C 385.051 40.755,385.119 41.007,385.004 41.193 M387.992 47.009 C 387.563 47.526,387.601 47.575,388.243 47.334 C 388.915 47.082,388.938 47.127,388.443 47.734 C 387.951 48.339,387.971 48.386,388.609 48.141 C 389.106 47.950,389.241 48.010,389.042 48.332 C 388.883 48.589,388.954 48.800,389.200 48.800 C 389.446 48.800,389.536 48.980,389.400 49.200 C 389.264 49.420,389.373 49.600,389.643 49.600 C 389.913 49.600,390.016 49.717,389.873 49.861 C 389.729 50.004,389.152 49.662,388.591 49.100 C 387.354 47.863,386.965 46.400,387.872 46.400 C 388.387 46.400,388.409 46.508,387.992 47.009 M11.600 57.285 C 11.600 57.727,10.496 57.679,10.215 57.224 C 10.087 57.018,10.347 56.876,10.791 56.909 C 11.236 56.943,11.600 57.112,11.600 57.285 M394.500 62.463 C 394.326 63.125,394.405 63.249,394.837 62.998 C 395.147 62.819,395.267 62.819,395.103 62.999 C 394.940 63.179,394.994 63.552,395.223 63.828 C 395.517 64.182,395.487 64.417,395.119 64.629 C 394.834 64.793,394.735 64.779,394.901 64.597 C 395.066 64.414,394.910 63.942,394.552 63.547 C 394.195 63.153,394.009 62.553,394.139 62.215 C 394.493 61.293,394.758 61.475,394.500 62.463 M7.481 66.653 C 7.342 66.792,7.426 67.287,7.668 67.753 C 7.910 68.219,7.966 68.467,7.791 68.303 C 7.616 68.140,7.232 68.207,6.937 68.452 C 6.570 68.757,6.400 68.763,6.400 68.473 C 6.400 68.239,6.572 67.941,6.783 67.811 C 6.993 67.681,7.064 67.310,6.940 66.987 C 6.814 66.660,6.940 66.400,7.224 66.400 C 7.504 66.400,7.620 66.514,7.481 66.653 M6.700 70.193 C 6.700 70.738,6.453 71.390,6.150 71.641 C 5.748 71.975,5.600 71.977,5.600 71.649 C 5.600 71.402,5.799 71.200,6.043 71.200 C 6.286 71.200,6.376 70.914,6.241 70.564 C 6.026 70.003,6.222 69.200,6.574 69.200 C 6.643 69.200,6.700 69.647,6.700 70.193 M4.200 80.800 C 4.064 81.020,4.154 81.200,4.400 81.200 C 4.646 81.200,4.724 81.399,4.574 81.643 C 4.383 81.951,4.196 81.921,3.956 81.543 C 3.490 80.808,3.514 80.400,4.024 80.400 C 4.257 80.400,4.336 80.580,4.200 80.800 M159.745 82.200 C 159.465 82.929,152.579 83.061,151.600 82.356 C 151.067 81.972,151.067 81.945,151.600 82.106 C 152.097 82.257,159.608 81.853,159.887 81.660 C 159.936 81.627,159.871 81.870,159.745 82.200 M265.434 82.500 C 265.598 82.665,256.453 82.800,245.109 82.800 C 228.979 82.800,224.444 82.691,224.294 82.300 C 224.077 81.737,264.870 81.935,265.434 82.500 M147.800 82.400 C 147.664 82.620,146.978 82.776,146.276 82.747 L 145.000 82.695 146.400 82.400 C 147.170 82.238,147.856 82.082,147.924 82.053 C 147.992 82.024,147.936 82.180,147.800 82.400 M398.898 82.266 C 398.621 82.377,398.495 82.631,398.618 82.830 C 398.741 83.028,398.563 83.084,398.223 82.954 C 397.450 82.657,397.813 81.989,398.724 82.032 C 399.144 82.051,399.210 82.140,398.898 82.266 M141.155 83.028 C 141.400 82.876,141.600 82.943,141.600 83.176 C 141.600 83.655,141.160 83.713,140.235 83.358 C 139.888 83.225,139.716 82.936,139.852 82.715 C 140.008 82.463,140.213 82.498,140.405 82.809 C 140.573 83.080,140.911 83.179,141.155 83.028 M383.776 83.067 C 382.972 83.655,358.000 83.881,358.000 83.300 C 358.000 83.135,363.670 83.052,370.600 83.116 C 377.608 83.181,383.200 83.077,383.200 82.883 C 383.200 82.691,383.494 82.533,383.853 82.533 C 384.419 82.533,384.408 82.605,383.776 83.067 M133.374 84.442 C 133.105 84.877,132.118 84.915,131.862 84.500 C 131.760 84.335,132.108 84.174,132.636 84.142 C 133.163 84.111,133.495 84.246,133.374 84.442 M129.600 85.316 C 129.600 85.519,129.299 85.570,128.932 85.429 C 128.565 85.288,128.140 85.374,127.988 85.620 C 127.797 85.929,127.645 85.894,127.496 85.506 C 127.342 85.105,127.610 84.945,128.440 84.945 C 129.078 84.945,129.600 85.112,129.600 85.316 M114.969 93.232 C 113.719 94.537,113.333 94.675,113.333 93.818 C 113.333 93.497,113.483 93.328,113.667 93.441 C 113.850 93.555,114.000 93.446,114.000 93.200 C 114.000 92.954,114.179 92.864,114.398 92.999 C 114.617 93.134,115.016 92.765,115.283 92.177 C 115.551 91.590,115.841 91.324,115.929 91.587 C 116.016 91.849,115.585 92.590,114.969 93.232 M111.425 97.432 C 111.077 97.780,110.895 98.230,111.020 98.432 C 111.145 98.635,111.046 98.800,110.800 98.800 C 110.554 98.800,110.464 98.980,110.600 99.200 C 110.736 99.420,110.646 99.600,110.400 99.600 C 110.149 99.600,110.084 99.819,110.253 100.100 C 110.493 100.499,110.429 100.500,109.940 100.103 C 109.603 99.830,109.250 99.650,109.156 99.703 C 109.062 99.757,109.397 99.384,109.901 98.876 C 110.405 98.367,110.722 97.798,110.606 97.610 C 110.490 97.422,110.621 97.177,110.898 97.066 C 111.865 96.676,112.052 96.805,111.425 97.432 M1.900 99.030 C 1.900 99.647,1.754 99.914,1.537 99.697 C 1.337 99.497,1.289 99.034,1.430 98.667 C 1.785 97.742,1.900 97.831,1.900 99.030 M1.800 101.600 C 1.936 101.820,1.834 102.000,1.574 102.000 C 1.259 102.000,1.182 102.410,1.344 103.220 C 1.495 103.976,1.438 104.347,1.194 104.196 C 0.691 103.885,0.675 101.200,1.176 101.200 C 1.383 101.200,1.664 101.380,1.800 101.600 M108.639 103.168 C 109.044 102.832,109.200 102.827,109.200 103.151 C 109.200 103.398,109.009 103.600,108.776 103.600 C 108.543 103.600,108.488 103.825,108.653 104.100 C 108.857 104.440,108.737 104.424,108.277 104.051 C 107.905 103.749,107.614 103.299,107.632 103.051 C 107.650 102.783,107.747 102.810,107.870 103.117 C 108.030 103.513,108.208 103.525,108.639 103.168 M106.800 112.224 C 106.800 112.541,106.626 112.800,106.413 112.800 C 106.199 112.800,106.140 112.500,106.281 112.134 C 106.466 111.651,106.391 111.558,106.006 111.796 C 105.651 112.016,105.572 111.969,105.766 111.655 C 106.125 111.074,106.800 111.446,106.800 112.224 M1.172 117.100 C 1.062 118.273,0.454 118.926,0.428 117.900 C 0.413 117.295,0.580 116.800,0.800 116.800 C 1.020 116.800,1.187 116.935,1.172 117.100 M105.422 119.235 C 105.569 119.474,105.510 119.850,105.290 120.070 C 105.024 120.336,104.788 120.304,104.583 119.973 C 104.385 119.653,104.441 119.578,104.738 119.762 C 104.992 119.919,105.200 119.872,105.200 119.657 C 105.200 119.442,104.975 119.176,104.700 119.065 C 104.339 118.919,104.333 118.854,104.676 118.832 C 104.938 118.814,105.274 118.996,105.422 119.235 M104.632 128.701 C 104.171 129.163,103.934 128.440,104.249 127.530 L 104.571 126.600 104.718 127.534 C 104.798 128.048,104.760 128.573,104.632 128.701 M103.688 142.298 C 103.593 142.571,103.336 142.684,103.115 142.548 C 102.868 142.395,102.922 142.155,103.257 141.920 C 103.570 141.700,103.631 141.467,103.400 141.370 C 103.171 141.273,103.078 140.301,103.182 139.100 L 103.363 137.000 103.611 139.400 C 103.748 140.720,103.782 142.024,103.688 142.298 M103.087 146.700 C 102.995 147.305,102.920 146.810,102.920 145.600 C 102.920 144.390,102.995 143.895,103.087 144.500 C 103.178 145.105,103.178 146.095,103.087 146.700 M397.600 151.000 C 397.600 151.330,397.285 151.586,396.900 151.568 C 396.478 151.549,396.399 151.456,396.702 151.334 C 396.979 151.223,397.103 150.967,396.979 150.766 C 396.855 150.565,396.943 150.400,397.176 150.400 C 397.409 150.400,397.600 150.670,397.600 151.000 M397.574 161.000 L 397.340 166.600 397.307 160.416 C 397.289 157.014,397.394 154.494,397.541 154.816 C 397.687 155.137,397.702 157.920,397.574 161.000 M398.579 181.400 C 398.579 188.660,398.633 191.686,398.699 188.125 C 398.765 184.564,398.766 178.624,398.699 174.925 C 398.633 171.226,398.579 174.140,398.579 181.400 M397.778 181.400 C 397.778 188.220,397.832 191.066,397.899 187.725 C 397.966 184.384,397.966 178.804,397.899 175.325 C 397.833 171.846,397.778 174.580,397.778 181.400 M103.097 271.500 C 103.022 273.205,102.961 271.810,102.961 268.400 C 102.961 264.990,103.022 263.595,103.097 265.300 C 103.172 267.005,103.172 269.795,103.097 271.500 M103.760 275.933 C 103.738 276.190,103.664 277.435,103.595 278.700 L 103.470 281.000 103.235 278.800 C 103.097 277.512,103.166 276.476,103.400 276.300 C 103.652 276.111,103.577 275.840,103.200 275.570 C 102.667 275.187,102.667 275.157,103.200 275.303 C 103.530 275.393,103.782 275.677,103.760 275.933 M0.812 283.348 C 0.529 283.631,0.408 283.327,0.425 282.380 C 0.449 281.083,0.474 281.058,0.838 281.968 C 1.094 282.609,1.085 283.075,0.812 283.348 M104.800 289.176 C 104.800 289.603,104.665 290.036,104.500 290.138 C 104.335 290.240,104.200 289.891,104.200 289.362 C 104.200 288.833,104.335 288.400,104.500 288.400 C 104.665 288.400,104.800 288.749,104.800 289.176 M1.716 296.401 C 1.831 296.841,1.762 297.100,1.563 296.977 C 0.897 296.565,1.190 297.704,1.900 298.286 C 2.285 298.601,2.344 298.726,2.032 298.564 C 1.606 298.342,1.533 298.449,1.741 298.991 C 1.975 299.601,1.924 299.635,1.409 299.208 C 0.600 298.536,0.609 295.600,1.420 295.600 C 1.468 295.600,1.601 295.960,1.716 296.401 M2.318 300.567 C 1.994 300.805,1.801 301.270,1.888 301.600 C 1.993 301.999,1.898 301.965,1.602 301.497 C 1.071 300.658,1.315 300.133,2.235 300.133 C 2.812 300.133,2.823 300.194,2.318 300.567 M2.903 307.899 C 2.651 307.983,2.542 308.355,2.660 308.726 C 2.833 309.267,2.797 309.289,2.475 308.836 C 1.981 308.141,2.321 307.104,2.922 307.476 C 3.236 307.669,3.230 307.790,2.903 307.899 M2.929 310.640 C 2.794 310.993,2.909 311.420,3.184 311.590 C 3.542 311.812,3.558 311.979,3.240 312.175 C 2.700 312.509,2.225 311.433,2.545 310.600 C 2.671 310.270,2.865 310.000,2.975 310.000 C 3.085 310.000,3.064 310.288,2.929 310.640 M115.535 316.998 C 115.412 317.121,114.811 316.542,114.198 315.711 L 113.085 314.200 114.422 315.487 C 115.157 316.195,115.658 316.875,115.535 316.998 M117.568 318.749 C 117.548 319.164,117.464 319.218,117.335 318.900 C 117.224 318.625,116.833 318.386,116.467 318.368 C 116.047 318.349,115.986 318.262,116.302 318.134 C 116.579 318.023,116.679 317.722,116.526 317.466 C 116.372 317.210,116.551 317.247,116.923 317.549 C 117.295 317.851,117.586 318.391,117.568 318.749 M128.400 323.643 C 128.400 323.886,128.664 323.984,128.987 323.860 C 129.310 323.736,129.658 323.770,129.759 323.934 C 130.107 324.497,128.455 324.348,127.978 323.773 C 127.639 323.365,127.631 323.200,127.951 323.200 C 128.198 323.200,128.400 323.399,128.400 323.643 M138.800 325.576 C 138.800 325.783,138.592 326.081,138.338 326.238 C 138.031 326.428,137.986 326.346,138.204 325.994 C 138.444 325.606,138.347 325.535,137.845 325.727 C 137.437 325.884,137.258 325.830,137.403 325.595 C 137.714 325.092,138.800 325.077,138.800 325.576 M141.000 325.996 C 141.649 326.271,141.561 326.322,140.539 326.267 C 139.845 326.230,139.361 326.065,139.463 325.900 C 139.686 325.537,139.958 325.553,141.000 325.996 M147.200 326.376 C 147.200 326.583,146.992 326.881,146.738 327.038 C 146.434 327.226,146.386 327.147,146.596 326.806 C 146.845 326.403,146.572 326.343,145.358 326.535 C 144.268 326.707,144.040 326.672,144.600 326.419 C 145.671 325.933,147.200 325.909,147.200 326.376 M342.600 326.489 L 357.800 326.586 342.200 326.793 C 333.336 326.911,326.489 326.847,326.343 326.646 C 326.202 326.451,325.601 326.413,325.009 326.562 C 324.248 326.753,324.016 326.697,324.217 326.372 C 324.395 326.085,325.046 326.002,325.951 326.152 C 326.748 326.283,334.240 326.435,342.600 326.489 M288.583 326.772 C 288.709 326.977,288.602 327.275,288.345 327.434 C 288.052 327.615,287.984 327.550,288.162 327.262 C 288.319 327.008,288.257 326.800,288.024 326.800 C 287.791 326.800,287.600 326.991,287.600 327.224 C 287.600 327.457,287.401 327.524,287.157 327.374 C 286.849 327.183,286.879 326.996,287.257 326.756 C 287.962 326.310,288.300 326.314,288.583 326.772 M380.300 326.699 C 376.395 326.765,370.005 326.765,366.100 326.699 C 362.195 326.634,365.390 326.580,373.200 326.580 C 381.010 326.580,384.205 326.634,380.300 326.699 M6.566 329.707 C 6.384 330.282,6.453 330.414,6.819 330.188 C 7.149 329.984,7.224 330.038,7.034 330.345 C 6.593 331.059,5.935 330.436,6.211 329.566 C 6.347 329.138,6.266 328.800,6.027 328.800 C 5.792 328.800,5.600 328.598,5.600 328.351 C 5.600 328.044,5.792 328.062,6.209 328.407 C 6.581 328.716,6.720 329.222,6.566 329.707 M8.309 335.391 C 8.266 335.914,8.105 336.265,7.953 336.171 C 7.800 336.076,7.777 335.611,7.901 335.137 C 8.068 334.495,7.992 334.358,7.601 334.599 C 7.251 334.816,7.173 334.768,7.366 334.455 C 7.809 333.739,8.397 334.323,8.309 335.391 M392.498 348.666 C 392.221 348.777,392.097 349.033,392.221 349.234 C 392.345 349.435,392.246 349.600,392.000 349.600 C 391.754 349.600,391.664 349.780,391.800 350.000 C 391.936 350.220,391.846 350.400,391.600 350.400 C 391.354 350.400,391.264 350.580,391.400 350.800 C 391.536 351.020,391.446 351.200,391.200 351.200 C 390.954 351.200,390.835 351.335,390.934 351.500 C 391.034 351.665,390.876 352.021,390.583 352.292 C 390.153 352.690,390.062 352.632,390.111 351.992 C 390.143 351.556,390.320 351.200,390.503 351.200 C 390.685 351.200,390.786 350.975,390.726 350.700 C 390.596 350.102,392.005 348.387,392.589 348.432 C 392.815 348.449,392.774 348.554,392.498 348.666 M14.634 350.900 C 14.688 351.395,14.748 351.946,14.767 352.124 C 14.785 352.302,14.935 352.364,15.100 352.262 C 15.265 352.160,15.426 352.509,15.458 353.038 C 15.489 353.567,15.344 354.000,15.134 354.000 C 14.924 354.000,14.864 353.820,15.000 353.600 C 15.136 353.380,15.046 353.200,14.800 353.200 C 14.554 353.200,14.464 353.020,14.600 352.800 C 14.736 352.580,14.646 352.400,14.400 352.400 C 14.154 352.400,14.057 352.231,14.185 352.024 C 14.313 351.817,14.172 351.419,13.873 351.139 C 13.476 350.769,13.446 350.500,13.764 350.155 C 14.303 349.569,14.505 349.742,14.634 350.900 M18.541 358.302 C 18.414 358.791,18.141 359.087,17.935 358.960 C 17.713 358.823,17.745 358.507,18.015 358.182 C 18.265 357.881,18.337 357.402,18.176 357.118 C 17.970 356.754,18.015 356.721,18.328 357.007 C 18.573 357.231,18.669 357.814,18.541 358.302 M384.756 361.853 C 384.121 362.618,383.600 362.534,383.600 361.667 C 383.600 360.648,384.027 360.324,384.668 360.857 C 385.077 361.196,385.099 361.440,384.756 361.853 M381.362 365.539 C 381.595 365.916,379.737 367.766,378.800 368.090 C 377.850 368.419,377.600 368.421,377.600 368.100 C 377.600 367.935,377.735 367.791,377.900 367.780 C 378.620 367.733,379.979 367.127,379.928 366.876 C 379.730 365.887,380.902 364.794,381.362 365.539 M24.574 367.242 C 24.469 367.412,24.702 367.736,25.092 367.963 C 25.481 368.190,25.603 368.381,25.362 368.388 C 25.121 368.395,24.625 368.070,24.260 367.667 C 23.711 367.060,23.698 366.933,24.181 366.933 C 24.502 366.933,24.679 367.072,24.574 367.242 M378.000 369.322 C 378.000 369.388,377.400 370.025,376.667 370.735 C 375.602 371.767,375.333 371.884,375.332 371.314 C 375.330 370.544,376.397 369.551,376.896 369.859 C 377.063 369.963,377.200 369.857,377.200 369.624 C 377.200 369.391,377.380 369.200,377.600 369.200 C 377.820 369.200,378.000 369.255,378.000 369.322 M29.329 371.931 C 30.057 372.637,30.776 373.091,30.926 372.940 C 31.077 372.790,31.200 372.765,31.200 372.884 C 31.200 374.102,29.980 373.809,28.416 372.216 C 26.425 370.188,27.261 369.927,29.329 371.931 M28.800 372.200 C 29.546 372.970,30.247 373.600,30.357 373.600 C 30.467 373.600,29.946 372.970,29.200 372.200 C 28.454 371.430,27.753 370.800,27.643 370.800 C 27.533 370.800,28.054 371.430,28.800 372.200 M373.592 373.409 C 373.327 373.729,372.956 373.897,372.769 373.781 C 372.582 373.665,372.738 373.255,373.115 372.869 C 373.903 372.061,374.320 372.533,373.592 373.409 M371.452 375.008 C 371.317 375.362,371.026 375.540,370.807 375.404 C 370.553 375.248,370.589 374.961,370.904 374.619 C 371.514 373.957,371.783 374.147,371.452 375.008 M37.544 379.134 C 37.352 379.208,37.321 379.478,37.474 379.734 C 37.628 379.990,37.429 379.937,37.033 379.615 C 36.602 379.264,36.491 378.970,36.756 378.881 C 37.000 378.800,37.213 378.433,37.228 378.067 C 37.250 377.541,37.324 377.569,37.574 378.200 C 37.749 378.640,37.736 379.060,37.544 379.134 M358.292 383.789 C 358.461 383.976,358.375 383.999,358.100 383.841 C 357.825 383.682,357.600 383.754,357.600 384.000 C 357.600 384.246,357.420 384.336,357.200 384.200 C 356.980 384.064,356.800 384.154,356.800 384.400 C 356.800 384.646,356.620 384.736,356.400 384.600 C 356.180 384.464,356.000 384.554,356.000 384.800 C 356.000 385.046,355.820 385.136,355.600 385.000 C 355.380 384.864,355.200 384.954,355.200 385.200 C 355.200 385.446,355.020 385.536,354.800 385.400 C 354.580 385.264,354.400 385.354,354.400 385.600 C 354.400 385.846,354.220 385.936,354.000 385.800 C 353.780 385.664,353.600 385.754,353.600 386.000 C 353.600 386.246,353.435 386.345,353.234 386.221 C 353.033 386.097,352.781 386.221,352.675 386.498 C 352.569 386.774,352.500 386.615,352.523 386.144 C 352.550 385.566,352.753 385.361,353.147 385.512 C 353.538 385.662,353.630 385.572,353.425 385.241 C 353.236 384.935,353.325 384.775,353.660 384.821 C 354.751 384.970,355.240 384.789,354.962 384.338 C 354.794 384.066,354.851 383.984,355.102 384.139 C 355.617 384.458,356.868 384.034,356.616 383.626 C 356.367 383.223,357.914 383.373,358.292 383.789 M350.000 387.647 C 350.000 387.867,349.820 387.936,349.600 387.800 C 349.380 387.664,349.200 387.773,349.200 388.043 C 349.200 388.313,349.106 388.439,348.991 388.324 C 348.650 387.983,349.251 386.785,349.642 387.026 C 349.839 387.148,350.000 387.427,350.000 387.647 M52.592 387.924 C 52.717 388.249,52.725 388.609,52.609 388.724 C 52.494 388.839,52.400 388.713,52.400 388.443 C 52.400 388.173,52.220 388.064,52.000 388.200 C 51.780 388.336,51.600 388.246,51.600 388.000 C 51.600 387.754,51.392 387.681,51.138 387.838 C 50.880 387.998,50.784 387.949,50.921 387.728 C 51.289 387.132,52.335 387.255,52.592 387.924 M347.651 388.277 C 348.024 388.737,348.040 388.857,347.700 388.653 C 347.425 388.488,347.200 388.543,347.200 388.776 C 347.200 389.009,346.998 389.200,346.751 389.200 C 346.427 389.200,346.432 389.044,346.768 388.639 C 347.125 388.208,347.113 388.030,346.717 387.870 C 346.410 387.747,346.383 387.650,346.651 387.632 C 346.899 387.614,347.349 387.905,347.651 388.277 M345.893 388.845 C 345.928 389.310,345.848 389.582,345.715 389.449 C 345.582 389.316,345.197 389.430,344.860 389.703 C 344.211 390.229,344.434 389.635,345.311 388.500 C 345.814 387.851,345.819 387.854,345.893 388.845 M55.651 389.300 C 56.069 390.085,56.054 390.136,55.529 389.703 C 55.197 389.430,54.808 389.325,54.663 389.470 C 54.518 389.615,54.400 389.553,54.400 389.333 C 54.400 388.957,54.789 388.400,55.053 388.400 C 55.118 388.400,55.388 388.805,55.651 389.300 M334.947 392.519 C 335.086 392.380,335.200 392.477,335.200 392.733 C 335.200 393.315,334.968 393.318,333.913 392.753 C 333.182 392.362,333.114 392.399,333.363 393.053 C 333.580 393.623,333.536 393.690,333.179 393.335 C 332.479 392.641,333.088 391.912,333.972 392.385 C 334.369 392.598,334.808 392.658,334.947 392.519 M70.422 394.227 C 70.761 394.635,70.769 394.800,70.449 394.800 C 70.202 394.800,70.000 394.601,70.000 394.357 C 70.000 394.114,69.736 394.016,69.413 394.140 C 69.090 394.264,68.742 394.230,68.641 394.066 C 68.293 393.503,69.945 393.652,70.422 394.227 M328.983 393.972 C 329.279 394.451,328.526 394.925,327.993 394.596 C 327.546 394.319,327.840 393.600,328.400 393.600 C 328.594 393.600,328.856 393.768,328.983 393.972 M84.537 397.300 C 84.285 397.710,82.896 397.680,82.636 397.258 C 82.520 397.070,82.941 396.935,83.573 396.958 C 84.205 396.981,84.638 397.135,84.537 397.300 M311.822 397.550 C 311.325 398.047,311.108 398.068,310.703 397.659 C 310.298 397.251,310.349 397.209,310.966 397.444 C 311.441 397.625,311.637 397.584,311.483 397.335 C 311.347 397.114,311.506 396.933,311.837 396.933 C 312.366 396.933,312.364 397.008,311.822 397.550 M314.959 397.267 C 314.845 397.450,314.414 397.600,314.000 397.600 C 313.586 397.600,313.155 397.450,313.041 397.267 C 312.928 397.083,313.359 396.933,314.000 396.933 C 314.641 396.933,315.072 397.083,314.959 397.267 M309.719 397.867 C 309.477 398.497,307.760 398.583,307.390 397.984 C 307.222 397.712,307.510 397.663,308.226 397.842 C 308.903 398.012,309.227 397.968,309.077 397.725 C 308.944 397.510,309.080 397.333,309.379 397.333 C 309.679 397.333,309.832 397.573,309.719 397.867 M92.534 398.144 C 92.888 397.945,92.888 398.003,92.535 398.386 C 91.986 398.981,91.059 398.551,91.467 397.892 C 91.671 397.562,91.790 397.570,91.907 397.922 C 91.996 398.188,92.278 398.287,92.534 398.144 M94.123 398.525 C 93.973 398.768,94.297 398.812,94.974 398.642 C 95.690 398.463,95.978 398.512,95.810 398.784 C 95.440 399.383,93.723 399.297,93.481 398.667 C 93.368 398.373,93.521 398.133,93.821 398.133 C 94.120 398.133,94.256 398.310,94.123 398.525 M303.200 398.600 C 302.621 399.298,301.654 399.365,300.800 398.768 C 300.329 398.438,300.392 398.402,301.092 398.598 C 301.582 398.736,302.302 398.663,302.692 398.437 C 303.670 397.867,303.779 397.902,303.200 398.600 M99.655 398.993 C 100.058 398.763,100.087 398.806,99.767 399.154 C 99.261 399.706,97.886 399.307,98.252 398.715 C 98.408 398.463,98.613 398.498,98.805 398.809 C 98.981 399.093,99.342 399.171,99.655 398.993 M297.413 399.297 C 296.947 399.558,296.573 399.532,296.261 399.218 C 295.912 398.865,295.969 398.817,296.500 399.019 C 296.919 399.179,297.200 399.098,297.200 398.819 C 297.200 398.563,297.403 398.478,297.651 398.632 C 297.957 398.820,297.879 399.036,297.413 399.297 " stroke="none" fill="#3474f4" fill-rule="evenodd"></path><path id="path1" d="M102.108 0.772 C 102.140 1.197,102.312 1.455,102.490 1.345 C 102.667 1.235,102.718 0.991,102.602 0.803 C 102.485 0.614,102.707 0.378,103.095 0.277 C 103.646 0.133,103.609 0.083,102.925 0.046 C 102.293 0.013,102.066 0.215,102.108 0.772 M299.306 0.326 C 299.012 0.512,299.378 0.640,300.206 0.640 C 300.973 0.640,301.600 0.496,301.600 0.320 C 301.600 -0.090,299.954 -0.085,299.306 0.326 M94.226 1.158 C 94.104 1.355,94.283 1.623,94.623 1.754 C 94.977 1.889,95.137 1.822,94.997 1.595 C 94.863 1.378,95.044 1.200,95.400 1.200 C 95.756 1.200,95.937 1.378,95.803 1.595 C 95.663 1.822,95.823 1.889,96.177 1.754 C 96.517 1.623,96.696 1.355,96.574 1.158 C 96.287 0.693,94.513 0.693,94.226 1.158 M306.900 1.065 C 306.625 1.176,306.400 1.432,306.400 1.633 C 306.400 2.092,307.288 1.936,307.730 1.400 C 307.944 1.141,308.133 1.177,308.265 1.502 C 308.484 2.044,309.200 1.795,309.200 1.176 C 309.200 0.784,307.767 0.715,306.900 1.065 M310.203 1.595 C 310.058 1.830,310.237 1.884,310.645 1.727 C 311.058 1.569,311.233 1.624,311.083 1.865 C 310.947 2.086,311.094 2.267,311.411 2.267 C 311.846 2.267,311.879 2.136,311.545 1.733 C 311.019 1.100,310.539 1.051,310.203 1.595 M87.949 2.265 C 87.453 2.867,87.484 2.886,88.274 2.465 C 89.342 1.896,90.134 1.860,89.803 2.395 C 89.663 2.622,89.823 2.689,90.177 2.554 C 90.517 2.423,90.696 2.155,90.574 1.958 C 90.205 1.361,88.534 1.557,87.949 2.265 M312.800 1.957 C 312.800 2.154,313.079 2.422,313.421 2.553 C 313.777 2.689,313.937 2.622,313.797 2.395 C 313.663 2.178,313.844 2.000,314.200 2.000 C 314.556 2.000,314.755 2.150,314.641 2.333 C 314.528 2.517,314.680 2.667,314.979 2.667 C 315.279 2.667,315.432 2.427,315.319 2.133 C 315.094 1.546,312.800 1.385,312.800 1.957 M83.255 2.933 C 82.920 3.337,82.957 3.467,83.406 3.467 C 83.733 3.467,84.000 3.317,84.000 3.133 C 84.000 2.950,84.191 2.800,84.424 2.800 C 84.657 2.800,84.719 3.008,84.562 3.262 C 84.385 3.548,84.452 3.615,84.738 3.438 C 84.992 3.281,85.200 2.983,85.200 2.776 C 85.200 2.209,83.760 2.325,83.255 2.933 M318.262 2.700 C 318.160 2.865,318.509 3.000,319.038 3.000 C 319.567 3.000,320.000 2.865,320.000 2.700 C 320.000 2.535,319.651 2.400,319.224 2.400 C 318.797 2.400,318.364 2.535,318.262 2.700 M80.700 3.633 C 80.315 4.055,80.158 4.400,80.351 4.400 C 80.544 4.400,80.924 4.132,81.196 3.804 C 81.468 3.477,81.878 3.325,82.107 3.466 C 82.349 3.616,82.404 3.530,82.238 3.262 C 81.856 2.643,81.533 2.721,80.700 3.633 M75.398 4.403 C 75.120 4.852,76.292 5.442,76.684 5.049 C 76.821 4.912,76.588 4.797,76.167 4.794 C 75.525 4.789,75.498 4.724,76.000 4.400 C 76.361 4.167,76.410 4.010,76.124 4.006 C 75.862 4.003,75.535 4.181,75.398 4.403 M73.460 4.987 C 73.336 5.310,73.412 5.684,73.627 5.817 C 73.843 5.950,73.970 5.821,73.910 5.530 C 73.849 5.238,74.038 5.049,74.330 5.110 C 74.621 5.170,74.745 5.035,74.606 4.810 C 74.244 4.223,73.722 4.304,73.460 4.987 M71.843 5.433 C 71.509 6.303,71.532 6.400,72.067 6.400 C 72.323 6.400,72.415 6.282,72.270 6.137 C 72.125 5.992,72.207 5.632,72.452 5.337 C 72.733 4.999,72.747 4.800,72.492 4.800 C 72.268 4.800,71.976 5.085,71.843 5.433 M335.578 6.573 C 336.082 7.180,337.600 7.266,337.600 6.688 C 337.600 6.500,337.240 6.460,336.800 6.600 C 336.341 6.746,336.000 6.672,336.000 6.427 C 336.000 6.192,335.798 6.000,335.551 6.000 C 335.231 6.000,335.239 6.165,335.578 6.573 M347.853 10.700 C 347.920 10.975,347.771 11.200,347.521 11.200 C 347.271 11.200,347.161 11.294,347.276 11.409 C 347.584 11.717,348.800 11.178,348.800 10.734 C 348.800 10.524,348.635 10.455,348.434 10.579 C 348.233 10.703,347.992 10.669,347.900 10.502 C 347.807 10.336,347.786 10.425,347.853 10.700 M54.400 10.824 C 54.400 11.057,54.220 11.136,54.000 11.000 C 53.780 10.864,53.600 10.943,53.600 11.176 C 53.600 11.788,54.222 11.697,54.800 11.000 C 55.144 10.585,55.159 10.400,54.849 10.400 C 54.602 10.400,54.400 10.591,54.400 10.824 M351.323 12.256 C 351.362 13.086,352.400 13.161,352.400 12.334 C 352.400 12.124,352.235 12.055,352.034 12.179 C 351.833 12.303,351.581 12.179,351.475 11.902 C 351.369 11.626,351.300 11.785,351.323 12.256 M50.000 12.800 C 50.000 13.046,49.820 13.136,49.600 13.000 C 49.380 12.864,49.200 12.954,49.200 13.200 C 49.200 13.446,49.020 13.536,48.800 13.400 C 48.294 13.087,48.294 13.617,48.800 14.400 C 49.133 14.915,49.189 14.903,49.194 14.313 C 49.198 13.837,49.405 13.704,49.866 13.881 C 50.289 14.043,50.434 13.978,50.263 13.702 C 50.116 13.464,50.212 13.196,50.478 13.107 C 50.853 12.982,50.853 12.880,50.480 12.650 C 50.216 12.486,50.000 12.554,50.000 12.800 M359.519 16.227 C 359.399 16.432,359.427 16.948,359.581 17.373 C 359.736 17.799,359.961 17.979,360.081 17.773 C 360.201 17.568,360.173 17.052,360.019 16.627 C 359.864 16.201,359.639 16.021,359.519 16.227 M38.148 19.792 C 37.817 20.653,38.086 20.843,38.696 20.181 C 39.011 19.839,39.047 19.552,38.793 19.396 C 38.574 19.260,38.283 19.438,38.148 19.792 M34.839 22.153 C 34.486 22.579,34.516 22.759,34.969 22.933 C 35.387 23.093,35.487 22.971,35.312 22.514 C 35.133 22.050,35.213 21.961,35.594 22.196 C 35.946 22.414,36.028 22.369,35.838 22.062 C 35.475 21.474,35.396 21.482,34.839 22.153 M368.431 22.963 C 368.046 23.427,368.093 23.515,368.678 23.425 C 369.075 23.363,369.532 23.513,369.694 23.757 C 369.907 24.079,369.989 24.077,369.994 23.749 C 370.006 22.873,368.947 22.340,368.431 22.963 M32.000 24.600 C 31.483 25.150,31.261 25.600,31.507 25.600 C 31.752 25.600,32.066 25.417,32.204 25.193 C 32.342 24.970,32.621 24.889,32.823 25.014 C 33.026 25.140,33.073 24.935,32.927 24.555 C 32.735 24.053,32.806 23.956,33.194 24.196 C 33.546 24.414,33.628 24.369,33.438 24.062 C 33.062 23.454,33.084 23.446,32.000 24.600 M371.600 25.000 C 371.944 25.415,371.959 25.600,371.649 25.600 C 371.402 25.600,371.200 25.816,371.200 26.080 C 371.200 26.442,371.313 26.447,371.660 26.100 C 372.280 25.480,376.217 29.449,376.120 30.598 C 376.066 31.237,376.094 31.256,376.256 30.695 C 376.370 30.303,376.669 30.105,376.930 30.250 C 377.189 30.393,376.055 29.135,374.410 27.455 C 371.667 24.653,370.374 23.523,371.600 25.000 M27.970 28.265 C 27.436 28.850,27.225 29.199,27.500 29.041 C 27.775 28.882,28.000 28.938,28.000 29.164 C 28.000 29.390,28.267 29.473,28.592 29.348 C 28.924 29.220,29.150 28.698,29.105 28.160 C 29.009 26.998,29.134 26.987,27.970 28.265 M24.975 31.668 L 23.800 32.936 25.088 32.050 C 26.467 31.100,27.065 30.400,26.498 30.400 C 26.307 30.400,25.621 30.971,24.975 31.668 M377.592 32.209 C 377.169 32.719,377.195 32.777,377.748 32.565 C 378.188 32.396,378.363 32.493,378.270 32.855 C 378.194 33.155,378.207 33.265,378.299 33.100 C 378.391 32.935,378.642 32.800,378.857 32.800 C 379.072 32.800,379.119 33.008,378.962 33.262 C 378.780 33.557,378.853 33.615,379.164 33.422 C 379.531 33.196,379.481 32.932,378.964 32.360 C 378.138 31.448,378.217 31.456,377.592 32.209 M22.865 34.122 C 22.494 34.569,22.515 34.797,22.959 35.166 C 23.679 35.764,24.192 35.072,23.692 34.178 C 23.388 33.636,23.274 33.628,22.865 34.122 M381.093 36.434 C 381.252 37.042,381.397 37.128,381.629 36.753 C 381.973 36.196,381.759 35.600,381.214 35.600 C 381.027 35.600,380.973 35.975,381.093 36.434 M384.304 41.124 C 384.170 41.636,384.356 41.850,384.959 41.879 C 385.421 41.900,385.574 41.831,385.298 41.725 C 385.021 41.619,384.889 41.379,385.004 41.193 C 385.119 41.007,385.051 40.755,384.852 40.632 C 384.653 40.509,384.407 40.731,384.304 41.124 M387.408 47.239 C 387.597 48.224,389.493 50.240,389.873 49.861 C 390.016 49.717,389.913 49.600,389.643 49.600 C 389.373 49.600,389.264 49.420,389.400 49.200 C 389.536 48.980,389.446 48.800,389.200 48.800 C 388.954 48.800,388.883 48.589,389.042 48.332 C 389.241 48.010,389.106 47.950,388.609 48.141 C 387.971 48.386,387.951 48.339,388.443 47.734 C 388.938 47.127,388.915 47.082,388.243 47.334 C 387.601 47.575,387.563 47.526,387.992 47.009 C 388.409 46.508,388.387 46.400,387.872 46.400 C 387.452 46.400,387.299 46.676,387.408 47.239 M10.215 57.224 C 10.496 57.679,11.600 57.727,11.600 57.285 C 11.600 57.112,11.236 56.943,10.791 56.909 C 10.347 56.876,10.087 57.018,10.215 57.224 M394.139 62.215 C 394.009 62.553,394.195 63.153,394.552 63.547 C 394.910 63.942,395.066 64.414,394.901 64.597 C 394.735 64.779,394.834 64.793,395.119 64.629 C 395.487 64.417,395.517 64.182,395.223 63.828 C 394.994 63.552,394.940 63.179,395.103 62.999 C 395.267 62.819,395.147 62.819,394.837 62.998 C 394.405 63.249,394.326 63.125,394.500 62.463 C 394.758 61.475,394.493 61.293,394.139 62.215 M6.940 66.987 C 7.064 67.310,6.993 67.681,6.783 67.811 C 6.572 67.941,6.400 68.239,6.400 68.473 C 6.400 68.763,6.570 68.757,6.937 68.452 C 7.232 68.207,7.616 68.140,7.791 68.303 C 7.966 68.467,7.910 68.219,7.668 67.753 C 7.426 67.287,7.342 66.792,7.481 66.653 C 7.620 66.514,7.504 66.400,7.224 66.400 C 6.940 66.400,6.814 66.660,6.940 66.987 M6.222 69.564 C 6.099 69.764,6.107 70.214,6.241 70.564 C 6.376 70.914,6.286 71.200,6.043 71.200 C 5.799 71.200,5.600 71.402,5.600 71.649 C 5.600 71.977,5.748 71.975,6.150 71.641 C 6.453 71.390,6.700 70.738,6.700 70.193 C 6.700 69.134,6.583 68.980,6.222 69.564 M3.606 80.700 C 3.621 81.411,4.305 82.078,4.574 81.643 C 4.724 81.399,4.646 81.200,4.400 81.200 C 4.154 81.200,4.064 81.020,4.200 80.800 C 4.336 80.580,4.257 80.400,4.024 80.400 C 3.791 80.400,3.603 80.535,3.606 80.700 M156.000 82.004 C 153.910 82.160,151.930 82.206,151.600 82.106 C 151.067 81.945,151.067 81.972,151.600 82.356 C 152.579 83.061,159.465 82.929,159.745 82.200 C 159.871 81.870,159.936 81.627,159.887 81.660 C 159.839 81.693,158.090 81.848,156.000 82.004 M161.515 81.924 C 161.138 82.076,174.801 82.157,191.876 82.105 C 208.952 82.053,223.009 81.925,223.114 81.820 C 223.418 81.515,162.274 81.619,161.515 81.924 M224.294 82.300 C 224.444 82.691,228.979 82.800,245.109 82.800 C 256.453 82.800,265.598 82.665,265.434 82.500 C 264.870 81.935,224.077 81.737,224.294 82.300 M142.512 82.400 C 142.700 83.050,147.064 83.096,147.705 82.455 C 147.882 82.278,146.924 82.311,145.575 82.528 C 143.591 82.847,143.048 82.816,142.731 82.361 C 142.403 81.892,142.368 81.899,142.512 82.400 M300.977 82.426 C 300.330 82.551,312.550 82.797,328.133 82.973 C 344.103 83.154,356.617 83.143,356.813 82.947 C 357.010 82.751,351.081 82.648,343.180 82.710 C 335.491 82.771,329.200 82.681,329.200 82.510 C 329.200 82.158,302.783 82.079,300.977 82.426 M397.826 82.358 C 397.704 82.555,397.883 82.823,398.223 82.954 C 398.563 83.084,398.741 83.028,398.618 82.830 C 398.495 82.631,398.621 82.377,398.898 82.266 C 399.210 82.140,399.144 82.051,398.724 82.032 C 398.352 82.014,397.948 82.161,397.826 82.358 M3.577 83.243 C 3.235 83.883,3.245 84.196,3.622 84.543 C 3.997 84.889,4.050 84.880,3.840 84.508 C 3.688 84.238,3.758 83.653,3.996 83.208 C 4.233 82.764,4.338 82.400,4.228 82.400 C 4.118 82.400,3.825 82.779,3.577 83.243 M139.852 82.715 C 139.716 82.936,139.888 83.225,140.235 83.358 C 141.160 83.713,141.600 83.655,141.600 83.176 C 141.600 82.943,141.400 82.876,141.155 83.028 C 140.911 83.179,140.573 83.080,140.405 82.809 C 140.213 82.498,140.008 82.463,139.852 82.715 M383.200 82.883 C 383.200 83.077,377.608 83.181,370.600 83.116 C 363.670 83.052,358.000 83.135,358.000 83.300 C 358.000 83.881,382.972 83.655,383.776 83.067 C 384.408 82.605,384.419 82.533,383.853 82.533 C 383.494 82.533,383.200 82.691,383.200 82.883 M137.798 83.196 C 138.039 83.587,137.860 83.666,137.072 83.516 C 136.496 83.406,136.119 83.470,136.236 83.658 C 136.524 84.123,138.400 84.094,138.400 83.624 C 138.400 83.417,138.192 83.119,137.938 82.962 C 137.634 82.774,137.586 82.853,137.798 83.196 M131.862 84.500 C 132.118 84.915,133.105 84.877,133.374 84.442 C 133.495 84.246,133.163 84.111,132.636 84.142 C 132.108 84.174,131.760 84.335,131.862 84.500 M127.496 85.506 C 127.645 85.894,127.797 85.929,127.988 85.620 C 128.140 85.374,128.565 85.288,128.932 85.429 C 129.299 85.570,129.600 85.519,129.600 85.316 C 129.600 85.112,129.078 84.945,128.440 84.945 C 127.610 84.945,127.342 85.105,127.496 85.506 M2.880 87.680 C 2.320 88.240,2.231 90.000,2.763 90.000 C 2.962 90.000,3.031 89.640,2.916 89.200 C 2.801 88.760,2.878 88.400,3.087 88.400 C 3.296 88.400,3.467 88.130,3.467 87.800 C 3.467 87.078,3.479 87.081,2.880 87.680 M115.283 92.177 C 115.016 92.765,114.617 93.134,114.398 92.999 C 114.179 92.864,114.000 92.954,114.000 93.200 C 114.000 93.446,113.850 93.555,113.667 93.441 C 113.483 93.328,113.333 93.497,113.333 93.818 C 113.333 94.138,113.450 94.400,113.592 94.400 C 114.125 94.400,116.082 92.045,115.929 91.587 C 115.841 91.324,115.551 91.590,115.283 92.177 M2.070 93.548 C 1.754 93.748,1.593 94.420,1.670 95.211 C 1.809 96.629,2.629 97.333,2.629 96.034 C 2.629 95.608,2.487 95.346,2.314 95.453 C 1.868 95.729,1.925 94.888,2.414 93.974 C 2.875 93.112,2.836 93.063,2.070 93.548 M110.898 97.066 C 110.621 97.177,110.490 97.422,110.606 97.610 C 110.722 97.798,110.405 98.367,109.901 98.876 C 109.397 99.384,109.062 99.757,109.156 99.703 C 109.250 99.650,109.603 99.830,109.940 100.103 C 110.429 100.500,110.493 100.499,110.253 100.100 C 110.084 99.819,110.149 99.600,110.400 99.600 C 110.646 99.600,110.736 99.420,110.600 99.200 C 110.464 98.980,110.554 98.800,110.800 98.800 C 111.046 98.800,111.145 98.635,111.020 98.432 C 110.895 98.230,111.077 97.780,111.425 97.432 C 112.052 96.805,111.865 96.676,110.898 97.066 M1.430 98.667 C 1.289 99.034,1.337 99.497,1.537 99.697 C 1.754 99.914,1.900 99.647,1.900 99.030 C 1.900 97.831,1.785 97.742,1.430 98.667 M0.800 102.576 C 0.800 103.333,0.977 104.062,1.194 104.196 C 1.438 104.347,1.495 103.976,1.344 103.220 C 1.182 102.410,1.259 102.000,1.574 102.000 C 1.834 102.000,1.936 101.820,1.800 101.600 C 1.288 100.772,0.800 101.249,0.800 102.576 M107.632 103.051 C 107.614 103.299,107.905 103.749,108.277 104.051 C 108.737 104.424,108.857 104.440,108.653 104.100 C 108.488 103.825,108.543 103.600,108.776 103.600 C 109.009 103.600,109.200 103.398,109.200 103.151 C 109.200 102.827,109.044 102.832,108.639 103.168 C 108.208 103.525,108.030 103.513,107.870 103.117 C 107.747 102.810,107.650 102.783,107.632 103.051 M105.766 111.655 C 105.572 111.969,105.651 112.016,106.006 111.796 C 106.391 111.558,106.466 111.651,106.281 112.134 C 106.140 112.500,106.199 112.800,106.413 112.800 C 106.908 112.800,106.919 111.721,106.428 111.417 C 106.223 111.291,105.925 111.398,105.766 111.655 M0.000 113.400 C 0.000 114.170,0.070 114.800,0.156 114.800 C 0.242 114.800,0.386 114.170,0.476 113.400 C 0.566 112.630,0.496 112.000,0.320 112.000 C 0.144 112.000,0.000 112.630,0.000 113.400 M105.455 116.200 C 105.582 116.530,105.476 116.800,105.219 116.800 C 104.963 116.800,104.864 116.980,105.000 117.200 C 105.455 117.937,106.000 117.610,106.000 116.600 C 106.000 116.050,105.826 115.600,105.613 115.600 C 105.399 115.600,105.329 115.870,105.455 116.200 M0.428 117.900 C 0.453 118.875,0.495 118.909,0.800 118.200 C 1.269 117.107,1.269 116.800,0.800 116.800 C 0.580 116.800,0.413 117.295,0.428 117.900 M104.700 119.065 C 104.975 119.176,105.200 119.442,105.200 119.657 C 105.200 119.872,104.992 119.919,104.738 119.762 C 104.441 119.578,104.385 119.653,104.583 119.973 C 104.788 120.304,105.024 120.336,105.290 120.070 C 105.762 119.598,105.359 118.786,104.676 118.832 C 104.333 118.854,104.339 118.919,104.700 119.065 M0.036 121.620 L 0.072 123.400 0.462 122.046 C 0.727 121.123,0.715 120.555,0.426 120.266 C 0.125 119.965,0.011 120.362,0.036 121.620 M104.702 122.200 C 104.811 122.770,104.707 123.200,104.459 123.200 C 104.220 123.200,104.128 123.469,104.254 123.798 C 104.381 124.126,104.645 124.296,104.842 124.174 C 105.301 123.891,105.313 121.200,104.855 121.200 C 104.666 121.200,104.597 121.650,104.702 122.200 M104.249 127.530 C 104.072 128.042,104.033 128.567,104.163 128.697 C 104.578 129.111,104.870 128.500,104.718 127.534 L 104.571 126.600 104.249 127.530 M103.182 139.100 C 103.078 140.301,103.171 141.273,103.400 141.370 C 103.631 141.467,103.570 141.700,103.257 141.920 C 102.922 142.155,102.868 142.395,103.115 142.548 C 103.737 142.932,103.882 142.014,103.611 139.400 L 103.363 137.000 103.182 139.100 M102.920 145.600 C 102.920 146.810,102.995 147.305,103.087 146.700 C 103.178 146.095,103.178 145.105,103.087 144.500 C 102.995 143.895,102.920 144.390,102.920 145.600 M396.979 150.766 C 397.103 150.967,396.979 151.223,396.702 151.334 C 396.399 151.456,396.478 151.549,396.900 151.568 C 397.285 151.586,397.600 151.330,397.600 151.000 C 397.600 150.670,397.409 150.400,397.176 150.400 C 396.943 150.400,396.855 150.565,396.979 150.766 M397.307 160.416 L 397.340 166.600 397.574 161.000 C 397.702 157.920,397.687 155.137,397.541 154.816 C 397.394 154.494,397.289 157.014,397.307 160.416 M397.240 181.757 C 397.253 189.577,397.124 196.206,396.954 196.488 C 396.736 196.851,396.846 196.838,397.332 196.444 C 397.770 196.088,397.927 195.600,397.766 195.093 C 397.598 194.563,397.663 194.392,397.962 194.577 C 398.291 194.780,398.383 191.245,398.305 181.360 C 398.226 171.133,398.081 167.827,397.709 167.703 C 397.327 167.576,397.223 170.695,397.240 181.757 M397.899 187.725 C 397.832 191.066,397.778 188.220,397.778 181.400 C 397.778 174.580,397.833 171.846,397.899 175.325 C 397.966 178.804,397.966 184.384,397.899 187.725 M184.083 197.100 C 184.413 197.498,205.966 197.600,289.400 197.600 C 372.834 197.600,394.387 197.498,394.717 197.100 C 395.049 196.700,373.940 196.600,289.400 196.600 C 204.860 196.600,183.751 196.700,184.083 197.100 M102.961 268.400 C 102.961 271.810,103.022 273.205,103.097 271.500 C 103.172 269.795,103.172 267.005,103.097 265.300 C 103.022 263.595,102.961 264.990,102.961 268.400 M103.200 275.570 C 103.577 275.840,103.652 276.111,103.400 276.300 C 103.166 276.476,103.097 277.512,103.235 278.800 L 103.470 281.000 103.595 278.700 C 103.664 277.435,103.738 276.190,103.760 275.933 C 103.782 275.677,103.530 275.393,103.200 275.303 C 102.667 275.157,102.667 275.187,103.200 275.570 M0.036 278.380 C 0.011 279.638,0.125 280.035,0.426 279.734 C 0.715 279.445,0.727 278.877,0.462 277.954 L 0.072 276.600 0.036 278.380 M0.425 282.380 C 0.408 283.327,0.529 283.631,0.812 283.348 C 1.085 283.075,1.094 282.609,0.838 281.968 C 0.474 281.058,0.449 281.083,0.425 282.380 M0.101 286.600 C 0.105 287.480,0.187 287.793,0.283 287.295 C 0.379 286.798,0.375 286.078,0.275 285.695 C 0.175 285.313,0.096 285.720,0.101 286.600 M104.200 289.362 C 104.200 289.891,104.335 290.240,104.500 290.138 C 104.665 290.036,104.800 289.603,104.800 289.176 C 104.800 288.749,104.665 288.400,104.500 288.400 C 104.335 288.400,104.200 288.833,104.200 289.362 M104.260 292.187 C 104.095 292.619,104.165 292.745,104.468 292.558 C 104.779 292.366,104.854 292.551,104.700 293.137 C 104.576 293.612,104.638 294.000,104.837 294.000 C 105.292 294.000,105.300 292.777,104.850 292.066 C 104.579 291.639,104.461 291.664,104.260 292.187 M1.067 295.867 C 0.562 296.371,0.801 298.703,1.409 299.208 C 1.924 299.635,1.975 299.601,1.741 298.991 C 1.533 298.449,1.606 298.342,2.032 298.564 C 2.344 298.726,2.285 298.601,1.900 298.286 C 1.190 297.704,0.897 296.565,1.563 296.977 C 1.762 297.100,1.831 296.841,1.716 296.401 C 1.484 295.513,1.449 295.484,1.067 295.867 M104.933 297.006 C 104.933 297.333,105.094 297.600,105.290 297.600 C 105.487 297.600,105.536 297.780,105.400 298.000 C 105.264 298.220,105.343 298.400,105.576 298.400 C 106.175 298.400,106.103 297.383,105.467 296.855 C 105.063 296.520,104.933 296.557,104.933 297.006 M1.361 300.463 C 1.249 300.645,1.357 301.110,1.602 301.497 C 1.898 301.965,1.993 301.999,1.888 301.600 C 1.801 301.270,1.994 300.805,2.318 300.567 C 2.823 300.194,2.812 300.133,2.235 300.133 C 1.867 300.133,1.473 300.282,1.361 300.463 M105.784 300.827 C 105.639 301.061,105.616 301.349,105.733 301.467 C 106.020 301.753,106.800 301.248,106.800 300.776 C 106.800 300.265,106.109 300.299,105.784 300.827 M1.867 303.467 C 1.338 303.996,1.595 306.313,2.209 306.548 C 2.713 306.742,2.742 306.639,2.375 305.954 C 2.131 305.498,2.041 304.692,2.174 304.163 C 2.421 303.179,2.339 302.994,1.867 303.467 M2.279 307.739 C 2.166 308.032,2.254 308.526,2.475 308.836 C 2.797 309.289,2.833 309.267,2.660 308.726 C 2.542 308.355,2.651 307.983,2.903 307.899 C 3.230 307.790,3.236 307.669,2.922 307.476 C 2.681 307.327,2.392 307.445,2.279 307.739 M2.545 310.600 C 2.225 311.433,2.700 312.509,3.240 312.175 C 3.558 311.979,3.542 311.812,3.184 311.590 C 2.909 311.420,2.794 310.993,2.929 310.640 C 3.064 310.288,3.085 310.000,2.975 310.000 C 2.865 310.000,2.671 310.270,2.545 310.600 M114.198 315.711 C 114.811 316.542,115.412 317.121,115.535 316.998 C 115.658 316.875,115.157 316.195,114.422 315.487 L 113.085 314.200 114.198 315.711 M3.334 315.827 C 3.039 316.596,3.780 317.480,4.178 316.835 C 4.326 316.596,4.257 316.400,4.024 316.400 C 3.791 316.400,3.600 316.209,3.600 315.976 C 3.600 315.743,3.808 315.681,4.062 315.838 C 4.348 316.015,4.415 315.948,4.238 315.662 C 3.853 315.038,3.621 315.081,3.334 315.827 M116.526 317.466 C 116.679 317.722,116.579 318.023,116.302 318.134 C 115.986 318.262,116.047 318.349,116.467 318.368 C 116.833 318.386,117.224 318.625,117.335 318.900 C 117.464 319.218,117.548 319.164,117.568 318.749 C 117.586 318.391,117.295 317.851,116.923 317.549 C 116.551 317.247,116.372 317.210,116.526 317.466 M127.978 323.773 C 128.455 324.348,130.107 324.497,129.759 323.934 C 129.658 323.770,129.310 323.736,128.987 323.860 C 128.664 323.984,128.400 323.886,128.400 323.643 C 128.400 323.399,128.198 323.200,127.951 323.200 C 127.631 323.200,127.639 323.365,127.978 323.773 M134.217 325.172 C 134.091 325.377,134.198 325.675,134.455 325.834 C 134.748 326.015,134.816 325.950,134.638 325.662 C 134.481 325.408,134.543 325.200,134.776 325.200 C 135.009 325.200,135.200 325.391,135.200 325.624 C 135.200 325.857,135.383 325.934,135.607 325.796 C 136.129 325.473,135.719 324.800,135.000 324.800 C 134.696 324.800,134.344 324.968,134.217 325.172 M137.403 325.595 C 137.258 325.830,137.437 325.884,137.845 325.727 C 138.347 325.535,138.444 325.606,138.204 325.994 C 137.986 326.346,138.031 326.428,138.338 326.238 C 138.592 326.081,138.800 325.783,138.800 325.576 C 138.800 325.077,137.714 325.092,137.403 325.595 M139.463 325.900 C 139.361 326.065,139.845 326.230,140.539 326.267 C 141.561 326.322,141.649 326.271,141.000 325.996 C 139.958 325.553,139.686 325.537,139.463 325.900 M144.600 326.419 C 144.040 326.672,144.268 326.707,145.358 326.535 C 146.572 326.343,146.845 326.403,146.596 326.806 C 146.386 327.147,146.434 327.226,146.738 327.038 C 148.123 326.182,146.292 325.652,144.600 326.419 M324.217 326.372 C 324.016 326.697,324.248 326.753,325.009 326.562 C 325.601 326.413,326.202 326.451,326.343 326.646 C 326.489 326.847,333.336 326.911,342.200 326.793 L 357.800 326.586 342.600 326.489 C 334.240 326.435,326.748 326.283,325.951 326.152 C 325.046 326.002,324.395 326.085,324.217 326.372 M388.895 326.228 C 389.053 326.387,390.789 326.521,392.752 326.528 C 395.356 326.536,396.272 326.668,396.138 327.018 C 396.037 327.281,396.253 327.612,396.619 327.752 C 397.015 327.904,397.187 328.256,397.046 328.624 C 396.911 328.977,396.978 329.137,397.205 328.997 C 397.733 328.671,397.711 327.600,397.176 327.600 C 396.943 327.600,396.851 327.440,396.972 327.245 C 397.093 327.050,396.968 326.718,396.696 326.508 C 396.125 326.067,388.459 325.792,388.895 326.228 M287.257 326.756 C 286.879 326.996,286.849 327.183,287.157 327.374 C 287.401 327.524,287.600 327.457,287.600 327.224 C 287.600 326.991,287.791 326.800,288.024 326.800 C 288.257 326.800,288.319 327.008,288.162 327.262 C 287.984 327.550,288.052 327.615,288.345 327.434 C 288.602 327.275,288.709 326.977,288.583 326.772 C 288.300 326.314,287.962 326.310,287.257 326.756 M366.100 326.699 C 370.005 326.765,376.395 326.765,380.300 326.699 C 384.205 326.634,381.010 326.580,373.200 326.580 C 365.390 326.580,362.195 326.634,366.100 326.699 M5.600 328.351 C 5.600 328.598,5.792 328.800,6.027 328.800 C 6.266 328.800,6.347 329.138,6.211 329.566 C 5.935 330.436,6.593 331.059,7.034 330.345 C 7.224 330.038,7.149 329.984,6.819 330.188 C 6.453 330.414,6.384 330.282,6.566 329.707 C 6.720 329.222,6.581 328.716,6.209 328.407 C 5.792 328.062,5.600 328.044,5.600 328.351 M396.604 330.393 C 396.466 330.617,396.566 330.800,396.826 330.800 C 397.141 330.800,397.218 331.210,397.056 332.020 C 396.905 332.776,396.962 333.147,397.206 332.996 C 397.706 332.687,397.723 330.523,397.228 330.217 C 397.023 330.091,396.742 330.170,396.604 330.393 M7.366 334.455 C 7.173 334.768,7.251 334.816,7.601 334.599 C 7.992 334.358,8.068 334.495,7.901 335.137 C 7.777 335.611,7.800 336.076,7.953 336.171 C 8.105 336.265,8.266 335.914,8.309 335.391 C 8.397 334.323,7.809 333.739,7.366 334.455 M391.397 349.300 C 390.968 349.795,390.666 350.425,390.726 350.700 C 390.786 350.975,390.685 351.200,390.503 351.200 C 390.320 351.200,390.143 351.556,390.111 351.992 C 390.062 352.632,390.153 352.690,390.583 352.292 C 390.876 352.021,391.034 351.665,390.934 351.500 C 390.835 351.335,390.954 351.200,391.200 351.200 C 391.446 351.200,391.536 351.020,391.400 350.800 C 391.264 350.580,391.354 350.400,391.600 350.400 C 391.846 350.400,391.936 350.220,391.800 350.000 C 391.664 349.780,391.754 349.600,392.000 349.600 C 392.246 349.600,392.345 349.435,392.221 349.234 C 392.097 349.033,392.221 348.777,392.498 348.666 C 392.774 348.554,392.815 348.449,392.589 348.432 C 392.363 348.414,391.827 348.805,391.397 349.300 M13.764 350.155 C 13.446 350.500,13.476 350.769,13.873 351.139 C 14.172 351.419,14.313 351.817,14.185 352.024 C 14.057 352.231,14.154 352.400,14.400 352.400 C 14.646 352.400,14.736 352.580,14.600 352.800 C 14.464 353.020,14.554 353.200,14.800 353.200 C 15.046 353.200,15.136 353.380,15.000 353.600 C 14.864 353.820,14.924 354.000,15.134 354.000 C 15.344 354.000,15.489 353.567,15.458 353.038 C 15.426 352.509,15.265 352.160,15.100 352.262 C 14.935 352.364,14.785 352.302,14.767 352.124 C 14.510 349.633,14.415 349.447,13.764 350.155 M18.176 357.118 C 18.337 357.402,18.265 357.881,18.015 358.182 C 17.745 358.507,17.713 358.823,17.935 358.960 C 18.485 359.300,18.851 357.484,18.328 357.007 C 18.015 356.721,17.970 356.754,18.176 357.118 M383.863 360.670 C 383.475 361.058,383.543 362.400,383.951 362.400 C 384.726 362.400,385.227 361.321,384.668 360.857 C 384.370 360.609,384.008 360.525,383.863 360.670 M22.455 365.467 C 22.699 365.760,23.191 365.979,23.549 365.954 C 24.093 365.915,24.085 365.877,23.495 365.723 C 23.107 365.622,22.874 365.403,22.978 365.236 C 23.081 365.070,22.906 364.933,22.589 364.933 C 22.154 364.933,22.121 365.064,22.455 365.467 M380.179 365.900 C 380.011 366.285,379.898 366.724,379.928 366.876 C 379.979 367.127,378.620 367.733,377.900 367.780 C 377.735 367.791,377.600 367.935,377.600 368.100 C 377.600 368.421,377.850 368.419,378.800 368.090 C 379.737 367.766,381.595 365.916,381.362 365.539 C 381.024 364.991,380.508 365.148,380.179 365.900 M24.260 367.667 C 24.625 368.070,25.121 368.395,25.362 368.388 C 25.603 368.381,25.481 368.190,25.092 367.963 C 24.702 367.736,24.469 367.412,24.574 367.242 C 24.679 367.072,24.502 366.933,24.181 366.933 C 23.698 366.933,23.711 367.060,24.260 367.667 M377.200 369.624 C 377.200 369.857,377.063 369.963,376.896 369.859 C 376.397 369.551,375.330 370.544,375.332 371.314 C 375.333 371.884,375.602 371.767,376.667 370.735 C 378.119 369.327,378.197 369.200,377.600 369.200 C 377.380 369.200,377.200 369.391,377.200 369.624 M28.416 372.216 C 29.980 373.809,31.200 374.102,31.200 372.884 C 31.200 372.765,31.077 372.790,30.926 372.940 C 30.776 373.091,30.057 372.637,29.329 371.931 C 27.261 369.927,26.425 370.188,28.416 372.216 M29.200 372.200 C 29.946 372.970,30.467 373.600,30.357 373.600 C 30.247 373.600,29.546 372.970,28.800 372.200 C 28.054 371.430,27.533 370.800,27.643 370.800 C 27.753 370.800,28.454 371.430,29.200 372.200 M373.115 372.869 C 372.738 373.255,372.582 373.665,372.769 373.781 C 373.173 374.031,374.136 372.972,373.938 372.497 C 373.862 372.315,373.492 372.483,373.115 372.869 M370.904 374.619 C 370.589 374.961,370.553 375.248,370.807 375.404 C 371.026 375.540,371.317 375.362,371.452 375.008 C 371.783 374.147,371.514 373.957,370.904 374.619 M32.413 375.451 C 32.390 376.245,33.484 376.916,33.829 376.319 C 33.993 376.034,33.982 375.932,33.804 376.094 C 33.625 376.255,33.242 376.075,32.952 375.694 C 32.663 375.312,32.420 375.203,32.413 375.451 M37.228 378.067 C 37.213 378.433,37.000 378.800,36.756 378.881 C 36.491 378.970,36.602 379.264,37.033 379.615 C 37.429 379.937,37.628 379.990,37.474 379.734 C 37.321 379.478,37.352 379.208,37.544 379.134 C 37.736 379.060,37.749 378.640,37.574 378.200 C 37.324 377.569,37.250 377.541,37.228 378.067 M356.616 383.626 C 356.868 384.034,355.617 384.458,355.102 384.139 C 354.851 383.984,354.794 384.066,354.962 384.338 C 355.240 384.789,354.751 384.970,353.660 384.821 C 353.325 384.775,353.236 384.935,353.425 385.241 C 353.630 385.572,353.538 385.662,353.147 385.512 C 352.753 385.361,352.550 385.566,352.523 386.144 C 352.500 386.615,352.569 386.774,352.675 386.498 C 352.781 386.221,353.033 386.097,353.234 386.221 C 353.435 386.345,353.600 386.246,353.600 386.000 C 353.600 385.754,353.780 385.664,354.000 385.800 C 354.220 385.936,354.400 385.846,354.400 385.600 C 354.400 385.354,354.580 385.264,354.800 385.400 C 355.020 385.536,355.200 385.446,355.200 385.200 C 355.200 384.954,355.380 384.864,355.600 385.000 C 355.820 385.136,356.000 385.046,356.000 384.800 C 356.000 384.554,356.180 384.464,356.400 384.600 C 356.620 384.736,356.800 384.646,356.800 384.400 C 356.800 384.154,356.980 384.064,357.200 384.200 C 357.420 384.336,357.600 384.246,357.600 384.000 C 357.600 383.754,357.825 383.682,358.100 383.841 C 358.375 383.999,358.461 383.976,358.292 383.789 C 357.914 383.373,356.367 383.223,356.616 383.626 M349.032 387.460 C 348.894 387.820,348.875 388.209,348.991 388.324 C 349.106 388.439,349.200 388.313,349.200 388.043 C 349.200 387.773,349.380 387.664,349.600 387.800 C 349.820 387.936,350.000 387.867,350.000 387.647 C 350.000 386.927,349.290 386.789,349.032 387.460 M50.921 387.728 C 50.784 387.949,50.880 387.998,51.138 387.838 C 51.392 387.681,51.600 387.754,51.600 388.000 C 51.600 388.246,51.780 388.336,52.000 388.200 C 52.220 388.064,52.400 388.173,52.400 388.443 C 52.400 388.713,52.494 388.839,52.609 388.724 C 52.725 388.609,52.717 388.249,52.592 387.924 C 52.335 387.255,51.289 387.132,50.921 387.728 M346.717 387.870 C 347.113 388.030,347.125 388.208,346.768 388.639 C 346.432 389.044,346.427 389.200,346.751 389.200 C 346.998 389.200,347.200 389.009,347.200 388.776 C 347.200 388.543,347.425 388.488,347.700 388.653 C 348.040 388.857,348.024 388.737,347.651 388.277 C 347.349 387.905,346.899 387.614,346.651 387.632 C 346.383 387.650,346.410 387.747,346.717 387.870 M345.311 388.500 C 344.434 389.635,344.211 390.229,344.860 389.703 C 345.197 389.430,345.582 389.316,345.715 389.449 C 345.848 389.582,345.928 389.310,345.893 388.845 C 345.819 387.854,345.814 387.851,345.311 388.500 M54.667 388.667 C 54.520 388.813,54.400 389.113,54.400 389.333 C 54.400 389.553,54.518 389.615,54.663 389.470 C 54.808 389.325,55.197 389.430,55.529 389.703 C 56.054 390.136,56.069 390.085,55.651 389.300 C 55.127 388.316,55.060 388.273,54.667 388.667 M332.979 392.434 C 332.831 392.674,332.921 393.079,333.179 393.335 C 333.536 393.690,333.580 393.623,333.363 393.053 C 333.114 392.399,333.182 392.362,333.913 392.753 C 334.968 393.318,335.200 393.315,335.200 392.733 C 335.200 392.477,335.086 392.380,334.947 392.519 C 334.808 392.658,334.369 392.598,333.972 392.385 C 333.486 392.125,333.160 392.141,332.979 392.434 M68.641 394.066 C 68.742 394.230,69.090 394.264,69.413 394.140 C 69.736 394.016,70.000 394.114,70.000 394.357 C 70.000 394.601,70.202 394.800,70.449 394.800 C 70.769 394.800,70.761 394.635,70.422 394.227 C 69.945 393.652,68.293 393.503,68.641 394.066 M327.817 393.972 C 327.521 394.451,328.274 394.925,328.807 394.596 C 329.254 394.319,328.960 393.600,328.400 393.600 C 328.206 393.600,327.944 393.768,327.817 393.972 M79.788 395.981 C 80.020 396.356,79.870 396.413,79.200 396.200 C 78.587 396.005,78.387 396.055,78.574 396.357 C 78.907 396.896,79.867 396.938,80.183 396.428 C 80.309 396.223,80.202 395.925,79.945 395.766 C 79.638 395.576,79.584 395.651,79.788 395.981 M317.798 396.003 C 317.337 396.749,318.844 396.928,319.531 396.208 C 320.162 395.546,320.150 395.532,319.326 395.953 C 318.245 396.506,317.878 396.522,318.200 396.000 C 318.336 395.780,318.357 395.600,318.247 395.600 C 318.137 395.600,317.935 395.781,317.798 396.003 M82.636 397.258 C 82.896 397.680,84.285 397.710,84.537 397.300 C 84.638 397.135,84.205 396.981,83.573 396.958 C 82.941 396.935,82.520 397.070,82.636 397.258 M311.483 397.335 C 311.637 397.584,311.441 397.625,310.966 397.444 C 310.349 397.209,310.298 397.251,310.703 397.659 C 311.108 398.068,311.325 398.047,311.822 397.550 C 312.364 397.008,312.366 396.933,311.837 396.933 C 311.506 396.933,311.347 397.114,311.483 397.335 M313.041 397.267 C 313.155 397.450,313.586 397.600,314.000 397.600 C 314.414 397.600,314.845 397.450,314.959 397.267 C 315.072 397.083,314.641 396.933,314.000 396.933 C 313.359 396.933,312.928 397.083,313.041 397.267 M87.481 397.867 C 87.710 398.464,89.432 398.596,89.774 398.042 C 89.896 397.845,89.717 397.577,89.377 397.446 C 89.023 397.311,88.863 397.378,89.003 397.605 C 89.137 397.822,88.956 398.000,88.600 398.000 C 88.244 398.000,88.045 397.850,88.159 397.667 C 88.272 397.483,88.120 397.333,87.821 397.333 C 87.521 397.333,87.368 397.573,87.481 397.867 M309.077 397.725 C 309.227 397.968,308.903 398.012,308.226 397.842 C 307.510 397.663,307.222 397.712,307.390 397.984 C 307.760 398.583,309.477 398.497,309.719 397.867 C 309.832 397.573,309.679 397.333,309.379 397.333 C 309.080 397.333,308.944 397.510,309.077 397.725 M91.467 397.892 C 91.059 398.551,91.986 398.981,92.535 398.386 C 92.888 398.003,92.888 397.945,92.534 398.144 C 92.278 398.287,91.996 398.188,91.907 397.922 C 91.790 397.570,91.671 397.562,91.467 397.892 M93.481 398.667 C 93.723 399.297,95.440 399.383,95.810 398.784 C 95.978 398.512,95.690 398.463,94.974 398.642 C 94.297 398.812,93.973 398.768,94.123 398.525 C 94.256 398.310,94.120 398.133,93.821 398.133 C 93.521 398.133,93.368 398.373,93.481 398.667 M302.692 398.437 C 302.302 398.663,301.582 398.736,301.092 398.598 C 300.392 398.402,300.329 398.438,300.800 398.768 C 301.654 399.365,302.621 399.298,303.200 398.600 C 303.779 397.902,303.670 397.867,302.692 398.437 M98.252 398.715 C 97.886 399.307,99.261 399.706,99.767 399.154 C 100.087 398.806,100.058 398.763,99.655 398.993 C 99.342 399.171,98.981 399.093,98.805 398.809 C 98.613 398.498,98.408 398.463,98.252 398.715 M297.200 398.819 C 297.200 399.098,296.919 399.179,296.500 399.019 C 295.969 398.817,295.912 398.865,296.261 399.218 C 296.573 399.532,296.947 399.558,297.413 399.297 C 297.879 399.036,297.957 398.820,297.651 398.632 C 297.403 398.478,297.200 398.563,297.200 398.819 M100.861 399.418 C 101.224 399.789,101.740 400.020,102.006 399.931 C 102.273 399.842,101.975 399.539,101.345 399.256 C 100.273 398.776,100.242 398.786,100.861 399.418 M294.400 399.400 C 293.712 399.793,293.603 399.976,294.051 399.986 C 294.409 399.994,294.926 399.730,295.200 399.400 C 295.809 398.666,295.684 398.666,294.400 399.400 M288.600 399.600 C 288.457 399.831,288.828 399.997,289.476 399.994 C 290.349 399.989,290.466 399.901,290.000 399.600 C 289.231 399.103,288.907 399.103,288.600 399.600 " stroke="none" fill="#3874f4" fill-rule="evenodd"></path></g></svg>