<svg width="400" height="294" fill="none" xmlns="http://www.w3.org/2000/svg"><g clip-path="url(#a)"><rect width="400" height="294" rx="13" fill="#047CFC"/><path d="M198.621 259.515c55.384 0 85.785-27.391 85.785-67.424 0-50.267-40.936-58.996-76.454-62.909-27.391-3.01-52.073-6.923-52.073-28.595 0-18.662 14.448-27.692 43.946-27.692 23.779 0 35.518 9.331 43.645 25.284 3.612 6.923 6.321 8.127 12.943 5.117l16.856-7.224c7.224-3.311 9.03-6.923 5.418-13.846-14.147-29.799-36.12-45.451-78.862-45.451-54.481 0-82.474 27.692-82.474 65.919 0 52.675 44.849 58.394 81.571 62.307 25.585 2.709 47.558 7.224 47.558 27.993 0 21.672-16.856 31.304-47.859 31.304-23.478 0-39.13-10.234-46.956-27.993-3.01-7.224-5.719-8.729-12.943-6.321l-16.254 6.02c-7.525 2.408-9.03 5.719-6.622 13.244 12.341 32.508 36.12 50.267 82.775 50.267Z" fill="#fff"/></g><defs><clipPath id="a"><path fill="#fff" d="M0 0h400v293.701H0z"/></clipPath></defs></svg>