<svg width="400" height="159" fill="none" xmlns="http://www.w3.org/2000/svg"><path d="M6 49.8c0-7.28 0-10.921 1.417-13.702a13 13 0 0 1 5.681-5.681C15.88 29 19.52 29 26.8 29h36.4c7.28 0 10.921 0 13.702 1.417a13 13 0 0 1 5.681 5.681C84 38.88 84 42.52 84 49.8v58.4c0 7.281 0 10.921-1.417 13.702a12.999 12.999 0 0 1-5.681 5.681C74.12 129 70.48 129 63.2 129H26.8c-7.28 0-10.921 0-13.702-1.417a12.998 12.998 0 0 1-5.681-5.681C6 119.121 6 115.481 6 108.2V49.8Z" fill="#047CFC"/><path d="M44.765 107.515c14.14 0 21.311-6.565 21.311-16.16 0-11.918-8.585-14.443-20.099-15.453-8.383-.808-13.736-1.616-13.736-8.08 0-4.848 3.737-7.373 11.615-7.373 7.777 0 11.009 2.727 12.827 6.666 1.111 1.616 1.616 1.818 3.333 1.111l3.434-1.414c1.717-.707 2.222-1.717 1.313-3.535-3.131-6.565-9.494-10.908-21.109-10.908-13.534 0-20.301 6.262-20.301 15.655 0 13.029 10.302 14.746 20.402 15.756 8.484.808 13.534 1.919 13.534 7.979 0 5.05-4.141 7.777-12.726 7.777-7.07 0-11.615-2.02-13.635-7.373-.808-1.818-1.616-2.02-3.131-1.515l-3.535 1.212c-1.717.606-2.121 1.616-1.515 3.232 3.232 8.282 10.605 12.423 22.018 12.423Zm71.212 0c11.615 0 18.079-4.242 21.715-10.403 1.111-1.717.808-3.03-.909-3.939l-2.727-1.414c-1.818-1.01-2.727-.707-3.939.909-2.525 4.242-6.868 7.07-14.14 7.07-8.787 0-13.534-4.545-13.534-12.221v-4.848h33.027c2.727 0 3.636-1.414 3.636-3.535v-5.858c0-11.918-7.272-20.907-22.826-20.907-14.847 0-22.826 7.979-22.826 21.614v12.524c0 12.322 6.767 21.008 22.523 21.008ZM102.443 75.7v-2.929c0-7.979 4.747-12.726 13.837-12.726 9.191 0 13.837 4.747 13.837 12.726V75.7h-27.674ZM151.5 106h4.242c1.717 0 2.323-.606 2.323-2.424V33.684c0-1.818-.606-2.424-2.323-2.424H151.5c-1.818 0-2.424.606-2.424 2.424v69.892c0 1.818.606 2.424 2.424 2.424Zm39.813 1.515c11.615 0 18.079-4.242 21.715-10.403 1.111-1.717.808-3.03-.909-3.939l-2.727-1.414c-1.818-1.01-2.727-.707-3.939.909-2.525 4.242-6.868 7.07-14.14 7.07-8.787 0-13.534-4.545-13.534-12.221v-4.848h33.027c2.727 0 3.636-1.414 3.636-3.535v-5.858c0-11.918-7.272-20.907-22.826-20.907-14.847 0-22.826 7.979-22.826 21.614v12.524c0 12.322 6.767 21.008 22.523 21.008ZM177.779 75.7v-2.929c0-7.979 4.747-12.726 13.837-12.726 9.191 0 13.837 4.747 13.837 12.726V75.7h-27.674Zm66.53 31.815c12.12 0 18.988-4.949 22.119-13.938.808-1.919.101-2.727-1.616-3.434l-3.535-1.01c-1.919-.606-2.727-.303-3.434 1.616-1.818 5.757-5.959 8.787-13.231 8.787-8.686 0-13.231-4.444-13.231-12.019V72.266c0-7.474 4.343-11.918 13.231-11.918 7.474 0 11.211 2.929 13.13 8.484.707 1.818 1.515 2.323 3.434 1.616l3.434-1.111c1.717-.606 2.222-1.515 1.616-3.434-2.525-7.979-9.09-13.534-21.311-13.534-15.251 0-22.523 7.777-22.523 20.301v14.544c0 12.524 7.07 20.301 21.917 20.301ZM303.003 106c1.818 0 2.424-.707 2.424-2.525V99.94c0-1.919-.606-2.525-2.424-2.525-9.898 0-13.13-2.02-13.13-13.13V62.166h13.231c1.818 0 2.424-.606 2.424-2.323v-3.535c0-1.818-.606-2.424-2.424-2.424h-13.231v-9.696c0-1.818-.606-2.424-2.424-2.424h-4.141c-1.818 0-2.424.606-2.424 2.424v9.696h-8.383c-1.818 0-2.424.606-2.424 2.424v3.535c0 1.717.606 2.323 2.424 2.323h8.383v22.422c0 16.867 5.757 21.412 22.119 21.412Zm30.762 1.515c14.544 0 22.725-7.373 22.725-19.291V71.66c0-11.918-8.181-19.291-22.725-19.291-14.241 0-22.624 7.373-22.624 19.291v16.564c0 11.918 8.383 19.291 22.624 19.291ZM320.13 88.224V71.66c0-7.07 5.252-11.11 13.635-11.11 8.686 0 13.736 4.04 13.736 11.11v16.564c0 6.969-5.05 11.11-13.736 11.11-8.383 0-13.635-4.141-13.635-11.11ZM369.269 106h4.141c1.818 0 2.424-.606 2.424-2.424V65.802c0-.808.101-1.515 1.414-2.02 2.929-1.01 6.767-1.717 11.716-1.717h3.434c1.818 0 2.424-.606 2.424-2.424v-3.333c0-1.818-.606-2.424-2.424-2.424h-3.232c-8.888 0-14.746 1.616-18.483 3.131-3.131 1.212-3.838 2.424-3.838 5.555v41.006c0 1.818.606 2.424 2.424 2.424Z" fill="#fff"/></svg>