<svg xmlns="http://www.w3.org/2000/svg" width="400" height="400"><g fill-rule="evenodd"><path d="M96.8.407c-6.5.62-14.197 1.841-12.3 1.952.795.047.929.652.238 1.079-.286.177-.353.11-.176-.176.157-.254.095-.462-.138-.462S84 2.95 84 3.133c0 .184-.267.334-.594.334-.449 0-.486-.13-.151-.534.545-.655-.986-.732-3.209-.161a100 100 0 0 1-3.846.861c-3.938.803-12.614 3.136-15.4 4.141-7.295 2.631-9.29 3.523-8.747 3.911.413.295.366.332-.188.152-.939-.305-7.97 3.269-7.602 3.865.151.244.07.304-.193.141-.563-.348-2.173.467-1.875.949.12.194.007.483-.25.642-.293.181-.361.116-.183-.172.157-.254.125-.462-.072-.462-.698 0-.876.536-.387 1.163.437.56.414.572-.183.104-1.026-.802-4.626 1.675-3.841 2.643.325.402.345.538.051.362-.258-.155-.547-.055-.642.223-.095.278-.126.19-.068-.195.145-.967-.026-.905-2.153.778-3.083 2.44-4.849 4.228-4.589 4.649.135.218.063.284-.161.145-.395-.244-5.717 4.936-5.717 5.564 0 .172.538-.202 1.196-.832.658-.63 1.302-1.04 1.431-.91.253.253-2.067 2.106-2.637 2.106-1.476 0-8.938 11.568-7.928 12.291.401.286.353.325-.186.15-2.006-.649-11.886 26.22-10.953 29.786.111.426.048.679-.14.562-.188-.116-.449.469-.579 1.3-.13.831-.409 2.162-.62 2.957-.657 2.475-.527 4.286.238 3.33.596-.744.604-.738.182.132-.243.5-.308 1.13-.146 1.4.221.367.136.363-.332-.016-.71-.575-1.11.303-1.121 2.457-.004.912.105 1.058.528.706.404-.335.534-.298.534.151 0 .327-.171.594-.38.594s-.286.36-.171.8c.115.44.046.8-.153.8-.2 0-.386-.405-.413-.9-.055-.99-.673 2.134-.72 3.643-.022.686.136.879.579.709.492-.189.53-.086.2.531-.485.906-.539 1.745-.095 1.47.173-.107.315.155.315.581 0 1.278-.812.608-1.05-.866-.178-1.105-.269-.831-.477 1.432-.747 8.129-1.106 15.199-.778 15.308.21.07.226.831.037 1.807-.47 2.428-.432 6.054.068 6.554.304.304.306.888.007 1.997-.589 2.189-.598 153.246-.009 155.434.297 1.102.294 1.713-.008 2.078-.515.62-.209 16.727.387 20.422.214 1.32.416 3.21.451 4.2.047 1.355.105 1.503.234.6.094-.66.349-1.38.568-1.6.264-.265.309-.042.135.663-.144.584-.063 1.435.181 1.891.367.685.338.788-.166.594-.723-.278-.745.148-.208 4.052.723 5.248.794 5.502 1.387 5.01.402-.334.617-.325.838.032.189.305.129.377-.164.196-.254-.157-.462-.095-.462.138s.191.424.424.424c.233 0 .31.183.172.407-.138.223-.445.286-.682.14-.42-.26-.384.298.299 4.653.121.77.384 2.03.584 2.8.2.77.66 2.75 1.021 4.4 1.331 6.082 4.815 16.55 5.39 16.195.174-.108.232.129.129.525-.436 1.668 7.423 15.793 8.582 15.423.532-.171.56-.132.131.174-.841.599 1.649 4.095 2.764 3.88.444-.085.71.002.592.194-.119.191.101.431.489.532.666.174.666.187.005.231-.385.025-.7.155-.7.288 0 .709 9.453 10.558 10.134 10.558.2 0 .136-.274-.142-.61-.278-.335-.395-.721-.258-.857.136-.136.36.047.498.407.139.361.458.532.71.381.294-.176.281-.056-.037.337-.567.701-.124 1.186 3.349 3.672 2.362 1.691 2.418 1.707 2.691.77.12-.413.173-.296.129.285-.166 2.206 21.741 12.862 24.369 11.854.329-.127.5-.071.381.123-.277.447 1.817.997 2.138.561.347-.472 1.238-.584 1.238-.156 0 .201-.21.436-.466.522-.902.3 6.478 1.995 7.577 1.739.697-.161.897-.124.555.104-.404.271-.308.418.4.607 1.515.406 2.812.311 2.508-.182-.187-.302.013-.352.626-.157.67.213.82.156.588-.219-.207-.335-.15-.405.17-.207.353.218.364.438.04.829-.46.553 1.071.988 5.766 1.636 1.635.226 1.926.172 1.738-.317-.13-.34.004-.589.319-.589.299 0 .451.15.338.334-.114.183.085.333.441.333s.537-.178.403-.395c-.142-.231.026-.292.403-.147.741.284.367.775-.806 1.057-.458.11-.167.212.68.239.814.025 2.344.213 3.4.418 4.262.826 8.699.925 8.081.181-.526-.634-.481-.635.719-.015 1.455.753 2.805.838 4.294.272.667-.254 1.026-.254 1.026 0 0 .561 1.742.481 2.379-.11.427-.396.48-.397.257-.002-.376.668 178.396.739 179.2.072.363-.301.747-.3 1.312.002 1.165.623 3.106.524 4.572-.234 1.205-.623 1.247-.622.712.023-.738.89 4.254.574 15.168-.961 7.714-1.084 8.473-1.258 7.761-1.779-.538-.394-.572-.567-.16-.822.345-.213.426-.166.237.139-.363.587-.018.586 1.088-.003.79-.421.821-.402.325.2-.879 1.065.623.941 6.749-.559.77-.188 2.335-.561 3.477-.829 1.142-.267 2.066-.59 2.052-.717-.075-.72.127-.961.42-.499 1.232 1.944 30.611-10.005 29.8-12.12-.264-.686.506-1.17.885-.556.181.293.116.361-.172.183-.254-.157-.462-.095-.462.138 0 .563.221.537 1.633-.193.656-.339 1.109-.753 1.006-.919-.102-.166-.001-.564.225-.883.335-.474.37-.452.186.119-.35 1.089.022.894 4.017-2.109 13.921-10.464 21.497-21.071 26.869-37.619.561-1.726.601-2.904.088-2.587-.206.128-.349-.119-.317-.549.033-.429.222-.68.421-.557.199.123.519-.025.711-.328.482-.762.455-2.857-.033-2.555-.244.151-.301-.22-.15-.976.162-.81.085-1.22-.23-1.22-.26 0-.352-.196-.204-.435.357-.579.868 0 1.09 1.235.098.55.204-.069.234-1.376.05-2.188.006-2.315-.547-1.6-.496.641-.559.655-.358.079.154-.442 0-.789-.422-.951-.366-.14-.582-.471-.481-.734.134-.35-.782-.482-3.386-.49-1.963-.007-3.7-.142-3.86-.302-.16-.16 1.509-.227 3.709-.149 3.017.107 3.972.269 3.889.662-.065.31.081.403.362.229.296-.183.365-.119.186.17-.157.254-.095.462.138.462.619 0 .518-.649-.213-1.38-.578-.578-5.619-.617-54.9-.421-29.845.119-84.953.243-122.463.275-65.75.058-72.349-.032-81.95-1.115-1.437-.162-2.064-.106-1.893.171a.485.485 0 0 1-.15.666c-.224.138-.407.061-.407-.172a.426.426 0 0 0-.424-.424c-.233 0-.295.208-.138.462.189.305.108.352-.237.139-.413-.256-.383-.425.145-.811.586-.429.515-.518-.59-.739-1.962-.392-2.466-.314-2.214.343.19.494.098.513-.541.114-.442-.276-.598-.586-.366-.73.222-.137-.82-.578-2.316-.981-4.267-1.15-9.369-3.963-12.586-6.941-1.557-1.442-3.203-2.679-3.658-2.748-.454-.069-.927-.239-1.051-.376-.123-.138.181-.15.676-.029.495.122.9.165.9.094 0-.397-2.861-4.386-3.106-4.33a.563.563 0 0 1-.494-.164c-.11-.127.025-.102.3.056.684.394.636.142-.37-1.929-.479-.985-1.046-1.682-1.262-1.548-.215.133-.271.047-.124-.192.497-.804-.631-4.116-1.232-3.617-.292.243-.662.311-.821.151-.159-.159.035-.527.431-.817.6-.438.656-.753.336-1.867-.212-.737-.402-1.115-.422-.84-.02.275-.227.5-.46.5s-.312-.18-.176-.4c.136-.22.087-.4-.11-.4-.196 0-.357-.267-.357-.594 0-.449.13-.486.534-.151.424.353.525.208.493-.706-.043-1.233-.654-3.481-.72-2.649-.022.275-.216.5-.43.5-.254 0-.254-.359 0-1.026.854-2.247.346-6.257-.749-5.909-.482.154-.523.111-.15-.158.405-.291.466-3.035.296-13.138-.119-7.023-.307-27.034-.418-44.469l-.203-31.7h40.456c32.319 0 40.372-.101 40.041-.5-.332-.4 20.777-.5 105.317-.5 84.54 0 105.649.1 105.317.5-.317.382-.12.5.834.5 1.935 0 3.704-2.225 2.406-3.026-.293-.182-.358-.006-.191.519.161.507.004.995-.434 1.351-.486.394-.596.407-.378.044.17-.282.299-6.915.286-14.74-.02-12.948.036-14.204.625-13.978.588.225.628-.534.436-8.261-.203-8.176-.617-11.056-1.51-10.503-.226.139-.361.025-.301-.254.221-1.021-4.76-1.058-147.211-1.105l-144.922-.047.204-8.9c.111-4.895.316-10.225.455-11.845.162-1.888.112-2.858-.139-2.702-.216.133-.496-.027-.623-.355-.126-.329-.034-.598.205-.598.248 0 .352-.43.243-1-.105-.55-.036-1 .153-1 .19 0 .363.225.385.5.066.835.677-1.418.72-2.656.023-.67-.254-1.379-.66-1.687-.493-.374-.54-.535-.157-.544.316-.008.446-.264.312-.613-.126-.33-.056-.6.158-.6.213 0 .405.315.427.7.022.385.474-1.37 1.004-3.9.531-2.53.875-4.834.765-5.121-.11-.286-.053-.43.126-.319.179.11.644-.863 1.034-2.164.389-1.3 1.408-3.757 2.263-5.46 1.155-2.298 1.428-3.177 1.062-3.41-.39-.248-.389-.326.006-.37.275-.031.656-.078.847-.106.191-.027 1.136-.844 2.1-1.815 4.534-4.564 14.885-8.928 22.016-9.281.817-.041.835-.071.137-.239-1.258-.303-1.586-.84-.371-.607.843.161 1.024.082.801-.35-.159-.307-.031-.243.284.142.598.729 2.737.885 4.686.342.846-.236.892-.32.3-.548-.385-.148-.697-.5-.694-.781.004-.358.121-.331.386.087.31.492 1.793.626 8.204.743 7.793.142 11.242-.101 10.238-.722-.354-.219-.193-.395.526-.575 1.198-.301 61.645-.317 61.344-.017-.11.11-13.948.235-30.752.277l-30.552.077 30.4.309c16.72.17 54.34.358 83.6.419 29.26.06 46.63.012 38.6-.108-8.03-.12-14.15-.266-13.6-.324 2.559-.271 28.4-.243 28.4.031 0 .171 6.304.261 14.008.2 10.428-.082 13.851.005 13.393.339-.512.374-.406.49.643.7 2.208.441 40.735.291 41.582-.163.864-.462 1.118-4.752.416-7.026-.196-.638-.571-2.205-.833-3.481-.405-1.974-.564-2.248-1.065-1.833-.473.393-.565.378-.467-.078.068-.313.291-.689.497-.837.359-.259.229-.831-1.259-5.531-3.602-11.378-11.119-26.691-12.834-26.143-.555.178-.575.143-.106-.189 1.635-1.159-8.147-11.925-16.643-18.317-8.231-6.193-25.229-14.028-30.991-14.286-.802-.036-1.392-.176-1.31-.311.128-.211-2.486-.873-10.937-2.771-2.048-.46-3.294-.491-3.294-.083 0 .165-.433.3-.962.3-1.064 0-.989-.572.086-.647.921-.065-1.444-.647-2.867-.706-.8-.033-1.081.113-.938.486.113.294-.04.534-.34.534-.299 0-.451-.15-.338-.334.114-.183-.085-.333-.441-.333s-.537.178-.403.395c.14.227-.02.294-.376.158-.99-.38-.72-.948.479-1.009 1.366-.07-1.914-.551-7.671-1.125-2.405-.239-4.475-.296-4.6-.127-.126.169-.829.328-1.562.352-.868.029-1.148-.074-.8-.294.336-.213-.132-.338-1.267-.338-.99 0-2.064.167-2.387.371-.322.204-.772.233-1 .065-.841-.624-2.179-.433-1.96.279.185.601.159.599-.239-.021-.523-.812-180.906-1.127-181.407-.317-.155.251-.534.215-1.038-.097-.648-.402-.861-.383-1.165.105-.295.475-.472.495-.867.1-.812-.812-5.839-.509-5.326.321.111.18.015.443-.214.584-.229.142-.391.109-.36-.072.249-1.432.197-1.441-5.237-.923m-.226.751c.122.197-.057.465-.397.596-.354.135-.514.068-.374-.159.134-.217-.047-.395-.403-.395-.356 0-.537.178-.403.395.14.227-.02.294-.374.159-.34-.131-.519-.399-.397-.596.287-.465 2.061-.465 2.348 0m212.626.018c0 .619-.716.868-.935.326-.132-.325-.321-.361-.535-.102-.442.536-1.33.692-1.33.233 0-.201.225-.457.5-.568.867-.35 2.3-.281 2.3.111m2.345.557c.334.403.301.534-.134.534-.317 0-.464-.181-.328-.402.15-.241-.025-.296-.438-.138-.408.157-.587.103-.442-.132.336-.544.816-.495 1.342.138m-220.971.225c.122.197-.057.465-.397.596-.354.135-.514.068-.374-.159.331-.535-.461-.499-1.529.07-.79.421-.821.402-.325-.2.585-.708 2.256-.904 2.625-.307m-8.336 1.304c.166.268.111.354-.131.204-.229-.141-.639.011-.911.338-.272.328-.652.596-.845.596-.392 0 .889-1.514 1.325-1.567.152-.018.405.175.562.429M76 4.4c-.502.324-.475.389.167.394.421.003.654.118.517.255-.137.138-.539.139-.892.003-.696-.267-.446-1.056.332-1.046.286.004.237.161-.124.394m-1.394.41c.139.225.015.36-.276.3-.292-.061-.481.128-.42.42.06.291-.067.42-.283.287-.441-.273-.124-1.417.392-1.417.184 0 .448.184.587.41m-2.154.527c-.245.295-.327.655-.182.8.145.145.053.263-.203.263-.535 0-.558-.097-.224-.967.133-.348.425-.633.649-.633.255 0 .241.199-.04.537M336 6.427c0 .245.341.319.8.173.44-.14.8-.1.8.088 0 .578-1.518.492-2.022-.115-.339-.408-.347-.573-.027-.573a.44.44 0 0 1 .449.427m12.434 4.152c.201-.124.366-.055.366.155 0 .444-1.216.983-1.524.675-.115-.115-.005-.209.245-.209s.399-.225.332-.5-.046-.364.047-.198c.092.167.333.201.534.077M54.8 11c-.578.697-1.2.788-1.2.176 0-.233.18-.312.4-.176.22.136.4.057.4-.176 0-.233.202-.424.449-.424.31 0 .295.185-.049.6m297.234 1.179c.201-.124.366-.055.366.155 0 .827-1.038.752-1.077-.078-.023-.471.046-.63.152-.354.106.277.358.401.559.277m-301.556.928c-.266.089-.362.357-.215.595.171.276.026.341-.397.179-.461-.177-.668-.044-.672.432-.005.59-.061.602-.394.087-.506-.783-.506-1.313 0-1 .22.136.4.046.4-.2s.18-.336.4-.2c.22.136.4.046.4-.2s.216-.314.48-.15c.373.23.373.332-.002.457m309.603 4.666c-.12.206-.345.026-.5-.4-.154-.425-.182-.941-.062-1.146.12-.206.345-.026.5.4.154.425.182.941.062 1.146M38.696 20.181c-.61.662-.879.472-.548-.389.135-.354.426-.532.645-.396.254.156.218.443-.097.785m-2.858 1.881c.19.307.108.352-.244.134-.381-.235-.461-.146-.282.318.175.457.075.579-.343.419-.453-.174-.483-.354-.13-.78.557-.671.636-.679.999-.091m334.156 1.687c-.005.328-.087.33-.3.008-.162-.244-.619-.394-1.016-.332-.585.09-.632.002-.247-.462.516-.623 1.575-.09 1.563.786m-336.556.313c.19.307.108.352-.244.134-.388-.24-.459-.143-.267.359.146.38.099.585-.104.459-.202-.125-.481-.044-.619.179-.138.224-.452.407-.697.407-.246 0-.024-.45.493-1 1.084-1.154 1.062-1.146 1.438-.538m340.972 3.393c1.645 1.68 2.779 2.938 2.52 2.795-.261-.145-.56.053-.674.445-.162.561-.19.542-.136-.097.097-1.149-3.84-5.118-4.46-4.498-.347.347-.46.342-.46-.02 0-.264.202-.48.449-.48.31 0 .295-.185-.049-.6-1.226-1.477.067-.347 2.81 2.455m-345.305.705c.045.538-.181 1.06-.513 1.188-.325.125-.592.042-.592-.184s-.225-.282-.5-.123c-.275.158-.064-.191.47-.776 1.164-1.278 1.039-1.267 1.135-.105m349.859 4.2c.517.572.567.836.2 1.062-.311.193-.384.135-.202-.16.157-.254.11-.462-.105-.462s-.466.135-.558.3c-.092.165-.105.055-.029-.245.093-.362-.082-.459-.522-.29-.553.212-.579.154-.156-.356.625-.753.546-.761 1.372.151M23.786 35.223c-.174.281-.441.263-.827-.057-.444-.369-.465-.597-.094-1.044.555-.669 1.394.335.921 1.101m357.964.696c.108.176.054.551-.121.834-.232.375-.377.289-.536-.319-.21-.805.253-1.168.657-.515m3.254 5.274c-.115.186.017.426.294.532.276.106.123.175-.339.154-.603-.029-.789-.243-.655-.755.103-.393.349-.615.548-.492.199.123.267.375.152.561m2.988 5.816c-.429.517-.391.566.251.325.672-.252.695-.207.2.4-.492.605-.472.652.166.407.497-.191.632-.131.433.191-.159.257-.088.468.158.468s.336.18.2.4c-.136.22-.027.4.243.4s.373.117.23.261c-.144.143-.721-.199-1.282-.761-1.237-1.237-1.626-2.7-.719-2.7.515 0 .537.108.12.609M11.6 57.285c0 .442-1.104.394-1.385-.061-.128-.206.132-.348.576-.315.445.034.809.203.809.376m382.9 5.178c-.174.662-.095.786.337.535.31-.179.43-.179.266.001-.163.18-.109.553.12.829.294.354.264.589-.104.801-.285.164-.384.15-.218-.032.165-.183.009-.655-.349-1.05-.357-.394-.543-.994-.413-1.332.354-.922.619-.74.361.248M7.481 66.653c-.139.139-.055.634.187 1.1.242.466.298.714.123.55-.175-.163-.559-.096-.854.149-.367.305-.537.311-.537.021 0-.234.172-.532.383-.662.21-.13.281-.501.157-.824-.126-.327 0-.587.284-.587.28 0 .396.114.257.253m-.781 3.54c0 .545-.247 1.197-.55 1.448-.402.334-.55.336-.55.008 0-.247.199-.449.443-.449.243 0 .333-.286.198-.636-.215-.561-.019-1.364.333-1.364.069 0 .126.447.126.993M4.2 80.8c-.136.22-.046.4.2.4s.324.199.174.443c-.191.308-.378.278-.618-.1-.466-.735-.442-1.143.068-1.143.233 0 .312.18.176.4m155.545 1.4c-.28.729-7.166.861-8.145.156-.533-.384-.533-.411 0-.25.497.151 8.008-.253 8.287-.446.049-.033-.016.21-.142.54m105.689.3c.164.165-8.981.3-20.325.3-16.13 0-20.665-.109-20.815-.5-.217-.563 40.576-.365 41.14.2M147.8 82.4c-.136.22-.822.376-1.524.347L145 82.695l1.4-.295c.77-.162 1.456-.318 1.524-.347.068-.029.012.127-.124.347m251.098-.134c-.277.111-.403.365-.28.564.123.198-.055.254-.395.124-.773-.297-.41-.965.501-.922.42.019.486.108.174.234m-257.743.762c.245-.152.445-.085.445.148 0 .479-.44.537-1.365.182-.347-.133-.519-.422-.383-.643.156-.252.361-.217.553.094.168.271.506.37.75.219m242.621.039c-.804.588-25.776.814-25.776.233 0-.165 5.67-.248 12.6-.184 7.008.065 12.6-.039 12.6-.233 0-.192.294-.35.653-.35.566 0 .555.072-.077.534m-250.402 1.375c-.269.435-1.256.473-1.512.058-.102-.165.246-.326.774-.358.527-.031.859.104.738.3m-3.774.874c0 .203-.301.254-.668.113-.367-.141-.792-.055-.944.191-.191.309-.343.274-.492-.114-.154-.401.114-.561.944-.561.638 0 1.16.167 1.16.371m-14.631 7.916c-1.25 1.305-1.636 1.443-1.636.586 0-.321.15-.49.334-.377.183.114.333.005.333-.241s.179-.336.398-.201c.219.135.618-.234.885-.822.268-.587.558-.853.646-.59.087.262-.344 1.003-.96 1.645m-3.544 4.2c-.348.348-.53.798-.405 1 .125.203.026.368-.22.368s-.336.18-.2.4c.136.22.046.4-.2.4-.251 0-.316.219-.147.5.24.399.176.4-.313.003-.337-.273-.69-.453-.784-.4-.094.054.241-.319.745-.827.504-.509.821-1.078.705-1.266-.116-.188.015-.433.292-.544.967-.39 1.154-.261.527.366M1.9 99.03c0 .617-.146.884-.363.667-.2-.2-.248-.663-.107-1.03.355-.925.47-.836.47.363m-.1 2.57c.136.22.034.4-.226.4-.315 0-.392.41-.23 1.22.151.756.094 1.127-.15.976-.503-.311-.519-2.996-.018-2.996.207 0 .488.18.624.4m106.839 1.568c.405-.336.561-.341.561-.017 0 .247-.191.449-.424.449-.233 0-.288.225-.123.5.204.34.084.324-.376-.049-.372-.302-.663-.752-.645-1 .018-.268.115-.241.238.066.16.396.338.408.769.051m-1.839 9.056c0 .317-.174.576-.387.576-.214 0-.273-.3-.132-.666.185-.483.11-.576-.275-.338-.355.22-.434.173-.24-.141.359-.581 1.034-.209 1.034.569M1.172 117.1c-.11 1.173-.718 1.826-.744.8-.015-.605.152-1.1.372-1.1s.387.135.372.3m104.25 2.135c.147.239.088.615-.132.835-.266.266-.502.234-.707-.097-.198-.32-.142-.395.155-.211.254.157.462.11.462-.105s-.225-.481-.5-.592c-.361-.146-.367-.211-.024-.233.262-.018.598.164.746.403m-.79 9.466c-.461.462-.698-.261-.383-1.171l.322-.93.147.934c.08.514.042 1.039-.086 1.167m-.944 13.597c-.095.273-.352.386-.573.25-.247-.153-.193-.393.142-.628.313-.22.374-.453.143-.55-.229-.097-.322-1.069-.218-2.27l.181-2.1.248 2.4c.137 1.32.171 2.624.077 2.898m-.601 4.402c-.092.605-.167.11-.167-1.1 0-1.21.075-1.705.167-1.1a8.899 8.899 0 0 1 0 2.2M397.6 151c0 .33-.315.586-.7.568-.422-.019-.501-.112-.198-.234.277-.111.401-.367.277-.568-.124-.201-.036-.366.197-.366s.424.27.424.6m-.026 10-.234 5.6-.033-6.184c-.018-3.402.087-5.922.234-5.6.146.321.161 3.104.033 6.184m1.005 20.4c0 7.26.054 10.286.12 6.725a436.69 436.69 0 0 0 0-13.2c-.066-3.699-.12-.785-.12 6.475m-.801 0c0 6.82.054 9.666.121 6.325s.067-8.921 0-12.4c-.066-3.479-.121-.745-.121 6.075m-294.681 90.1c-.075 1.705-.136.31-.136-3.1s.061-4.805.136-3.1a85.45 85.45 0 0 1 0 6.2m.663 4.433c-.022.257-.096 1.502-.165 2.767l-.125 2.3-.235-2.2c-.138-1.288-.069-2.324.165-2.5.252-.189.177-.46-.2-.73-.533-.383-.533-.413 0-.267.33.09.582.374.56.63M.812 283.348c-.283.283-.404-.021-.387-.968.024-1.297.049-1.322.413-.412.256.641.247 1.107-.026 1.38m103.988 5.828c0 .427-.135.86-.3.962-.165.102-.3-.247-.3-.776s.135-.962.3-.962c.165 0 .3.349.3.776M1.716 296.401c.115.44.046.699-.153.576-.666-.412-.373.727.337 1.309.385.315.444.44.132.278-.426-.222-.499-.115-.291.427.234.61.183.644-.332.217-.809-.672-.8-3.608.011-3.608.048 0 .181.36.296.801m.602 4.166c-.324.238-.517.703-.43 1.033.105.399.01.365-.286-.103-.531-.839-.287-1.364.633-1.364.577 0 .588.061.083.434m.585 7.332c-.252.084-.361.456-.243.827.173.541.137.563-.185.11-.494-.695-.154-1.732.447-1.36.314.193.308.314-.019.423m.026 2.741c-.135.353-.02.78.255.95.358.222.374.389.056.585-.54.334-1.015-.742-.695-1.575.126-.33.32-.6.43-.6.11 0 .089.288-.046.64m112.606 6.358c-.123.123-.724-.456-1.337-1.287l-1.113-1.511 1.337 1.287c.735.708 1.236 1.388 1.113 1.511m2.033 1.751c-.02.415-.104.469-.233.151-.111-.275-.502-.514-.868-.532-.42-.019-.481-.106-.165-.234a.45.45 0 0 0 .224-.668c-.154-.256.025-.219.397.083s.663.842.645 1.2m10.832 4.894c0 .243.264.341.587.217.323-.124.671-.09.772.074.348.563-1.304.414-1.781-.161-.339-.408-.347-.573-.027-.573.247 0 .449.199.449.443m10.4 1.933c0 .207-.208.505-.462.662-.307.19-.352.108-.134-.244.24-.388.143-.459-.359-.267-.408.157-.587.103-.442-.132.311-.503 1.397-.518 1.397-.019m2.2.42c.649.275.561.326-.461.271-.694-.037-1.178-.202-1.076-.367.223-.363.495-.347 1.537.096m6.2.38c0 .207-.208.505-.462.662-.304.188-.352.109-.142-.232.249-.403-.024-.463-1.238-.271-1.09.172-1.318.137-.758-.116 1.071-.486 2.6-.51 2.6-.043m195.4.113 15.2.097-15.6.207c-8.864.118-15.711.054-15.857-.147-.141-.195-.742-.233-1.334-.084-.761.191-.993.135-.792-.19.178-.287.829-.37 1.734-.22.797.131 8.289.283 16.649.337m-54.017.283c.126.205.019.503-.238.662-.293.181-.361.116-.183-.172.157-.254.095-.462-.138-.462a.426.426 0 0 0-.424.424c0 .233-.199.3-.443.15-.308-.191-.278-.378.1-.618.705-.446 1.043-.442 1.326.016m91.717-.073c-3.905.066-10.295.066-14.2 0-3.905-.065-.71-.119 7.1-.119s11.005.054 7.1.119M6.566 329.707c-.182.575-.113.707.253.481.33-.204.405-.15.215.157-.441.714-1.099.091-.823-.779.136-.428.055-.766-.184-.766a.44.44 0 0 1-.427-.449c0-.307.192-.289.609.056.372.309.511.815.357 1.3m1.743 5.684c-.043.523-.204.874-.356.78-.153-.095-.176-.56-.052-1.034.167-.642.091-.779-.3-.538-.35.217-.428.169-.235-.144.443-.716 1.031-.132.943.936m384.189 13.275c-.277.111-.401.367-.277.568.124.201.025.366-.221.366s-.336.18-.2.4c.136.22.046.4-.2.4s-.336.18-.2.4c.136.22.046.4-.2.4s-.365.135-.266.3c.1.165-.058.521-.351.792-.43.398-.521.34-.472-.3.032-.436.209-.792.392-.792.182 0 .283-.225.223-.5-.13-.598 1.279-2.313 1.863-2.268.226.017.185.122-.091.234M14.634 350.9l.133 1.224c.018.178.168.24.333.138.165-.102.326.247.358.776.031.529-.114.962-.324.962-.21 0-.27-.18-.134-.4.136-.22.046-.4-.2-.4s-.336-.18-.2-.4c.136-.22.046-.4-.2-.4s-.343-.169-.215-.376c.128-.207-.013-.605-.312-.885-.397-.37-.427-.639-.109-.984.539-.586.741-.413.87.745m3.907 7.402c-.127.489-.4.785-.606.658-.222-.137-.19-.453.08-.778.25-.301.322-.78.161-1.064-.206-.364-.161-.397.152-.111.245.224.341.807.213 1.295m366.215 3.551c-.635.765-1.156.681-1.156-.186 0-1.019.427-1.343 1.068-.81.409.339.431.583.088.996m-3.394 3.686c.233.377-1.625 2.227-2.562 2.551-.95.329-1.2.331-1.2.01 0-.165.135-.309.3-.32.72-.047 2.079-.653 2.028-.904-.198-.989.974-2.082 1.434-1.337m-356.788 1.703c-.105.17.128.494.518.721.389.227.511.418.27.425-.241.007-.737-.318-1.102-.721-.549-.607-.562-.734-.079-.734.321 0 .498.139.393.309M378 369.322c0 .066-.6.703-1.333 1.413-1.065 1.032-1.334 1.149-1.335.579-.002-.77 1.065-1.763 1.564-1.455.167.104.304-.002.304-.235 0-.233.18-.424.4-.424.22 0 .4.055.4.122m-348.671 2.609c.728.706 1.447 1.16 1.597 1.009.151-.15.274-.175.274-.056 0 1.218-1.22.925-2.784-.668-1.991-2.028-1.155-2.289.913-.285m-.529.269c.746.77 1.447 1.4 1.557 1.4.11 0-.411-.63-1.157-1.4-.746-.77-1.447-1.4-1.557-1.4-.11 0 .411.63 1.157 1.4m344.792 1.209c-.265.32-.636.488-.823.372-.187-.116-.031-.526.346-.912.788-.808 1.205-.336.477.54m-2.14 1.599c-.135.354-.426.532-.645.396-.254-.156-.218-.443.097-.785.61-.662.879-.472.548.389m-333.908 4.126c-.192.074-.223.344-.07.6.154.256-.045.203-.441-.119-.431-.351-.542-.645-.277-.734.244-.081.457-.448.472-.814.022-.526.096-.498.346.133.175.44.162.86-.03.934m320.748 4.655c.169.187.083.21-.192.052-.275-.159-.5-.087-.5.159s-.18.336-.4.2c-.22-.136-.4-.046-.4.2s-.18.336-.4.2c-.22-.136-.4-.046-.4.2s-.18.336-.4.2c-.22-.136-.4-.046-.4.2s-.18.336-.4.2c-.22-.136-.4-.046-.4.2s-.18.336-.4.2c-.22-.136-.4-.046-.4.2s-.165.345-.366.221c-.201-.124-.453 0-.559.277-.106.276-.175.117-.152-.354.027-.578.23-.783.624-.632.391.15.483.06.278-.271-.189-.306-.1-.466.235-.42 1.091.149 1.58-.032 1.302-.483-.168-.272-.111-.354.14-.199.515.319 1.766-.105 1.514-.513-.249-.403 1.298-.253 1.676.163M350 387.647c0 .22-.18.289-.4.153-.22-.136-.4-.027-.4.243s-.094.396-.209.281c-.341-.341.26-1.539.651-1.298.197.122.358.401.358.621m-297.408.277c.125.325.133.685.017.8-.115.115-.209-.011-.209-.281s-.18-.379-.4-.243c-.22.136-.4.046-.4-.2s-.208-.319-.462-.162c-.258.16-.354.111-.217-.11.368-.596 1.414-.473 1.671.196m295.059.353c.373.46.389.58.049.376-.275-.165-.5-.11-.5.123 0 .233-.202.424-.449.424-.324 0-.319-.156.017-.561.357-.431.345-.609-.051-.769-.307-.123-.334-.22-.066-.238.248-.018.698.273 1 .645m-1.758.568c.035.465-.045.737-.178.604s-.518-.019-.855.254c-.649.526-.426-.068.451-1.203.503-.649.508-.646.582.345m-290.242.455c.418.785.403.836-.122.403-.332-.273-.721-.378-.866-.233-.145.145-.263.083-.263-.137 0-.376.389-.933.653-.933.065 0 .335.405.598.9m279.296 3.219c.139-.139.253-.042.253.214 0 .582-.232.585-1.287.02-.731-.391-.799-.354-.55.3.217.57.173.637-.184.282-.7-.694-.091-1.423.793-.95.397.213.836.273.975.134m-264.525 1.708c.339.408.347.573.027.573a.447.447 0 0 1-.449-.443c0-.243-.264-.341-.587-.217-.323.124-.671.09-.772-.074-.348-.563 1.304-.414 1.781.161m258.561-.255c.296.479-.457.953-.99.624-.447-.277-.153-.996.407-.996.194 0 .456.168.583.372M84.537 397.3c-.252.41-1.641.38-1.901-.042-.116-.188.305-.323.937-.3.632.023 1.065.177.964.342m227.285.25c-.497.497-.714.518-1.119.109-.405-.408-.354-.45.263-.215.475.181.671.14.517-.109-.136-.221.023-.402.354-.402.529 0 .527.075-.015.617m3.137-.283c-.114.183-.545.333-.959.333-.414 0-.845-.15-.959-.333-.113-.184.318-.334.959-.334s1.072.15.959.334m-5.24.6c-.242.63-1.959.716-2.329.117-.168-.272.12-.321.836-.142.677.17 1.001.126.851-.117-.133-.215.003-.392.302-.392.3 0 .453.24.34.534m-217.185.277c.354-.199.354-.141.001.242-.549.595-1.476.165-1.068-.494.204-.33.323-.322.44.03.089.266.371.365.627.222m1.589.381c-.15.243.174.287.851.117.716-.179 1.004-.13.836.142-.37.599-2.087.513-2.329-.117-.113-.294.04-.534.34-.534.299 0 .435.177.302.392m209.077.075c-.579.698-1.546.765-2.4.168-.471-.33-.408-.366.292-.17.49.138 1.21.065 1.6-.161.978-.57 1.087-.535.508.163m-203.545.393c.403-.23.432-.187.112.161-.506.552-1.881.153-1.515-.439.156-.252.361-.217.553.094.176.284.537.362.85.184m197.758.304c-.466.261-.84.235-1.152-.079-.349-.353-.292-.401.239-.199.419.16.7.079.7-.2 0-.256.203-.341.451-.187.306.188.228.404-.238.665" fill="#3474f4"/><path d="M102.108.772c.032.425.204.683.382.573a.394.394 0 0 0 .112-.542c-.117-.189.105-.425.493-.526.551-.144.514-.194-.17-.231-.632-.033-.859.169-.817.726M299.306.326c-.294.186.072.314.9.314.767 0 1.394-.144 1.394-.32 0-.41-1.646-.405-2.294.006m-205.08.832c-.122.197.057.465.397.596.354.135.514.068.374-.159-.134-.217.047-.395.403-.395.356 0 .537.178.403.395-.14.227.02.294.374.159.34-.131.519-.399.397-.596-.287-.465-2.061-.465-2.348 0M306.9 1.065c-.275.111-.5.367-.5.568 0 .459.888.303 1.33-.233.214-.259.403-.223.535.102.219.542.935.293.935-.326 0-.392-1.433-.461-2.3-.111m3.303.53c-.145.235.034.289.442.132.413-.158.588-.103.438.138-.136.221.011.402.328.402.435 0 .468-.131.134-.534-.526-.633-1.006-.682-1.342-.138m-222.254.67c-.496.602-.465.621.325.2 1.068-.569 1.86-.605 1.529-.07-.14.227.02.294.374.159.34-.131.519-.399.397-.596-.369-.597-2.04-.401-2.625.307M312.8 1.957c0 .197.279.465.621.596.356.136.516.069.376-.158-.134-.217.047-.395.403-.395.356 0 .555.15.441.333-.113.184.039.334.338.334.3 0 .453-.24.34-.534-.225-.587-2.519-.748-2.519-.176m-229.545.976c-.335.404-.298.534.151.534.327 0 .594-.15.594-.334 0-.183.191-.333.424-.333.233 0 .295.208.138.462-.177.286-.11.353.176.176.254-.157.462-.455.462-.662 0-.567-1.44-.451-1.945.157M318.262 2.7c-.102.165.247.3.776.3s.962-.135.962-.3c0-.165-.349-.3-.776-.3-.427 0-.86.135-.962.3M80.7 3.633c-.385.422-.542.767-.349.767.193 0 .573-.268.845-.596.272-.327.682-.479.911-.338.242.15.297.064.131-.204-.382-.619-.705-.541-1.538.371m-5.302.77c-.278.449.894 1.039 1.286.646.137-.137-.096-.252-.517-.255-.642-.005-.669-.07-.167-.394.361-.233.41-.39.124-.394a.935.935 0 0 0-.726.397m-1.938.584c-.124.323-.048.697.167.83.216.133.343.004.283-.287-.061-.292.128-.481.42-.42.291.06.415-.075.276-.3-.362-.587-.884-.506-1.146.177m-1.617.446c-.334.87-.311.967.224.967.256 0 .348-.118.203-.263-.145-.145-.063-.505.182-.8.281-.338.295-.537.04-.537-.224 0-.516.285-.649.633m263.735 1.14c.504.607 2.022.693 2.022.115 0-.188-.36-.228-.8-.088-.459.146-.8.072-.8-.173a.44.44 0 0 0-.449-.427c-.32 0-.312.165.027.573m12.275 4.127c.067.275-.082.5-.332.5s-.36.094-.245.209c.308.308 1.524-.231 1.524-.675 0-.21-.165-.279-.366-.155-.201.124-.442.09-.534-.077-.093-.166-.114-.077-.047.198M54.4 10.824c0 .233-.18.312-.4.176-.22-.136-.4-.057-.4.176 0 .612.622.521 1.2-.176.344-.415.359-.6.049-.6-.247 0-.449.191-.449.424m296.923 1.432c.039.83 1.077.905 1.077.078 0-.21-.165-.279-.366-.155-.201.124-.453 0-.559-.277-.106-.276-.175-.117-.152.354M50 12.8c0 .246-.18.336-.4.2-.22-.136-.4-.046-.4.2s-.18.336-.4.2c-.506-.313-.506.217 0 1 .333.515.389.503.394-.087.004-.476.211-.609.672-.432.423.162.568.097.397-.179-.147-.238-.051-.506.215-.595.375-.125.375-.227.002-.457-.264-.164-.48-.096-.48.15m309.519 3.427c-.12.205-.092.721.062 1.146.155.426.38.606.5.4.12-.205.092-.721-.062-1.146-.155-.426-.38-.606-.5-.4M38.148 19.792c-.331.861-.062 1.051.548.389.315-.342.351-.629.097-.785-.219-.136-.51.042-.645.396m-3.309 2.361c-.353.426-.323.606.13.78.418.16.518.038.343-.419-.179-.464-.099-.553.282-.318.352.218.434.173.244-.134-.363-.588-.442-.58-.999.091m333.592.81c-.385.464-.338.552.247.462.397-.062.854.088 1.016.332.213.322.295.32.3-.008.012-.876-1.047-1.409-1.563-.786M32 24.6c-.517.55-.739 1-.493 1 .245 0 .559-.183.697-.407.138-.223.417-.304.619-.179.203.126.25-.079.104-.459-.192-.502-.121-.599.267-.359.352.218.434.173.244-.134-.376-.608-.354-.616-1.438.538m339.6.4c.344.415.359.6.049.6-.247 0-.449.216-.449.48 0 .362.113.367.46.02.62-.62 4.557 3.349 4.46 4.498-.054.639-.026.658.136.097.114-.392.413-.59.674-.445.259.143-.875-1.115-2.52-2.795-2.743-2.802-4.036-3.932-2.81-2.455M27.97 28.265c-.534.585-.745.934-.47.776.275-.159.5-.103.5.123 0 .226.267.309.592.184.332-.128.558-.65.513-1.188-.096-1.162.029-1.173-1.135.105m-2.995 3.403L23.8 32.936l1.288-.886c1.379-.95 1.977-1.65 1.41-1.65-.191 0-.877.571-1.523 1.268m352.617.541c-.423.51-.397.568.156.356.44-.169.615-.072.522.29-.076.3-.063.41.029.245.092-.165.343-.3.558-.3.215 0 .262.208.105.462-.182.295-.109.353.202.16.367-.226.317-.49-.2-1.062-.826-.912-.747-.904-1.372-.151M22.865 34.122c-.371.447-.35.675.094 1.044.72.598 1.233-.094.733-.988-.304-.542-.418-.55-.827-.056m358.228 2.312c.159.608.304.694.536.319.344-.557.13-1.153-.415-1.153-.187 0-.241.375-.121.834m3.211 4.69c-.134.512.052.726.655.755.462.021.615-.048.339-.154-.277-.106-.409-.346-.294-.532.115-.186.047-.438-.152-.561-.199-.123-.445.099-.548.492m3.104 6.115c.189.985 2.085 3.001 2.465 2.622.143-.144.04-.261-.23-.261s-.379-.18-.243-.4c.136-.22.046-.4-.2-.4s-.317-.211-.158-.468c.199-.322.064-.382-.433-.191-.638.245-.658.198-.166-.407.495-.607.472-.652-.2-.4-.642.241-.68.192-.251-.325.417-.501.395-.609-.12-.609-.42 0-.573.276-.464.839M10.215 57.224c.281.455 1.385.503 1.385.061 0-.173-.364-.342-.809-.376-.444-.033-.704.109-.576.315m383.924 4.991c-.13.338.056.938.413 1.332.358.395.514.867.349 1.05-.166.182-.067.196.218.032.368-.212.398-.447.104-.801-.229-.276-.283-.649-.12-.829.164-.18.044-.18-.266-.001-.432.251-.511.127-.337-.535.258-.988-.007-1.17-.361-.248M6.94 66.987c.124.323.053.694-.157.824-.211.13-.383.428-.383.662 0 .29.17.284.537-.021.295-.245.679-.312.854-.149.175.164.119-.084-.123-.55s-.326-.961-.187-1.1c.139-.139.023-.253-.257-.253-.284 0-.41.26-.284.587m-.718 2.577c-.123.2-.115.65.019 1 .135.35.045.636-.198.636a.447.447 0 0 0-.443.449c0 .328.148.326.55-.008.303-.251.55-.903.55-1.448 0-1.059-.117-1.213-.478-.629M3.606 80.7c.015.711.699 1.378.968.943.15-.244.072-.443-.174-.443s-.336-.18-.2-.4c.136-.22.057-.4-.176-.4-.233 0-.421.135-.418.3M156 82.004c-2.09.156-4.07.202-4.4.102-.533-.161-.533-.134 0 .25.979.705 7.865.573 8.145-.156.126-.33.191-.573.142-.54-.048.033-1.797.188-3.887.344m5.515-.08c-.377.152 13.286.233 30.361.181 17.076-.052 31.133-.18 31.238-.285.304-.305-60.84-.201-61.599.104m62.779.376c.15.391 4.685.5 20.815.5 11.344 0 20.489-.135 20.325-.3-.564-.565-41.357-.763-41.14-.2m-81.782.1c.188.65 4.552.696 5.193.055.177-.177-.781-.144-2.13.073-1.984.319-2.527.288-2.844-.167-.328-.469-.363-.462-.219.039m158.465.026c-.647.125 11.573.371 27.156.547 15.97.181 28.484.17 28.68-.026.197-.196-5.732-.299-13.633-.237-7.689.061-13.98-.029-13.98-.2 0-.352-26.417-.431-28.223-.084m96.849-.068c-.122.197.057.465.397.596.34.13.518.074.395-.124-.123-.199.003-.453.28-.564.312-.126.246-.215-.174-.234-.372-.018-.776.129-.898.326m-394.249.885c-.342.64-.332.953.045 1.3.375.346.428.337.218-.035-.152-.27-.082-.855.156-1.3.237-.444.342-.808.232-.808-.11 0-.403.379-.651.843m136.275-.528c-.136.221.036.51.383.643.925.355 1.365.297 1.365-.182 0-.233-.2-.3-.445-.148-.244.151-.582.052-.75-.219-.192-.311-.397-.346-.553-.094m243.348.168c0 .194-5.592.298-12.6.233-6.93-.064-12.6.019-12.6.184 0 .581 24.972.355 25.776-.233.632-.462.643-.534.077-.534-.359 0-.653.158-.653.35m-245.402.313c.241.391.062.47-.726.32-.576-.11-.953-.046-.836.142.288.465 2.164.436 2.164-.034 0-.207-.208-.505-.462-.662-.304-.188-.352-.109-.14.234m-5.936 1.304c.256.415 1.243.377 1.512-.058.121-.196-.211-.331-.738-.3-.528.032-.876.193-.774.358m-4.366 1.006c.149.388.301.423.492.114.152-.246.577-.332.944-.191.367.141.668.09.668-.113 0-.204-.522-.371-1.16-.371-.83 0-1.098.16-.944.561M2.88 87.68c-.56.56-.649 2.32-.117 2.32.199 0 .268-.36.153-.8-.115-.44-.038-.8.171-.8.209 0 .38-.27.38-.6 0-.722.012-.719-.587-.12m112.403 4.497c-.267.588-.666.957-.885.822-.219-.135-.398-.045-.398.201s-.15.355-.333.241c-.184-.113-.334.056-.334.377 0 .32.117.582.259.582.533 0 2.49-2.355 2.337-2.813-.088-.263-.378.003-.646.59M2.07 93.548c-.316.2-.477.872-.4 1.663.139 1.418.959 2.122.959.823 0-.426-.142-.688-.315-.581-.446.276-.389-.565.1-1.479.461-.862.422-.911-.344-.426m108.828 3.518c-.277.111-.408.356-.292.544.116.188-.201.757-.705 1.266-.504.508-.839.881-.745.827.094-.053.447.127.784.4.489.397.553.396.313-.003-.169-.281-.104-.5.147-.5.246 0 .336-.18.2-.4-.136-.22-.046-.4.2-.4s.345-.165.22-.368c-.125-.202.057-.652.405-1 .627-.627.44-.756-.527-.366M1.43 98.667c-.141.367-.093.83.107 1.03.217.217.363-.05.363-.667 0-1.199-.115-1.288-.47-.363m-.63 3.909c0 .757.177 1.486.394 1.62.244.151.301-.22.15-.976-.162-.81-.085-1.22.23-1.22.26 0 .362-.18.226-.4-.512-.828-1-.351-1 .976m106.832.475c-.018.248.273.698.645 1 .46.373.58.389.376.049-.165-.275-.11-.5.123-.5.233 0 .424-.202.424-.449 0-.324-.156-.319-.561.017-.431.357-.609.345-.769-.051-.123-.307-.22-.334-.238-.066m-1.866 8.604c-.194.314-.115.361.24.141.385-.238.46-.145.275.338-.141.366-.082.666.132.666.495 0 .506-1.079.015-1.383-.205-.126-.503-.019-.662.238M0 113.4c0 .77.07 1.4.156 1.4s.23-.63.32-1.4c.09-.77.02-1.4-.156-1.4s-.32.63-.32 1.4m105.455 2.8c.127.33.021.6-.236.6-.256 0-.355.18-.219.4.455.737 1 .41 1-.6 0-.55-.174-1-.387-1-.214 0-.284.27-.158.6M.428 117.9c.025.975.067 1.009.372.3.469-1.093.469-1.4 0-1.4-.22 0-.387.495-.372 1.1m104.272 1.165c.275.111.5.377.5.592 0 .215-.208.262-.462.105-.297-.184-.353-.109-.155.211.205.331.441.363.707.097.472-.472.069-1.284-.614-1.238-.343.022-.337.087.024.233M.036 121.62l.036 1.78.39-1.354c.265-.923.253-1.491-.036-1.78-.301-.301-.415.096-.39 1.354m104.666.58c.109.57.005 1-.243 1-.239 0-.331.269-.205.598.127.328.391.498.588.376.459-.283.471-2.974.013-2.974-.189 0-.258.45-.153 1m-.453 5.33c-.177.512-.216 1.037-.086 1.167.415.414.707-.197.555-1.163l-.147-.934-.322.93m-1.067 11.57c-.104 1.201-.011 2.173.218 2.27.231.097.17.33-.143.55-.335.235-.389.475-.142.628.622.384.767-.534.496-3.148l-.248-2.4-.181 2.1m-.262 6.5c0 1.21.075 1.705.167 1.1a8.899 8.899 0 0 0 0-2.2c-.092-.605-.167-.11-.167 1.1m294.059 5.166c.124.201 0 .457-.277.568-.303.122-.224.215.198.234.385.018.7-.238.7-.568 0-.33-.191-.6-.424-.6-.233 0-.321.165-.197.366m.328 9.65.033 6.184.234-5.6c.128-3.08.113-5.863-.033-6.184-.147-.322-.252 2.198-.234 5.6m-.067 21.341c.013 7.82-.116 14.449-.286 14.731-.218.363-.108.35.378-.044.438-.356.595-.844.434-1.351-.168-.53-.103-.701.196-.516.329.203.421-3.332.343-13.217-.079-10.227-.224-13.533-.596-13.657-.382-.127-.486 2.992-.469 14.054m.659 5.968c-.067 3.341-.121.495-.121-6.325s.055-9.554.121-6.075c.067 3.479.067 9.059 0 12.4M184.083 197.1c.33.398 21.883.5 105.317.5s104.987-.102 105.317-.5c.332-.4-20.777-.5-105.317-.5-84.54 0-105.649.1-105.317.5m-81.122 71.3c0 3.41.061 4.805.136 3.1a85.45 85.45 0 0 0 0-6.2c-.075-1.705-.136-.31-.136 3.1m.239 7.17c.377.27.452.541.2.73-.234.176-.303 1.212-.165 2.5l.235 2.2.125-2.3c.069-1.265.143-2.51.165-2.767.022-.256-.23-.54-.56-.63-.533-.146-.533-.116 0 .267M.036 278.38c-.025 1.258.089 1.655.39 1.354.289-.289.301-.857.036-1.78l-.39-1.354-.036 1.78m.389 4c-.017.947.104 1.251.387.968.273-.273.282-.739.026-1.38-.364-.91-.389-.885-.413.412m-.324 4.22c.004.88.086 1.193.182.695.096-.497.092-1.217-.008-1.6-.1-.382-.179.025-.174.905m104.099 2.762c0 .529.135.878.3.776.165-.102.3-.535.3-.962 0-.427-.135-.776-.3-.776-.165 0-.3.433-.3.962m.06 2.825c-.165.432-.095.558.208.371.311-.192.386-.007.232.579-.124.475-.062.863.137.863.455 0 .463-1.223.013-1.934-.271-.427-.389-.402-.59.121m-103.193 3.68c-.505.504-.266 2.836.342 3.341.515.427.566.393.332-.217-.208-.542-.135-.649.291-.427.312.162.253.037-.132-.278-.71-.582-1.003-1.721-.337-1.309.199.123.268-.136.153-.576-.232-.888-.267-.917-.649-.534m103.866 1.139c0 .327.161.594.357.594.197 0 .246.18.11.4-.136.22-.057.4.176.4.599 0 .527-1.017-.109-1.545-.404-.335-.534-.298-.534.151M1.361 300.463c-.112.182-.004.647.241 1.034.296.468.391.502.286.103-.087-.33.106-.795.43-1.033.505-.373.494-.434-.083-.434-.368 0-.762.149-.874.33m104.423.364c-.145.234-.168.522-.051.64.287.286 1.067-.219 1.067-.691 0-.511-.691-.477-1.016.051m-103.917 2.64c-.529.529-.272 2.846.342 3.081.504.194.533.091.166-.594-.244-.456-.334-1.262-.201-1.791.247-.984.165-1.169-.307-.696m.412 4.272c-.113.293-.025.787.196 1.097.322.453.358.431.185-.11-.118-.371-.009-.743.243-.827.327-.109.333-.23.019-.423-.241-.149-.53-.031-.643.263m.266 2.861c-.32.833.155 1.909.695 1.575.318-.196.302-.363-.056-.585-.275-.17-.39-.597-.255-.95.135-.352.156-.64.046-.64s-.304.27-.43.6m111.653 5.111c.613.831 1.214 1.41 1.337 1.287s-.378-.803-1.113-1.511l-1.337-1.287 1.113 1.511m-110.864.116c-.295.769.446 1.653.844 1.008.148-.239.079-.435-.154-.435a.426.426 0 0 1-.424-.424c0-.233.208-.295.462-.138.286.177.353.11.176-.176-.385-.624-.617-.581-.904.165m113.192 1.639a.45.45 0 0 1-.224.668c-.316.128-.255.215.165.234.366.018.757.257.868.532.129.318.213.264.233-.151.018-.358-.273-.898-.645-1.2-.372-.302-.551-.339-.397-.083m11.452 6.307c.477.575 2.129.724 1.781.161-.101-.164-.449-.198-.772-.074-.323.124-.587.026-.587-.217a.447.447 0 0 0-.449-.443c-.32 0-.312.165.027.573m6.239 1.399c-.126.205-.019.503.238.662.293.181.361.116.183-.172-.157-.254-.095-.462.138-.462s.424.191.424.424c0 .233.183.31.407.172.522-.323.112-.996-.607-.996-.304 0-.656.168-.783.372m3.186.423c-.145.235.034.289.442.132.502-.192.599-.121.359.267-.218.352-.173.434.134.244.254-.157.462-.455.462-.662 0-.499-1.086-.484-1.397.019m2.06.305c-.102.165.382.33 1.076.367 1.022.055 1.11.004.461-.271-1.042-.443-1.314-.459-1.537-.096m5.137.519c-.56.253-.332.288.758.116 1.214-.192 1.487-.132 1.238.271-.21.341-.162.42.142.232 1.385-.856-.446-1.386-2.138-.619m179.617-.047c-.201.325.031.381.792.19.592-.149 1.193-.111 1.334.084.146.201 6.993.265 15.857.147l15.6-.207-15.2-.097c-8.36-.054-15.852-.206-16.649-.337-.905-.15-1.556-.067-1.734.22m64.678-.144c.158.159 1.894.293 3.857.3 2.604.008 3.52.14 3.386.49-.101.263.115.594.481.734.396.152.568.504.427.872-.135.353-.068.513.159.373.528-.326.506-1.397-.029-1.397-.233 0-.325-.16-.204-.355.121-.195-.004-.527-.276-.737-.571-.441-8.237-.716-7.801-.28m-101.638.528c-.378.24-.408.427-.1.618.244.15.443.083.443-.15 0-.233.191-.424.424-.424.233 0 .295.208.138.462-.178.288-.11.353.183.172.257-.159.364-.457.238-.662-.283-.458-.621-.462-1.326-.016m78.843-.057c3.905.066 10.295.066 14.2 0 3.905-.065.71-.119-7.1-.119s-11.005.054-7.1.119M5.6 328.351a.44.44 0 0 0 .427.449c.239 0 .32.338.184.766-.276.87.382 1.493.823.779.19-.307.115-.361-.215-.157-.366.226-.435.094-.253-.481.154-.485.015-.991-.357-1.3-.417-.345-.609-.363-.609-.056m391.004 2.042c-.138.224-.038.407.222.407.315 0 .392.41.23 1.22-.151.756-.094 1.127.15.976.5-.309.517-2.473.022-2.779-.205-.126-.486-.047-.624.176M7.366 334.455c-.193.313-.115.361.235.144.391-.241.467-.104.3.538-.124.474-.101.939.052 1.034.152.094.313-.257.356-.78.088-1.068-.5-1.652-.943-.936M391.397 349.3c-.429.495-.731 1.125-.671 1.4.06.275-.041.5-.223.5-.183 0-.36.356-.392.792-.049.64.042.698.472.3.293-.271.451-.627.351-.792-.099-.165.02-.3.266-.3.246 0 .336-.18.2-.4-.136-.22-.046-.4.2-.4s.336-.18.2-.4c-.136-.22-.046-.4.2-.4s.345-.165.221-.366c-.124-.201 0-.457.277-.568.276-.112.317-.217.091-.234-.226-.018-.762.373-1.192.868m-377.633.855c-.318.345-.288.614.109.984.299.28.44.678.312.885-.128.207-.031.376.215.376s.336.18.2.4c-.136.22-.046.4.2.4s.336.18.2.4c-.136.22-.076.4.134.4.21 0 .355-.433.324-.962-.032-.529-.193-.878-.358-.776-.165.102-.315.04-.333-.138-.257-2.491-.352-2.677-1.003-1.969m4.412 6.963c.161.284.089.763-.161 1.064-.27.325-.302.641-.08.778.55.34.916-1.476.393-1.953-.313-.286-.358-.253-.152.111m365.687 3.552c-.388.388-.32 1.73.088 1.73.775 0 1.276-1.079.717-1.543-.298-.248-.66-.332-.805-.187m-361.408 4.797c.244.293.736.512 1.094.487.544-.039.536-.077-.054-.231-.388-.101-.621-.32-.517-.487.103-.166-.072-.303-.389-.303-.435 0-.468.131-.134.534m357.724.433c-.168.385-.281.824-.251.976.051.251-1.308.857-2.028.904a.326.326 0 0 0-.3.32c0 .321.25.319 1.2-.01.937-.324 2.795-2.174 2.562-2.551-.338-.548-.854-.391-1.183.361M24.26 367.667c.365.403.861.728 1.102.721.241-.007.119-.198-.27-.425-.39-.227-.623-.551-.518-.721.105-.17-.072-.309-.393-.309-.483 0-.47.127.079.734m352.94 1.957c0 .233-.137.339-.304.235-.499-.308-1.566.685-1.564 1.455.001.57.27.453 1.335-.579 1.452-1.408 1.53-1.535.933-1.535-.22 0-.4.191-.4.424m-348.784 2.592c1.564 1.593 2.784 1.886 2.784.668 0-.119-.123-.094-.274.056-.15.151-.869-.303-1.597-1.009-2.068-2.004-2.904-1.743-.913.285m.784-.016c.746.77 1.267 1.4 1.157 1.4-.11 0-.811-.63-1.557-1.4-.746-.77-1.267-1.4-1.157-1.4.11 0 .811.63 1.557 1.4m343.915.669c-.377.386-.533.796-.346.912.404.25 1.367-.809 1.169-1.284-.076-.182-.446-.014-.823.372m-2.211 1.75c-.315.342-.351.629-.097.785.219.136.51-.042.645-.396.331-.861.062-1.051-.548-.389m-338.491.832c-.023.794 1.071 1.465 1.416.868.164-.285.153-.387-.025-.225-.179.161-.562-.019-.852-.4-.289-.382-.532-.491-.539-.243m4.815 2.616c-.015.366-.228.733-.472.814-.265.089-.154.383.277.734.396.322.595.375.441.119-.153-.256-.122-.526.07-.6.192-.074.205-.494.03-.934-.25-.631-.324-.659-.346-.133m319.388 5.559c.252.408-.999.832-1.514.513-.251-.155-.308-.073-.14.199.278.451-.211.632-1.302.483-.335-.046-.424.114-.235.42.205.331.113.421-.278.271-.394-.151-.597.054-.624.632-.023.471.046.63.152.354.106-.277.358-.401.559-.277.201.124.366.025.366-.221s.18-.336.4-.2c.22.136.4.046.4-.2s.18-.336.4-.2c.22.136.4.046.4-.2s.18-.336.4-.2c.22.136.4.046.4-.2s.18-.336.4-.2c.22.136.4.046.4-.2s.18-.336.4-.2c.22.136.4.046.4-.2s.225-.318.5-.159c.275.158.361.135.192-.052-.378-.416-1.925-.566-1.676-.163m-7.584 3.834c-.138.36-.157.749-.041.864.115.115.209-.011.209-.281s.18-.379.4-.243c.22.136.4.067.4-.153 0-.72-.71-.858-.968-.187m-298.111.268c-.137.221-.041.27.217.11.254-.157.462-.084.462.162s.18.336.4.2c.22-.136.4-.027.4.243s.094.396.209.281c.116-.115.108-.475-.017-.8-.257-.669-1.303-.792-1.671-.196m295.796.142c.396.16.408.338.051.769-.336.405-.341.561-.017.561.247 0 .449-.191.449-.424 0-.233.225-.288.5-.123.34.204.324.084-.049-.376-.302-.372-.752-.663-1-.645-.268.018-.241.115.066.238m-1.406.63c-.877 1.135-1.1 1.729-.451 1.203.337-.273.722-.387.855-.254s.213-.139.178-.604c-.074-.991-.079-.994-.582-.345m-290.644.167a1.077 1.077 0 0 0-.267.666c0 .22.118.282.263.137.145-.145.534-.04.866.233.525.433.54.382.122-.403-.524-.984-.591-1.027-.984-.633m278.312 3.767c-.148.24-.058.645.2.901.357.355.401.288.184-.282-.249-.654-.181-.691.55-.3 1.055.565 1.287.562 1.287-.02 0-.256-.114-.353-.253-.214-.139.139-.578.079-.975-.134-.486-.26-.812-.244-.993.049m-264.338 1.632c.101.164.449.198.772.074.323-.124.587-.026.587.217 0 .244.202.443.449.443.32 0 .312-.165-.027-.573-.477-.575-2.129-.724-1.781-.161m259.176-.094c-.296.479.457.953.99.624.447-.277.153-.996-.407-.996-.194 0-.456.168-.583.372m-248.029 2.009c.232.375.082.432-.588.219-.613-.195-.813-.145-.626.157.333.539 1.293.581 1.609.071.126-.205.019-.503-.238-.662-.307-.19-.361-.115-.157.215m238.01.022c-.461.746 1.046.925 1.733.205.631-.662.619-.676-.205-.255-1.081.553-1.448.569-1.126.047.136-.22.157-.4.047-.4s-.312.181-.449.403m-235.162 1.255c.26.422 1.649.452 1.901.042.101-.165-.332-.319-.964-.342-.632-.023-1.053.112-.937.3m228.847.077c.154.249-.042.29-.517.109-.617-.235-.668-.193-.263.215.405.409.622.388 1.119-.109.542-.542.544-.617.015-.617-.331 0-.49.181-.354.402m1.558-.068c.114.183.545.333.959.333.414 0 .845-.15.959-.333.113-.184-.318-.334-.959-.334s-1.072.15-.959.334m-225.56.6c.229.597 1.951.729 2.293.175.122-.197-.057-.465-.397-.596-.354-.135-.514-.068-.374.159.134.217-.047.395-.403.395-.356 0-.555-.15-.441-.333.113-.184-.039-.334-.338-.334-.3 0-.453.24-.34.534m221.596-.142c.15.243-.174.287-.851.117-.716-.179-1.004-.13-.836.142.37.599 2.087.513 2.329-.117.113-.294-.04-.534-.34-.534-.299 0-.435.177-.302.392m-217.61.167c-.408.659.519 1.089 1.068.494.353-.383.353-.441-.001-.242-.256.143-.538.044-.627-.222-.117-.352-.236-.36-.44-.03m2.014.775c.242.63 1.959.716 2.329.117.168-.272-.12-.321-.836-.142-.677.17-1.001.126-.851-.117.133-.215-.003-.392-.302-.392-.3 0-.453.24-.34.534m209.211-.23c-.39.226-1.11.299-1.6.161-.7-.196-.763-.16-.292.17.854.597 1.821.53 2.4-.168.579-.698.47-.733-.508-.163m-204.44.278c-.366.592 1.009.991 1.515.439.32-.348.291-.391-.112-.161-.313.178-.674.1-.85-.184-.192-.311-.397-.346-.553-.094m198.948.104c0 .279-.281.36-.7.2-.531-.202-.588-.154-.239.199.312.314.686.34 1.152.079.466-.261.544-.477.238-.665-.248-.154-.451-.069-.451.187m-196.339.599c.363.371.879.602 1.145.513.267-.089-.031-.392-.661-.675-1.072-.48-1.103-.47-.484.162M294.4 399.4c-.688.393-.797.576-.349.586.358.008.875-.256 1.149-.586.609-.734.484-.734-.8 0m-5.8.2c-.143.231.228.397.876.394.873-.005.99-.093.524-.394-.769-.497-1.093-.497-1.4 0" fill="#3874f4"/></g></svg>