<svg viewBox="0 0 24 24" xmlns="http://www.w3.org/2000/svg"><path d="m16.067 13.6 7.685 6.587A2.968 2.968 0 0 0 24 19V8.549Zm-3.529-.127 11.354-7.226A3 3 0 0 0 21 4H3A3 3 0 0 0 .108 6.247l11.355 7.226a1.006 1.006 0 0 0 1.075 0ZM0 8.549V19a2.968 2.968 0 0 0 .248 1.185L7.933 13.6Zm14.314 6.165-.7.447a3.016 3.016 0 0 1-3.221 0l-.7-.448c-.015.014-.021.033-.036.046l-8.039 6.886A2.953 2.953 0 0 0 3 22h18a2.957 2.957 0 0 0 1.383-.355l-8.033-6.886c-.016-.013-.022-.032-.036-.045Z" data-name="8. Mail"/></svg>