<svg fill="none" height="351" viewBox="0 0 393 351" width="393" xmlns="http://www.w3.org/2000/svg" xmlns:xlink="http://www.w3.org/1999/xlink"><clipPath id="a"><path d="m0 0h393v351h-393z"/></clipPath><g clip-path="url(#a)"><path d="m192.6 2.2c22.4 2.5 44.7 7.1 66.4 13.2 30.4 8.4 60.4 19.9 85.4 39 56.6 43.4 62.7 114.9 24.7 173.3-25.9 39.8-66.7 72.3-108.6 93.8-55.4 28.4-141.5 46.3-196.1 6.4-28.9-21.1-42.9-56.8-51.7-91.5-9.7-38.1-14.7-77.5-12.7-116.7 1.9-36 11.5-70.9 42.6-92.4 18.3-12.7 40.1-19.4 62.1-23.2 29-5.1 58.6-5.2 87.9-1.9z" fill="#fcb116"/></g></svg>