<?xml version="1.0" encoding="UTF-8"?>
<svg fill="#828f9a"
     height="25px"
     width="25px" version="1.1" viewBox="0 0 700 700" xmlns="http://www.w3.org/2000/svg"
     xmlns:xlink="http://www.w3.org/1999/xlink">
    <g>
        <path d="m344.16 42.168-24.207 13.691h58.137l-3.375-5.7539c-8.7266-12.504-18.848-12.898-30.555-7.9375zm-33.336 25c-12.301 0-22.422 9.9219-22.422 22.422v358.55c0 12.301 10.121 22.223 22.422 22.223h257.55c12.5 0 22.422-9.9219 22.422-22.223v-358.55c0-12.5-9.9219-22.422-22.422-22.422zm-31.945 12.305-158.34 90.68c-10.914 6.1523-14.484 19.844-8.332 30.559l179.57 308.95c6.1523 10.715 20.039 14.285 30.758 8.1367l62.902-36.113h-74.609c-18.453 0-33.535-15.277-33.535-33.535v-227.59c-5.5547 11.113-17.262 21.43-28.375 23.812 5.9531 10.516 8.9297 15.875 20.039 23.414l-20.637 12.301c-0.79297-13.691-3.7695-19.047-9.7227-29.766-12.5 14.484-44.645 19.246-53.574 3.375-14.883-26.391 7.1445-60.719 13.691-85.719 24.008 6.5469 62.703 4.3672 78.578 28.773v-107.15c0-3.5703 0.59375-6.9453 1.5859-10.121zm115.68 113.7c19.246 0 30.16 11.906 46.035 17.66 14.285-5.9531 25-17.66 44.445-17.66 25.797 0 38.691 18.852 38.496 44.25-1.5898 27.379-55.559 75.594-83.539 106.95-28.176-31.352-83.934-76.195-84.328-106.95 0-25.398 12.898-44.25 38.891-44.25z"/>
        <use x="70" y="644" xlink:href="#t"/>
        <use x="90.550781" y="644" xlink:href="#c"/>
        <use x="104.359375" y="644" xlink:href="#a"/>
        <use x="123.347656" y="644" xlink:href="#j"/>
        <use x="142.242188" y="644" xlink:href="#b"/>
        <use x="155.628906" y="644" xlink:href="#a"/>
        <use x="174.617188" y="644" xlink:href="#f"/>
        <use x="204.410156" y="644" xlink:href="#i"/>
        <use x="224.453125" y="644" xlink:href="#e"/>
        <use x="252.453125" y="644" xlink:href="#h"/>
        <use x="268.75" y="644" xlink:href="#s"/>
        <use x="278.34375" y="644" xlink:href="#f"/>
        <use x="298.390625" y="644" xlink:href="#g"/>
        <use x="318.320312" y="644" xlink:href="#a"/>
        <use x="337.3125" y="644" xlink:href="#e"/>
        <use x="70" y="672" xlink:href="#r"/>
        <use x="82.183594" y="672" xlink:href="#c"/>
        <use x="95.992188" y="672" xlink:href="#d"/>
        <use x="115.226562" y="672" xlink:href="#q"/>
        <use x="154.152344" y="672" xlink:href="#b"/>
        <use x="167.535156" y="672" xlink:href="#p"/>
        <use x="187.46875" y="672" xlink:href="#a"/>
        <use x="216.207031" y="672" xlink:href="#o"/>
        <use x="239.640625" y="672" xlink:href="#d"/>
        <use x="258.878906" y="672" xlink:href="#n"/>
        <use x="278.8125" y="672" xlink:href="#g"/>
        <use x="308.492188" y="672" xlink:href="#m"/>
        <use x="329.015625" y="672" xlink:href="#c"/>
        <use x="342.820312" y="672" xlink:href="#d"/>
        <use x="362.058594" y="672" xlink:href="#l"/>
        <use x="371.65625" y="672" xlink:href="#a"/>
        <use x="390.648438" y="672" xlink:href="#k"/>
        <use x="407.242188" y="672" xlink:href="#b"/>
    </g>
</svg>
