<svg
        xmlns="http://www.w3.org/2000/svg"
        version="1.1"
        width="25"
        height="25"
        viewBox="0 0 256 256"
        xml:space="preserve"
>
                <defs></defs>
    <g
            style="
                    stroke: none;
                    stroke-width: 0;
                    stroke-dasharray: none;
                    stroke-linecap: butt;
                    stroke-linejoin: miter;
                    stroke-miterlimit: 10;
                    fill: none;
                    fill-rule: nonzero;
                    opacity: 1;
                  "
            transform="translate(1.4065934065934016 1.4065934065934016) scale(2.81 2.81)"
    >
                  <path
                          d="M 56.573 74.693 c -2.046 0 -4.025 0.473 -5.819 1.347 v -9.75 c 0 -1.104 -0.896 -2 -2 -2 h -7.507 c -1.104 0 -2 0.896 -2 2 v 9.75 c -1.794 -0.874 -3.773 -1.347 -5.82 -1.347 c -7.337 0 -13.307 5.97 -13.307 13.307 c 0 1.104 0.896 2 2 2 h 45.761 c 1.104 0 2 -0.896 2 -2 C 69.881 80.663 63.911 74.693 56.573 74.693 z"
                          style="
                      stroke: none;
                      stroke-width: 1;
                      stroke-dasharray: none;
                      stroke-linecap: butt;
                      stroke-linejoin: miter;
                      stroke-miterlimit: 10;
                      fill: #828f9a;
                      fill-rule: nonzero;
                      opacity: 1;
                    "
                          transform=" matrix(1 0 0 1 0 0) "
                          stroke-linecap="round"
                  />
        <path
                d="M 72.157 50.709 l -3.013 -12.493 c -0.267 -1.105 -0.822 -2.125 -1.607 -2.952 l -5.1 -5.354 c -0.61 -4.304 -1.752 -8.797 -3.345 -12.985 c -0.005 -0.015 -0.006 -0.03 -0.011 -0.045 c -2.007 -5.263 -6.42 -14.441 -13.436 -16.777 c -0.41 -0.137 -0.854 -0.137 -1.264 0 C 37.366 2.439 32.952 11.617 30.946 16.88 c -0.005 0.012 -0.005 0.025 -0.009 0.038 c -1.591 4.18 -2.732 8.664 -3.344 12.961 l -5.131 5.387 c -0.784 0.824 -1.34 1.844 -1.607 2.951 L 17.842 50.71 c -0.361 1.5 0.06 3.061 1.127 4.176 c 0.862 0.899 2.033 1.392 3.25 1.392 c 0.29 0 0.582 -0.028 0.873 -0.085 l 8.811 -1.722 l 3.245 4.943 c 0.37 0.563 0.998 0.902 1.672 0.902 h 16.388 c 0.674 0 1.303 -0.339 1.672 -0.902 l 3.242 -4.939 l 8.788 1.717 c 0.292 0.057 0.584 0.085 0.873 0.085 c 1.217 0 2.388 -0.492 3.25 -1.393 C 72.098 53.771 72.519 52.209 72.157 50.709 z M 45.013 37.28 c -3.308 0 -6 -2.692 -6 -6 c 0 -3.308 2.692 -6 6 -6 c 3.308 0 6 2.692 6 6 C 51.013 34.589 48.321 37.28 45.013 37.28 z"
                style="
                      stroke: none;
                      stroke-width: 1;
                      stroke-dasharray: none;
                      stroke-linecap: butt;
                      stroke-linejoin: miter;
                      stroke-miterlimit: 10;
                      fill: #828f9a;
                      fill-rule: nonzero;
                      opacity: 1;
                    "
                transform=" matrix(1 0 0 1 0 0) "
                stroke-linecap="round"
        />
                </g>
              </svg>