<svg fill="#828f9a"
     height="25px"
     width="25px" version="1.1" viewBox="0 0 700 700" xmlns="http://www.w3.org/2000/svg"
     xmlns:xlink="http://www.w3.org/1999/xlink">

    <g>
        <path d="m350 18.18c-69.594 0.085937-136.31 27.77-185.52 76.98-49.207 49.207-76.891 115.93-76.977 185.52 14.445 348.24 510.61 348.14 525 0-0.085938-69.594-27.77-136.31-76.98-185.52-49.207-49.207-115.93-76.891-185.52-76.977zm0 507.5c-64.957-0.070313-127.23-25.906-173.16-71.836-45.93-45.934-71.766-108.21-71.836-173.16 13.449-325.03 476.6-324.93 490 0.003906-0.070312 64.953-25.906 127.23-71.84 173.16-45.93 45.93-108.2 71.766-173.16 71.836z"/>
        <path d="m491.93 114.52c-188.86-156.88-451.03 62.59-331.01 275.89 82.031 145.08 298.85 143.93 379.05-1.5742h-0.003906c18.766-32.957 28.633-70.227 28.633-108.15 0-37.922-9.8672-75.195-28.633-108.15 0.003906-0.18359-0.097657-0.35547-0.26172-0.4375-0.12109-0.58203-0.28906-0.98828-0.61328-1.1367-12.305-21.422-28.27-40.523-47.16-56.438zm-64.926-19.773v-0.003906c16.227 6.75 31.496 15.605 45.41 26.34l-56.176 67.113 0.003906-0.003906c-6.0586-4.293-12.504-8.0117-19.25-11.109zm-85.75-15.055v87.676c-7.4102 0.44141-14.746 1.7031-21.875 3.7617l-29.926-82.336c16.777-5.3633 34.203-8.4219 51.801-9.1016zm-127.14 52.676 56.352 67.113h-0.003906c-5.2656 5.1758-10.039 10.828-14.262 16.887l-75.863-43.836h0.003906c9.4805-14.785 20.832-28.285 33.773-40.164zm-63.613 174.56c-2.3203-17.422-2.3203-35.078 0-52.5l86.363 15.137c-0.83203 7.3867-0.83203 14.84 0 22.227zm63.613 122.06c-12.941-11.879-24.293-25.379-33.777-40.164l75.863-43.836c4.2227 6.0586 8.9961 11.711 14.262 16.887zm127.14 52.676c-17.598-0.67969-35.023-3.7383-51.801-9.1016l29.926-82.336c7.1367 2.0469 14.469 3.3359 21.875 3.8477zm41.648-110.51c-29.531 10.754-62.453 6.4141-88.195-11.625-25.738-18.035-41.051-47.504-41.02-78.934 0.03125-31.43 15.402-60.867 41.176-78.855 25.773-17.984 58.703-22.262 88.219-11.449 83.812 30.477 83.633 150.54-0.17969 180.86zm44.102 95.461-30.012-82.336c6.7461-3.1016 13.191-6.8203 19.25-11.113l56.176 67.113c-13.918 10.73-29.188 19.586-45.414 26.336zm101.41-93.012-75.773-43.836-0.003906-0.003906c3.1953-6.6406 5.7148-13.59 7.5273-20.734l86.273 15.137c-3.7266 17.223-9.7891 33.855-18.023 49.438zm18.023-136.41-86.273 15.137c-1.8125-7.1445-4.332-14.094-7.5273-20.734l75.773-43.836v-0.003906c8.2383 15.582 14.301 32.215 18.027 49.438z"/>
        <path d="m405.65 299.23c-3.832-3.832-8.7578-6.3867-14.098-7.3125-5.3438-0.92188-10.84-0.17188-15.738 2.1484l-13.387-13.387 13.477-13.477h-0.003906c7.5391 3.5234 16.297 3.2617 23.613-0.69922 7.3125-3.9609 12.316-11.156 13.484-19.391 1.1719-8.2383-1.6328-16.539-7.5586-22.379-5.9219-5.8398-14.262-8.5273-22.48-7.2422-8.2188 1.2812-15.344 6.3867-19.203 13.758-3.8555 7.3672-3.9922 16.133-0.36719 23.617l-13.387 13.387-13.387-13.387c3.625-7.4844 3.4883-16.25-0.36719-23.617-3.8594-7.3711-10.984-12.477-19.203-13.762-8.2188-1.2852-16.559 1.4023-22.484 7.2461-5.9219 5.8398-8.7266 14.141-7.5586 22.379 1.1719 8.2344 6.1758 15.43 13.488 19.391 7.3164 3.9609 16.074 4.2227 23.613 0.69922l13.477 13.477-13.387 13.387h-0.003906c-7.5195-3.582-16.293-3.3867-23.645 0.52734-7.3516 3.9141-12.414 11.082-13.645 19.32-1.2305 8.2383 1.5195 16.57 7.4062 22.461 5.8906 5.8867 14.223 8.6367 22.461 7.4062 8.2383-1.2266 15.406-6.2891 19.32-13.645 3.9141-7.3516 4.1094-16.125 0.52734-23.645l13.387-13.387 13.387 13.387c-2.7656 5.8164-3.293 12.445-1.4883 18.629 1.8086 6.1797 5.8242 11.48 11.289 14.891 5.4609 3.4102 11.988 4.6914 18.336 3.6016 6.3438-1.0898 12.07-4.4766 16.078-9.5156 4.0117-5.0391 6.0312-11.375 5.668-17.805-0.35938-6.4297-3.0703-12.504-7.6211-17.062z"/>
        <use x="70" y="691.25" xlink:href="#p"/>
        <use x="102.109375" y="691.25" xlink:href="#j"/>
        <use x="123.683594" y="691.25" xlink:href="#b"/>
        <use x="153.355469" y="691.25" xlink:href="#i"/>
        <use x="182.878906" y="691.25" xlink:href="#h"/>
        <use x="203.792969" y="691.25" xlink:href="#b"/>
        <use x="233.464844" y="691.25" xlink:href="#g"/>
        <use x="280.011719" y="691.25" xlink:href="#f"/>
        <use x="311.328125" y="691.25" xlink:href="#e"/>
        <use x="355.078125" y="691.25" xlink:href="#a"/>
        <use x="382.957031" y="691.25" xlink:href="#o"/>
        <use x="418.484375" y="691.25" xlink:href="#n"/>
        <use x="448.328125" y="691.25" xlink:href="#m"/>
        <use x="478.210937" y="691.25" xlink:href="#d"/>
        <use x="509.722656" y="691.25" xlink:href="#l"/>
        <use x="545.632812" y="691.25" xlink:href="#c"/>
        <use x="579.492188" y="691.25" xlink:href="#k"/>
        <use x="616.105469" y="691.25" xlink:href="#d"/>
        <use x="647.617188" y="691.25" xlink:href="#c"/>
        <use x="681.476562" y="691.25" xlink:href="#a"/>
    </g>
</svg>
