<svg fill="#828f9a"
     height="25px"
     width="25px" version="1.1" viewBox="0 0 700 700" xmlns="http://www.w3.org/2000/svg"
     xmlns:xlink="http://www.w3.org/1999/xlink">
    <g>
        <path d="m530.32 167.44c29.121 38.078 46.48 85.68 46.48 137.76 0 125.44-101.36 226.8-226.8 226.8s-226.8-101.36-226.8-226.8c0-118.72 91.281-216.72 207.76-226.24v-13.441h-31.359c-10.641 0-19.039-8.3984-19.039-19.039-0.003906-10.641 8.3984-18.48 19.039-18.48h100.8c10.641 0 19.039 8.3984 19.039 19.039 0 10.641-8.3984 19.039-19.039 19.039h-31.359v13.441c34.719 2.8008 67.762 13.441 96.32 30.238l7.8398-9.5195c8.9609-10.641 24.641-11.762 34.719-3.3594l28.559 24.078c10.641 8.9609 11.762 24.641 2.8008 35.281zm-180.32-63.84c-111.44 0-201.6 90.16-201.6 201.6s90.16 201.6 201.6 201.6 201.6-90.16 201.6-201.6-90.16-201.6-201.6-201.6zm0 378c-97.441 0-176.4-78.961-176.4-176.4 0-97.441 78.957-176.4 176.4-176.4s176.4 78.961 176.4 176.4c0 97.441-78.957 176.4-176.4 176.4zm84.559-260.96c-5.0391-5.0391-12.879-5.0391-17.922 0l-45.922 45.922c-6.1602-3.3594-13.441-5.0391-20.719-5.0391-24.641 0-44.238 19.602-44.238 44.238 0 24.641 19.602 44.238 44.238 44.238 24.641 0 44.238-19.602 44.238-44.238 0-7.8398-1.6797-14.559-5.6016-21.281l45.359-45.359c5.6094-5.6016 5.6094-13.441 0.56641-18.48z"
              fill-rule="evenodd"/>
        <use x="70" y="644" xlink:href="#v"/>
        <use x="90.546875" y="644" xlink:href="#d"/>
        <use x="104.355469" y="644" xlink:href="#b"/>
        <use x="123.347656" y="644" xlink:href="#j"/>
        <use x="142.242188" y="644" xlink:href="#a"/>
        <use x="155.625" y="644" xlink:href="#b"/>
        <use x="174.617188" y="644" xlink:href="#i"/>
        <use x="204.40625" y="644" xlink:href="#h"/>
        <use x="224.449219" y="644" xlink:href="#g"/>
        <use x="252.449219" y="644" xlink:href="#f"/>
        <use x="274.011719" y="644" xlink:href="#c"/>
        <use x="293.25" y="644" xlink:href="#e"/>
        <use x="313.179688" y="644" xlink:href="#u"/>
        <use x="322.78125" y="644" xlink:href="#a"/>
        <use x="336.164062" y="644" xlink:href="#e"/>
        <use x="365.84375" y="644" xlink:href="#t"/>
        <use x="403.457031" y="644" xlink:href="#s"/>
        <use x="70" y="672" xlink:href="#r"/>
        <use x="82.183594" y="672" xlink:href="#d"/>
        <use x="95.992188" y="672" xlink:href="#c"/>
        <use x="115.226562" y="672" xlink:href="#q"/>
        <use x="154.152344" y="672" xlink:href="#a"/>
        <use x="167.535156" y="672" xlink:href="#e"/>
        <use x="187.46875" y="672" xlink:href="#b"/>
        <use x="216.207031" y="672" xlink:href="#p"/>
        <use x="239.640625" y="672" xlink:href="#c"/>
        <use x="258.878906" y="672" xlink:href="#o"/>
        <use x="278.8125" y="672" xlink:href="#n"/>
        <use x="308.492188" y="672" xlink:href="#m"/>
        <use x="329.015625" y="672" xlink:href="#d"/>
        <use x="342.820312" y="672" xlink:href="#c"/>
        <use x="362.058594" y="672" xlink:href="#l"/>
        <use x="371.65625" y="672" xlink:href="#b"/>
        <use x="390.648438" y="672" xlink:href="#k"/>
        <use x="407.242188" y="672" xlink:href="#a"/>
    </g>
</svg>
