<svg xmlns="http://www.w3.org/2000/svg" viewBox="0 0 1000 1000" xml:space="preserve"><path d="M649.21 180.14c-2.3 8.24-5.17 15.91-6.52 17.06-1.15 1.15-7.67 3.64-14.57 5.56-19.17 5.18-19.36 5.75-1.15 10.73l16.67 4.6 5.18 17.25 5.38 17.06 4.41-15.14c2.49-8.43 5.17-16.29 6.13-17.25.96-1.15 9.01-4.22 17.63-6.9l15.72-4.98-14.38-4.22c-7.86-2.3-15.53-4.79-17.06-5.56-1.53-.77-4.79-8.24-7.09-16.68-2.49-8.24-4.79-15.33-5.18-15.72-.37-.37-2.67 6.14-5.17 14.19z"/><path d="M200.71 342.68V454.8h104.46l3.83-6.71c4.79-9.01 28.94-31.82 43.51-41.21 32.97-21.46 57.69-22.04 117.69-2.87 37.57 11.88 58.08 16.48 80.12 18.02l18.78 1.15-32.4 24.34c-69.58 51.75-121.52 95.45-154.48 129.76-69.38 72.26-100.24 139.34-96.6 209.88.77 12.84 2.49 28.37 3.83 34.69l2.49 11.5 178.83.57c142.99.38 178.63 0 177.87-1.92-18.97-43.32-27.98-88.17-28.17-138.96-.19-123.82 57.12-242.84 170.78-355.35l30.09-29.71-29.52-32.97c-16.29-18.21-30.09-32.97-30.67-32.97s-4.79 3.07-9.01 6.9c-11.12 9.58-35.46 20.89-55.97 26.07-14.95 3.83-22.04 4.41-53.67 4.22-48.11 0-62.87-2.88-146.63-27.22-78.39-23-112.7-24.73-154.29-8.24-8.05 3.26-16.68 5.94-18.98 5.94-5.75 0-12.65-7.67-12.65-13.99v-5.18H200.69v112.14zm201.44-72.64c4.6 5.56-.38 9.2-14.95 11.5-7.28.96-18.59 4.03-25.11 6.32-12.65 4.79-17.63 3.64-17.63-3.64 0-4.98 4.02-7.48 19.55-12.65 16.68-5.37 34.31-6.13 38.14-1.53zM424 793.1v5.75l-50.03.57c-53.67.57-56.35 0-53.48-9.2 1.15-3.83 2.11-3.83 52.32-3.45l51.18.57v5.76zM32.04 398.26v79.54h37.18c35.27 0 37.38-.19 38.53-3.64 1.92-6.13 28.18-29.52 39.68-35.27 5.94-3.07 15.33-5.94 21.47-6.52l10.73-1.15V320.06l-15.91.96c-10.73.77-19.74 2.68-28.37 6.13-6.9 2.68-14.38 4.98-16.67 4.98-4.98 0-9.97-4.79-9.97-9.78 0-3.45-1.72-3.64-38.33-3.64H32.04v79.55z"/><path d="M943.62 330.03c-5.56 6.13-28.37 17.06-42.55 20.51-16.48 4.02-57.12 4.22-76.86.19l-13.99-2.68-17.63 18.4c-21.08 21.85-35.46 38.14-50.22 57.5l-10.92 14.18 16.87 5.37c18.59 6.13 41.21 10.92 54.05 11.69l8.43.57-30.47 23c-57.31 43.13-106.95 87.78-121.9 109.44-6.71 9.78-14.76 48.68-16.48 80.69-1.34 22.23.19 69 2.3 74.75.77 2.11 20.89 2.49 112.51 2.49 105.23 0 111.36-.19 110.02-3.45-6.13-15.53-12.84-39.1-15.53-54.05-4.22-24.92-2.88-78.01 2.88-102.16 15.91-68.43 53.67-131.29 115.77-192.82l20.1-19.92-21.28-23.77c-11.69-12.84-21.28-23.57-21.47-23.57s-1.91 1.72-3.63 3.64zm-556.03 83.18c-25.11 8.43-54.82 32.78-64.02 52.71l-4.6 9.97h-54.82l-28.94 22.81c-67.66 53.29-102.93 90.66-124.2 132.06-17.44 34.12-23 67.27-16.87 101.97l2.11 12.46 84.72.58 84.72.38 2.11-10.93c7.28-36.99 24.53-75.9 49.07-110.98 13.42-19.17 14.95-22.23 18.02-37.18 10.35-49.64 39.68-106.57 79.35-154.29 10.93-13.03 13.8-17.44 11.88-18.59-5.37-3.08-30.67-3.46-38.53-.97zM49.48 518.05c-5.75 19.74-5.56 19.17-8.24 20.13-1.34.38-9.01 2.68-16.87 4.98L10 547.57l16.1 4.98c9.01 2.88 16.87 6.33 17.83 7.86.77 1.53 3.45 9.2 5.75 17.06l4.22 14.38 4.79-15.72c2.68-8.63 5.75-16.48 6.52-17.25.96-.77 8.63-3.64 17.25-6.33l15.72-4.98-15.33-4.41c-8.43-2.49-16.1-5.17-17.25-6.13-.96-.96-4.22-9.01-6.9-17.63l-5-15.72-4.22 14.37z"/><path d="m934.8 595.49-4.6 16.1-17.25 5.17-17.44 5.37 17.25 4.98 17.25 5.17 4.98 17.25 4.98 17.06 5.37-17.25 5.18-17.44 16.29-4.41c8.82-2.49 15.53-5.17 14.57-5.94-.77-.77-7.28-2.88-14.18-4.79-7.09-1.73-13.8-3.83-14.95-4.6-1.15-.77-4.02-7.86-6.32-15.72-2.3-7.67-4.6-14.95-5.37-15.72-.78-.76-3.27 5.76-5.76 14.77z"/></svg>