<svg fill="#828f9a" height="25" width="25" viewBox="0 0 700 700" xmlns="http://www.w3.org/2000/svg" xmlns:xlink="http://www.w3.org/1999/xlink"><path d="m344.16 42.168-24.207 13.691h58.137l-3.375-5.754c-8.727-12.504-18.848-12.898-30.555-7.937zm-33.336 25c-12.301 0-22.422 9.922-22.422 22.422v358.55c0 12.301 10.121 22.223 22.422 22.223h257.55c12.5 0 22.422-9.922 22.422-22.223V89.59c0-12.5-9.922-22.422-22.422-22.422zm-31.945 12.305-158.34 90.68c-10.914 6.152-14.484 19.844-8.332 30.559l179.57 308.95c6.152 10.715 20.039 14.285 30.758 8.137l62.902-36.113h-74.609c-18.453 0-33.535-15.277-33.535-33.535V220.56c-5.555 11.113-17.262 21.43-28.375 23.812 5.953 10.516 8.93 15.875 20.039 23.414l-20.637 12.3c-.793-13.69-3.77-19.046-9.723-29.765-12.5 14.484-44.645 19.246-53.574 3.375-14.883-26.391 7.145-60.72 13.691-85.72 24.008 6.548 62.703 4.368 78.578 28.774V89.6c0-3.57.594-6.946 1.586-10.121zm115.68 113.7c19.246 0 30.16 11.906 46.035 17.66 14.285-5.953 25-17.66 44.445-17.66 25.797 0 38.691 18.852 38.496 44.25-1.59 27.379-55.559 75.594-83.539 106.95-28.176-31.352-83.934-76.195-84.328-106.95 0-25.398 12.898-44.25 38.891-44.25z"/><use x="70" y="644" xlink:href="#t"/><use x="90.551" y="644" xlink:href="#c"/><use x="104.359" y="644" xlink:href="#a"/><use x="123.348" y="644" xlink:href="#j"/><use x="142.242" y="644" xlink:href="#b"/><use x="155.629" y="644" xlink:href="#a"/><use x="174.617" y="644" xlink:href="#f"/><use x="204.41" y="644" xlink:href="#i"/><use x="224.453" y="644" xlink:href="#e"/><use x="252.453" y="644" xlink:href="#h"/><use x="268.75" y="644" xlink:href="#s"/><use x="278.344" y="644" xlink:href="#f"/><use x="298.391" y="644" xlink:href="#g"/><use x="318.32" y="644" xlink:href="#a"/><use x="337.313" y="644" xlink:href="#e"/><use x="70" y="672" xlink:href="#r"/><use x="82.184" y="672" xlink:href="#c"/><use x="95.992" y="672" xlink:href="#d"/><use x="115.227" y="672" xlink:href="#q"/><use x="154.152" y="672" xlink:href="#b"/><use x="167.535" y="672" xlink:href="#p"/><use x="187.469" y="672" xlink:href="#a"/><use x="216.207" y="672" xlink:href="#o"/><use x="239.641" y="672" xlink:href="#d"/><use x="258.879" y="672" xlink:href="#n"/><use x="278.813" y="672" xlink:href="#g"/><use x="308.492" y="672" xlink:href="#m"/><use x="329.016" y="672" xlink:href="#c"/><use x="342.82" y="672" xlink:href="#d"/><use x="362.059" y="672" xlink:href="#l"/><use x="371.656" y="672" xlink:href="#a"/><use x="390.648" y="672" xlink:href="#k"/><use x="407.242" y="672" xlink:href="#b"/></svg>