<svg width="700pt" height="700pt" viewBox="0 0 700 700" xmlns="http://www.w3.org/2000/svg" xmlns:xlink="http://www.w3.org/1999/xlink"><defs><symbol id="a" overflow="visible"><path d="M5.625-.344A3.342 3.342 0 0 1 4.719 0c-.313.082-.64.125-.985.125-1.023 0-1.828-.285-2.422-.86-.593-.57-.89-1.347-.89-2.327 0-.977.297-1.75.89-2.313.594-.57 1.399-.86 2.422-.86.344 0 .672.04.985.11.32.074.625.188.906.344v1.265c-.293-.195-.578-.343-.86-.437s-.585-.14-.906-.14c-.562 0-1.007.183-1.328.546-.324.356-.484.852-.484 1.485 0 .636.16 1.136.484 1.5.32.355.766.53 1.328.53.32 0 .625-.046.907-.14s.566-.238.859-.437z"/></symbol><symbol id="b" overflow="visible"><path d="M4.125-3.344a1.67 1.67 0 0 0-.39-.125 1.541 1.541 0 0 0-.376-.047c-.386 0-.683.121-.89.36-.2.242-.297.586-.297 1.03V0H.703v-4.594h1.469v.75c.187-.3.398-.52.64-.656.25-.133.547-.203.891-.203h.156c.063 0 .145.011.25.031z"/></symbol><symbol id="c" overflow="visible"><path d="M5.297-2.313v.422H1.859c.032.344.149.606.36.782.219.168.52.25.906.25.313 0 .629-.047.953-.141a5.49 5.49 0 0 0 1-.406v1.125a5.38 5.38 0 0 1-1.047.297 5.14 5.14 0 0 1-1.03.109c-.837 0-1.485-.21-1.954-.64C.586-.942.359-1.536.359-2.298c0-.75.223-1.336.672-1.765.457-.426 1.082-.641 1.875-.641.727 0 1.305.219 1.735.656.437.43.656 1.008.656 1.735zM3.78-2.796c0-.281-.086-.504-.25-.672a.8.8 0 0 0-.625-.265c-.293 0-.527.086-.703.25-.18.156-.289.386-.328.687z"/></symbol><symbol id="d" overflow="visible"><path d="M2.766-2.063c-.305 0-.532.055-.688.157a.515.515 0 0 0-.234.453c0 .187.062.336.187.437.125.106.297.157.516.157a.924.924 0 0 0 .703-.297c.187-.196.281-.446.281-.75v-.157zm2.25-.562V0H3.53v-.688c-.199.282-.422.493-.672.625-.242.126-.539.188-.89.188-.48 0-.871-.14-1.172-.422C.504-.578.359-.937.359-1.375c0-.539.18-.937.547-1.187.375-.25.957-.375 1.75-.375h.875v-.125a.534.534 0 0 0-.281-.5c-.18-.114-.465-.172-.86-.172-.312 0-.605.03-.874.093a2.865 2.865 0 0 0-.75.282v-1.11a6.16 6.16 0 0 1 .937-.172c.32-.039.64-.062.953-.062.832 0 1.43.164 1.797.484.375.324.563.856.563 1.594z"/></symbol><symbol id="e" overflow="visible"><path d="M2.313-5.906v1.312h1.515v1.047H2.313v1.953c0 .211.039.356.124.438.083.074.25.11.5.11h.766V0H2.438c-.586 0-.997-.117-1.235-.36-.242-.238-.36-.648-.36-1.234v-1.953H.11v-1.047h.735v-1.312z"/></symbol><symbol id="f" overflow="visible"><path d="M3.828-3.922V-6.39h1.485V0H3.827v-.671c-.2.273-.422.477-.672.61a1.815 1.815 0 0 1-.844.187c-.562 0-1.027-.223-1.39-.672-.367-.457-.547-1.04-.547-1.75 0-.707.18-1.285.547-1.734.363-.446.828-.672 1.39-.672.32 0 .602.062.844.187.25.125.473.324.672.594zM2.86-.953c.32 0 .563-.113.72-.344.163-.226.25-.562.25-1s-.087-.77-.25-1c-.157-.226-.4-.344-.72-.344-.312 0-.554.118-.718.344-.157.23-.235.563-.235 1s.078.774.235 1c.164.23.406.344.718.344z"/></symbol><symbol id="g" overflow="visible"><path d="M3.156-.953c.313 0 .551-.113.719-.344.164-.226.25-.562.25-1s-.086-.77-.25-1c-.168-.226-.406-.344-.719-.344s-.558.118-.734.344c-.168.23-.25.563-.25 1s.082.774.25 1c.176.23.422.344.734.344zm-.984-2.969c.207-.27.43-.469.672-.594.25-.125.535-.187.86-.187.562 0 1.022.226 1.39.672.363.449.547 1.027.547 1.734 0 .711-.184 1.293-.547 1.75-.368.45-.828.672-1.39.672-.325 0-.61-.063-.86-.188a2.164 2.164 0 0 1-.672-.609V0H.703v-6.39h1.469z"/></symbol><symbol id="h" overflow="visible"><path d="M.11-4.594h1.468l1.235 3.11 1.046-3.11h1.47L3.39.437c-.188.508-.414.864-.672 1.063-.262.207-.606.312-1.031.312H.844V.844h.453c.25 0 .43-.043.547-.125.113-.075.203-.215.266-.422l.046-.125z"/></symbol><symbol id="i" overflow="visible"><path d="M.766-6.125h1.593v3.672c0 .512.079.875.235 1.094.164.21.437.312.812.312.383 0 .657-.101.813-.312.164-.219.25-.582.25-1.094v-3.672h1.578v3.672c0 .867-.219 1.512-.656 1.937-.43.43-1.09.641-1.985.641-.886 0-1.547-.21-1.984-.64C.984-.942.766-1.586.766-2.454z"/></symbol><symbol id="j" overflow="visible"><path d="M.766-6.125H2.53l2.235 4.203v-4.203h1.5V0H4.5L2.266-4.203V0h-1.5z"/></symbol><symbol id="k" overflow="visible"><path d="M.766-6.125h1.593v2.234l2.266-2.234h1.844L3.516-3.219 6.766 0h-1.97L2.36-2.406V0H.766z"/></symbol><symbol id="l" overflow="visible"><path d="M3.578-5.094c-.492 0-.871.18-1.14.531-.262.356-.391.856-.391 1.5 0 .649.129 1.149.39 1.5.27.356.649.532 1.141.532.477 0 .848-.176 1.11-.532.269-.351.406-.851.406-1.5 0-.644-.137-1.144-.407-1.5-.261-.351-.632-.53-1.109-.53zm0-1.14c.977 0 1.742.28 2.297.843.563.563.844 1.34.844 2.328 0 .993-.282 1.774-.844 2.344-.555.563-1.32.844-2.297.844-.992 0-1.765-.281-2.328-.844C.695-1.289.422-2.07.422-3.063c0-.988.273-1.765.828-2.328.563-.562 1.336-.843 2.328-.843z"/></symbol><symbol id="m" overflow="visible"><path d="M.25-6.125h1.516l1.062 4.453 1.047-4.453h1.516l1.062 4.453L7.5-6.125h1.516L7.562 0H5.75L4.625-4.656 3.531 0H1.703z"/></symbol><symbol id="n" overflow="visible"><path d="M3.734-6.39v.968h-.812c-.211 0-.356.04-.438.11-.086.074-.125.203-.125.39v.328h1.25v1.047H2.36V0H.891v-3.547H.156v-1.047h.735v-.328c0-.5.14-.867.421-1.11.282-.238.711-.359 1.297-.359z"/></symbol><symbol id="o" overflow="visible"><path d="M2.89-3.656c-.324 0-.574.12-.75.36-.167.23-.25.562-.25 1s.083.777.25 1.015c.176.23.426.344.75.344.32 0 .567-.114.735-.344.176-.239.266-.578.266-1.016s-.09-.77-.266-1c-.168-.238-.414-.36-.734-.36zm0-1.047c.79 0 1.407.215 1.844.64.446.43.672 1.016.672 1.766 0 .762-.226 1.356-.672 1.781-.437.43-1.054.64-1.843.64-.793 0-1.414-.21-1.86-.64C.582-.94.36-1.536.36-2.296c0-.75.223-1.337.672-1.766.446-.426 1.067-.641 1.86-.641z"/></symbol><symbol id="p" overflow="visible"><path d="M4.969-3.828c.187-.29.406-.508.656-.656.258-.145.54-.22.844-.22.531 0 .93.165 1.203.485.281.325.422.797.422 1.422V0H6.609v-2.39a.613.613 0 0 0 .016-.11v-.172c0-.32-.047-.554-.14-.703-.094-.144-.25-.219-.47-.219-.28 0-.5.118-.656.344-.148.23-.218.563-.218 1V0H3.656v-2.39c0-.508-.047-.836-.14-.985-.086-.144-.235-.219-.454-.219-.28 0-.5.118-.656.344-.156.23-.234.559-.234.984V0H.703v-4.594h1.469v.672c.187-.258.394-.453.625-.578.226-.133.488-.203.781-.203.313 0 .586.078.828.234.25.149.438.36.563.64z"/></symbol><symbol id="q" overflow="visible"><path d="M5.328-2.797V0H3.844v-2.14c0-.395-.012-.665-.032-.813a.91.91 0 0 0-.078-.344.678.678 0 0 0-.25-.219.68.68 0 0 0-.328-.078.846.846 0 0 0-.719.36c-.18.23-.265.554-.265.968V0H.703v-6.39h1.469v2.468c.226-.27.46-.469.703-.594.25-.125.523-.187.828-.187.531 0 .93.164 1.203.484.281.325.422.797.422 1.422z"/></symbol><symbol id="r" overflow="visible"><path d="M.656-1.797v-2.797h1.485v.453c0 .25-.008.563-.016.938v.75c0 .375.008.648.031.812a.92.92 0 0 0 .094.344.66.66 0 0 0 .234.219.718.718 0 0 0 .344.078c.3 0 .54-.113.719-.344.176-.238.266-.566.266-.984v-2.266H5.28V0H3.813v-.672a2.294 2.294 0 0 1-.704.61 1.83 1.83 0 0 1-.828.187c-.531 0-.937-.16-1.219-.484C.79-.691.656-1.172.656-1.797z"/></symbol><symbol id="s" overflow="visible"><path d="M5.328-2.797V0H3.844v-2.14c0-.395-.012-.665-.032-.813a.91.91 0 0 0-.078-.344.678.678 0 0 0-.25-.219.68.68 0 0 0-.328-.078.846.846 0 0 0-.719.36c-.18.23-.265.554-.265.968V0H.703v-4.594h1.469v.672c.226-.27.46-.469.703-.594.25-.125.523-.187.828-.187.531 0 .93.164 1.203.484.281.324.422.797.422 1.422z"/></symbol><symbol id="t" overflow="visible"><path d="M.766-6.125H3.39c.78 0 1.379.172 1.797.516.414.343.625.84.625 1.484 0 .637-.211 1.133-.625 1.484-.418.344-1.016.516-1.797.516H2.359V0H.766zm1.593 1.14v1.72h.86c.312 0 .55-.07.719-.22.164-.156.25-.367.25-.64 0-.281-.086-.492-.25-.64-.168-.145-.407-.22-.72-.22z"/></symbol><symbol id="u" overflow="visible"><path d="M.703-4.594h1.469v4.516c0 .613-.152 1.082-.453 1.406-.293.32-.715.484-1.266.484H-.28V.844h.25C.25.844.44.78.547.656.648.531.703.285.703-.078zm0-1.797h1.469v1.203H.703z"/></symbol><symbol id="v" overflow="visible"><path d="M4.422-4.453v1.203a2.31 2.31 0 0 0-.61-.297 1.866 1.866 0 0 0-.624-.11c-.407 0-.727.122-.954.36-.23.242-.343.574-.343 1 0 .43.113.762.343 1 .227.242.547.36.954.36.226 0 .445-.032.656-.094a2.02 2.02 0 0 0 .578-.313V-.14c-.23.086-.465.145-.703.188a3.43 3.43 0 0 1-.703.078c-.836 0-1.485-.211-1.953-.64C.593-.94.359-1.534.359-2.296c0-.758.235-1.348.704-1.765.468-.426 1.117-.641 1.953-.641a4.201 4.201 0 0 1 1.406.25z"/></symbol></defs><path d="M526.81 21.906c0 252.99-124.84 342.27-160.73 362.71v44c70.375 24.883 98.719 91.242 103.07 102.45a16.237 16.237 0 0 1 1.613 7.04c0 8.87-7.191 16.077-16.078 16.077h-209.38v-.066c-1.797 0-3.613-.301-5.394-.942-8.317-2.992-12.652-12.148-9.676-20.48.086-.234 26.812-76.91 103.69-104.08v-44c-35.887-20.445-160.73-109.72-160.73-362.71 0-8.87 7.191-16.078 16.078-16.078h321.47c8.871 0 16.078 7.192 16.078 16.078zm30.441 50.887h51.023c8.887 0 16.078 7.191 16.078 16.078 0 .637-.035 1.262-.117 1.883-.656 17.168-10.516 185.95-144.55 228.11a344.723 344.723 0 0 0 7.39-11.223c44.285-70.09 64.547-152.48 70.176-234.85zm-465.52 0h51.023c5.629 82.371 25.891 164.76 70.176 234.85a353.406 353.406 0 0 0 7.39 11.223C86.29 276.698 76.43 107.926 75.77 90.756a17.588 17.588 0 0 1-.117-1.883c0-8.87 7.192-16.078 16.078-16.078z" fill-rule="evenodd"/><use x="70" y="585.199" xlink:href="#a"/><use x="76.164" y="585.199" xlink:href="#b"/><use x="80.309" y="585.199" xlink:href="#c"/><use x="86.004" y="585.199" xlink:href="#d"/><use x="91.672" y="585.199" xlink:href="#e"/><use x="95.688" y="585.199" xlink:href="#c"/><use x="101.387" y="585.199" xlink:href="#f"/><use x="110.324" y="585.199" xlink:href="#g"/><use x="116.336" y="585.199" xlink:href="#h"/><use x="124.734" y="585.199" xlink:href="#i"/><use x="131.559" y="585.199" xlink:href="#j"/><use x="138.586" y="585.199" xlink:href="#k"/><use x="145.098" y="585.199" xlink:href="#j"/><use x="152.125" y="585.199" xlink:href="#l"/><use x="159.266" y="585.199" xlink:href="#m"/><use x="168.531" y="585.199" xlink:href="#j"/><use x="70" y="593.602" xlink:href="#n"/><use x="73.656" y="593.602" xlink:href="#b"/><use x="77.797" y="593.602" xlink:href="#o"/><use x="83.566" y="593.602" xlink:href="#p"/><use x="95.246" y="593.602" xlink:href="#e"/><use x="99.262" y="593.602" xlink:href="#q"/><use x="105.242" y="593.602" xlink:href="#c"/><use x="113.863" y="593.602" xlink:href="#j"/><use x="120.895" y="593.602" xlink:href="#o"/><use x="126.664" y="593.602" xlink:href="#r"/><use x="132.645" y="593.602" xlink:href="#s"/><use x="141.547" y="593.602" xlink:href="#t"/><use x="147.703" y="593.602" xlink:href="#b"/><use x="151.848" y="593.602" xlink:href="#o"/><use x="157.617" y="593.602" xlink:href="#u"/><use x="160.496" y="593.602" xlink:href="#c"/><use x="166.195" y="593.602" xlink:href="#v"/><use x="171.176" y="593.602" xlink:href="#e"/></svg>