<svg xmlns="http://www.w3.org/2000/svg" width="25" height="25" viewBox="0 0 256 256" xml:space="preserve"><g style="stroke:none;stroke-width:0;stroke-dasharray:none;stroke-linecap:butt;stroke-linejoin:miter;stroke-miterlimit:10;fill:none;fill-rule:nonzero;opacity:1"><path d="M89.983 5.63c-.006-.267-.016-.534-.026-.802-.011-.299-.02-.597-.036-.897a56.15 56.15 0 0 0-.121-1.814A2.001 2.001 0 0 0 87.973.29a59.176 59.176 0 0 0-1.811-.121c-.305-.016-.607-.025-.909-.036-.262-.009-.525-.02-.786-.025-.437-.01-.871-.013-1.304-.013l-.217.001c-8.628.042-16.548 2.16-24.544 6.526-.141.078-.282.151-.423.228-.05.028-.099.052-.149.08-.011.006-.02.016-.031.022-6.556 3.654-13.101 8.811-19.875 15.585-.77.77-1.523 1.55-2.268 2.334l-13.164 1.001a2.002 2.002 0 0 0-1.06.402L.785 41.987a1.999 1.999 0 0 0 1.031 3.584l19.373 1.749 6.134 6.134c-2.174.497-4.389 1.715-6.286 3.611a13.858 13.858 0 0 0-2.716 3.803c-.873 1.849-2.79 6.61-4.82 11.651l-.991 2.459a1.998 1.998 0 0 0 2.604 2.602l2.547-1.027c5-2.014 9.723-3.917 11.576-4.79a13.867 13.867 0 0 0 3.79-2.711c1.896-1.896 3.113-4.111 3.61-6.285l5.952 5.952 1.749 19.372a2 2 0 0 0 3.584 1.031l15.711-20.646c.233-.307.373-.675.402-1.06l.971-12.775c.857-.811 1.706-1.635 2.547-2.475 6.779-6.779 11.939-13.327 15.594-19.887l.014-.02.051-.095c.167-.301.326-.602.486-.904 4.207-7.847 6.251-15.635 6.295-24.099l.001-.248c.002-.425-.001-.853-.011-1.283zm-25.57 31.863a8.3 8.3 0 0 1-5.907 2.447 8.3 8.3 0 0 1-5.907-2.447c-3.257-3.258-3.257-8.557 0-11.815 3.259-3.257 8.559-3.255 11.814 0 1.578 1.577 2.448 3.675 2.448 5.907s-.869 4.33-2.448 5.908z" style="stroke:none;stroke-width:1;stroke-dasharray:none;stroke-linecap:butt;stroke-linejoin:miter;stroke-miterlimit:10;fill:#828f9a;fill-rule:nonzero;opacity:1" transform="matrix(2.81 0 0 2.81 1.407 1.407)"/></g></svg>