<svg xmlns="http://www.w3.org/2000/svg" width="25" height="25" viewBox="0 0 256 256" xml:space="preserve"><g style="stroke:none;stroke-width:0;stroke-dasharray:none;stroke-linecap:butt;stroke-linejoin:miter;stroke-miterlimit:10;fill:none;fill-rule:nonzero;opacity:1"><path d="M56.573 74.693c-2.046 0-4.025.473-5.819 1.347v-9.75a2 2 0 0 0-2-2h-7.507a2 2 0 0 0-2 2v9.75a13.263 13.263 0 0 0-5.82-1.347c-7.337 0-13.307 5.97-13.307 13.307a2 2 0 0 0 2 2h45.761a2 2 0 0 0 2-2c0-7.337-5.97-13.307-13.308-13.307zm15.584-23.984-3.013-12.493a6.516 6.516 0 0 0-1.607-2.952l-5.1-5.354a61.283 61.283 0 0 0-3.345-12.985c-.005-.015-.006-.03-.011-.045-2.007-5.263-6.42-14.441-13.436-16.777a1.995 1.995 0 0 0-1.264 0C37.366 2.439 32.952 11.617 30.946 16.88c-.005.012-.005.025-.009.038a61.298 61.298 0 0 0-3.344 12.961l-5.131 5.387a6.496 6.496 0 0 0-1.607 2.951L17.842 50.71a4.494 4.494 0 0 0 1.127 4.176 4.494 4.494 0 0 0 4.123 1.307l8.811-1.722 3.245 4.943a2 2 0 0 0 1.672.902h16.388c.674 0 1.303-.339 1.672-.902l3.242-4.939 8.788 1.717a4.487 4.487 0 0 0 4.123-1.308 4.492 4.492 0 0 0 1.124-4.175zM45.013 37.28c-3.308 0-6-2.692-6-6s2.692-6 6-6 6 2.692 6 6c0 3.309-2.692 6-6 6z" style="stroke:none;stroke-width:1;stroke-dasharray:none;stroke-linecap:butt;stroke-linejoin:miter;stroke-miterlimit:10;fill:#828f9a;fill-rule:nonzero;opacity:1" transform="matrix(2.81 0 0 2.81 1.407 1.407)"/></g></svg>