<svg fill="#828f9a" height="25" width="25" viewBox="0 0 700 700" xmlns="http://www.w3.org/2000/svg" xmlns:xlink="http://www.w3.org/1999/xlink"><path d="M350 18.18a262.821 262.821 0 0 0-262.497 262.5c14.445 348.24 510.61 348.14 525 0a262.821 262.821 0 0 0-262.5-262.497zm0 507.5a245.259 245.259 0 0 1-173.16-71.836 245.277 245.277 0 0 1-71.836-173.16c13.449-325.03 476.6-324.93 490 .004a245.253 245.253 0 0 1-71.84 173.16 245.252 245.252 0 0 1-173.16 71.836z"/><path d="M491.93 114.52C303.07-42.36 40.9 177.11 160.92 390.41c82.031 145.08 298.85 143.93 379.05-1.574h-.004a218.564 218.564 0 0 0 0-216.3.478.478 0 0 0-.262-.438c-.12-.582-.289-.988-.613-1.136a211.658 211.658 0 0 0-47.16-56.438zm-64.926-19.773v-.004a200.234 200.234 0 0 1 45.41 26.34l-56.176 67.113.004-.004a119.644 119.644 0 0 0-19.25-11.109zm-85.75-15.055v87.676a100.355 100.355 0 0 0-21.875 3.762l-29.926-82.336a194.805 194.805 0 0 1 51.801-9.102zm-127.14 52.676 56.352 67.113h-.004a119.444 119.444 0 0 0-14.262 16.887l-75.863-43.836h.004a203.98 203.98 0 0 1 33.773-40.164zm-63.613 174.56a198.851 198.851 0 0 1 0-52.5l86.363 15.137a99.275 99.275 0 0 0 0 22.227zm63.613 122.06a204.12 204.12 0 0 1-33.777-40.164l75.863-43.836a119.438 119.438 0 0 0 14.262 16.887zm127.14 52.676a194.812 194.812 0 0 1-51.801-9.102l29.926-82.336a105.801 105.801 0 0 0 21.875 3.848zm41.648-110.51a96.276 96.276 0 1 1 .18-180.863c83.812 30.477 83.633 150.54-.18 180.86zm44.102 95.461-30.012-82.336a120.024 120.024 0 0 0 19.25-11.113l56.176 67.113a200.54 200.54 0 0 1-45.414 26.336zm101.41-93.012-75.773-43.836-.004-.004a110.488 110.488 0 0 0 7.527-20.734l86.273 15.137a193.332 193.332 0 0 1-18.023 49.438zm18.023-136.41-86.273 15.137a110.46 110.46 0 0 0-7.527-20.734l75.773-43.836v-.004a193.14 193.14 0 0 1 18.027 49.438z"/><path d="M405.65 299.23a26.292 26.292 0 0 0-14.098-7.313 26.311 26.311 0 0 0-15.738 2.149l-13.387-13.387 13.477-13.477h-.004a26.246 26.246 0 0 0 37.097-20.09 26.23 26.23 0 0 0-7.559-22.38 26.242 26.242 0 0 0-22.48-7.242 26.24 26.24 0 0 0-19.203 13.758 26.26 26.26 0 0 0-.367 23.617l-13.387 13.387-13.387-13.387a26.26 26.26 0 0 0-.367-23.617 26.255 26.255 0 0 0-19.203-13.762 26.253 26.253 0 0 0-30.043 29.625 26.248 26.248 0 0 0 37.101 20.09l13.478 13.478-13.387 13.387h-.004a26.273 26.273 0 0 0-23.645.527 26.284 26.284 0 0 0-6.239 41.781 26.284 26.284 0 0 0 41.78-6.239 26.273 26.273 0 0 0 .528-23.645L350 293.103l13.387 13.387a26.25 26.25 0 0 0-1.488 18.63 26.239 26.239 0 0 0 29.625 18.492 26.218 26.218 0 0 0 16.078-9.516 26.212 26.212 0 0 0 5.668-17.805 26.218 26.218 0 0 0-7.621-17.062z"/><use x="70" y="691.25" xlink:href="#p"/><use x="102.109" y="691.25" xlink:href="#j"/><use x="123.684" y="691.25" xlink:href="#b"/><use x="153.355" y="691.25" xlink:href="#i"/><use x="182.879" y="691.25" xlink:href="#h"/><use x="203.793" y="691.25" xlink:href="#b"/><use x="233.465" y="691.25" xlink:href="#g"/><use x="280.012" y="691.25" xlink:href="#f"/><use x="311.328" y="691.25" xlink:href="#e"/><use x="355.078" y="691.25" xlink:href="#a"/><use x="382.957" y="691.25" xlink:href="#o"/><use x="418.484" y="691.25" xlink:href="#n"/><use x="448.328" y="691.25" xlink:href="#m"/><use x="478.211" y="691.25" xlink:href="#d"/><use x="509.723" y="691.25" xlink:href="#l"/><use x="545.633" y="691.25" xlink:href="#c"/><use x="579.492" y="691.25" xlink:href="#k"/><use x="616.105" y="691.25" xlink:href="#d"/><use x="647.617" y="691.25" xlink:href="#c"/><use x="681.477" y="691.25" xlink:href="#a"/></svg>