<svg class="svg-icon" style="width:1em;height:1em;vertical-align:middle;fill:currentColor;overflow:hidden" viewBox="0 0 1024 1024" xmlns="http://www.w3.org/2000/svg"><path d="M633.736 441.759h-46.983l-22.519-22.519-29.13-29.18c107.432-.1 194.777-87.584 194.777-194.995C729.881 87.548 642.424.009 534.841.009c-107.516 0-195.015 87.54-195.015 195.056 0 107.436 87.367 194.824 194.759 194.955l-29.158 29.22-22.579 22.519h-46.881c-139.533 0-252.449 113.127-252.449 252.54v329.694h702.587V694.299c.02-139.388-113.026-252.54-252.37-252.54zm-49.65 375.969L534.84 867.12l-49.263-49.392 38.639-281.182-38.639-38.602 49.263-49.35 49.247 49.35-38.602 38.602 38.602 281.182zM381.392 195.065c0-84.762 68.88-153.511 153.45-153.511 84.681 0 153.477 68.75 153.477 153.51 0 84.707-68.796 153.477-153.478 153.477-84.547 0-153.449-68.77-153.449-153.476zm463.103 787.277h-98.076V682.919h-41.611v299.423h-343.91V682.919h-41.563v299.423h-94.253V694.299c.258-116.513 94.379-210.717 210.886-210.91h5.335l-14.557 14.555 29.412 29.353 24.042 24.02-35.804 260.82-2.858 20.468 14.62 14.666 49.292 49.181 29.411 29.482 29.398-29.482 49.246-49.18 14.576-14.667-2.793-20.445-35.894-260.823 24.047-24.016 29.395-29.351-14.514-14.581h5.414c116.336.193 210.586 94.397 210.758 210.91v288.043z"/></svg>