<svg fill="#828f9a" height="25" width="25" viewBox="0 0 700 700" xmlns="http://www.w3.org/2000/svg" xmlns:xlink="http://www.w3.org/1999/xlink"><path d="M530.32 167.44c29.121 38.078 46.48 85.68 46.48 137.76C576.8 430.64 475.44 532 350 532S123.2 430.64 123.2 305.2c0-118.72 91.281-216.72 207.76-226.24V65.519h-31.359c-10.641 0-19.039-8.398-19.039-19.039C280.558 35.839 288.96 28 299.601 28h100.8c10.641 0 19.039 8.398 19.039 19.039 0 10.641-8.398 19.039-19.039 19.039h-31.359v13.441c34.719 2.8 67.762 13.441 96.32 30.238l7.84-9.52c8.96-10.64 24.64-11.762 34.719-3.359l28.559 24.078c10.64 8.961 11.762 24.641 2.8 35.281zM350 103.6c-111.44 0-201.6 90.16-201.6 201.6S238.56 506.8 350 506.8s201.6-90.16 201.6-201.6S461.44 103.6 350 103.6zm0 378c-97.441 0-176.4-78.961-176.4-176.4 0-97.441 78.957-176.4 176.4-176.4s176.4 78.961 176.4 176.4c0 97.441-78.957 176.4-176.4 176.4zm84.559-260.96c-5.04-5.04-12.879-5.04-17.922 0l-45.922 45.922c-6.16-3.36-13.441-5.04-20.719-5.04-24.641 0-44.238 19.603-44.238 44.239 0 24.64 19.602 44.238 44.238 44.238 24.641 0 44.238-19.602 44.238-44.238 0-7.84-1.68-14.56-5.602-21.281l45.36-45.36c5.609-5.6 5.609-13.44.566-18.48z" fill-rule="evenodd"/><use x="70" y="644" xlink:href="#v"/><use x="90.547" y="644" xlink:href="#d"/><use x="104.355" y="644" xlink:href="#b"/><use x="123.348" y="644" xlink:href="#j"/><use x="142.242" y="644" xlink:href="#a"/><use x="155.625" y="644" xlink:href="#b"/><use x="174.617" y="644" xlink:href="#i"/><use x="204.406" y="644" xlink:href="#h"/><use x="224.449" y="644" xlink:href="#g"/><use x="252.449" y="644" xlink:href="#f"/><use x="274.012" y="644" xlink:href="#c"/><use x="293.25" y="644" xlink:href="#e"/><use x="313.18" y="644" xlink:href="#u"/><use x="322.781" y="644" xlink:href="#a"/><use x="336.164" y="644" xlink:href="#e"/><use x="365.844" y="644" xlink:href="#t"/><use x="403.457" y="644" xlink:href="#s"/><use x="70" y="672" xlink:href="#r"/><use x="82.184" y="672" xlink:href="#d"/><use x="95.992" y="672" xlink:href="#c"/><use x="115.227" y="672" xlink:href="#q"/><use x="154.152" y="672" xlink:href="#a"/><use x="167.535" y="672" xlink:href="#e"/><use x="187.469" y="672" xlink:href="#b"/><use x="216.207" y="672" xlink:href="#p"/><use x="239.641" y="672" xlink:href="#c"/><use x="258.879" y="672" xlink:href="#o"/><use x="278.813" y="672" xlink:href="#n"/><use x="308.492" y="672" xlink:href="#m"/><use x="329.016" y="672" xlink:href="#d"/><use x="342.82" y="672" xlink:href="#c"/><use x="362.059" y="672" xlink:href="#l"/><use x="371.656" y="672" xlink:href="#b"/><use x="390.648" y="672" xlink:href="#k"/><use x="407.242" y="672" xlink:href="#a"/></svg>