<svg width="400" height="294" viewBox="0 0 400 294" fill="none" xmlns="http://www.w3.org/2000/svg">
<g clip-path="url(#clip0_1_2)">
<rect width="400" height="294" rx="13" fill="#047CFC"/>
<path d="M198.621 259.515C254.005 259.515 284.406 232.124 284.406 192.091C284.406 141.824 243.47 133.095 207.952 129.182C180.561 126.172 155.879 122.259 155.879 100.587C155.879 81.925 170.327 72.895 199.825 72.895C223.604 72.895 235.343 82.226 243.47 98.179C247.082 105.102 249.791 106.306 256.413 103.296L273.269 96.072C280.493 92.761 282.299 89.149 278.687 82.226C264.54 52.427 242.567 36.775 199.825 36.775C145.344 36.775 117.351 64.467 117.351 102.694C117.351 155.369 162.2 161.088 198.922 165.001C224.507 167.71 246.48 172.225 246.48 192.994C246.48 214.666 229.624 224.298 198.621 224.298C175.143 224.298 159.491 214.064 151.665 196.305C148.655 189.081 145.946 187.576 138.722 189.984L122.468 196.004C114.943 198.412 113.438 201.723 115.846 209.248C128.187 241.756 151.966 259.515 198.621 259.515Z" fill="white"/>
</g>
<defs>
<clipPath id="clip0_1_2">
<rect width="400" height="293.701" fill="white"/>
</clipPath>
</defs>
</svg>
