<svg width="400" height="159" viewBox="0 0 400 159" fill="none" xmlns="http://www.w3.org/2000/svg">
<path d="M6 49.8C6 42.5193 6 38.879 7.41692 36.0981C8.66327 33.652 10.652 31.6633 13.0981 30.4169C15.879 29 19.5193 29 26.8 29H63.2C70.4807 29 74.121 29 76.9019 30.4169C79.348 31.6633 81.3367 33.652 82.5831 36.0981C84 38.879 84 42.5193 84 49.8V108.2C84 115.481 84 119.121 82.5831 121.902C81.3367 124.348 79.348 126.337 76.9019 127.583C74.121 129 70.4807 129 63.2 129H26.8C19.5193 129 15.879 129 13.0981 127.583C10.652 126.337 8.66327 124.348 7.41692 121.902C6 119.121 6 115.481 6 108.2V49.8Z" fill="#047CFC"/>
<path d="M44.765 107.515C58.905 107.515 66.076 100.95 66.076 91.355C66.076 79.437 57.491 76.912 45.977 75.902C37.594 75.094 32.241 74.286 32.241 67.822C32.241 62.974 35.978 60.449 43.856 60.449C51.633 60.449 54.865 63.176 56.683 67.115C57.794 68.731 58.299 68.933 60.016 68.226L63.45 66.812C65.167 66.105 65.672 65.095 64.763 63.277C61.632 56.712 55.269 52.369 43.654 52.369C30.12 52.369 23.353 58.631 23.353 68.024C23.353 81.053 33.655 82.77 43.755 83.78C52.239 84.588 57.289 85.699 57.289 91.759C57.289 96.809 53.148 99.536 44.563 99.536C37.493 99.536 32.948 97.516 30.928 92.163C30.12 90.345 29.312 90.143 27.797 90.648L24.262 91.86C22.545 92.466 22.141 93.476 22.747 95.092C25.979 103.374 33.352 107.515 44.765 107.515Z" fill="white"/>
<path d="M115.977 107.515C127.592 107.515 134.056 103.273 137.692 97.112C138.803 95.395 138.5 94.082 136.783 93.173L134.056 91.759C132.238 90.749 131.329 91.052 130.117 92.668C127.592 96.91 123.249 99.738 115.977 99.738C107.19 99.738 102.443 95.193 102.443 87.517V82.669H135.47C138.197 82.669 139.106 81.255 139.106 79.134V73.276C139.106 61.358 131.834 52.369 116.28 52.369C101.433 52.369 93.454 60.348 93.454 73.983V86.507C93.454 98.829 100.221 107.515 115.977 107.515ZM102.443 75.7V72.771C102.443 64.792 107.19 60.045 116.28 60.045C125.471 60.045 130.117 64.792 130.117 72.771V75.7H102.443ZM151.5 106H155.742C157.459 106 158.065 105.394 158.065 103.576V33.684C158.065 31.866 157.459 31.26 155.742 31.26H151.5C149.682 31.26 149.076 31.866 149.076 33.684V103.576C149.076 105.394 149.682 106 151.5 106ZM191.313 107.515C202.928 107.515 209.392 103.273 213.028 97.112C214.139 95.395 213.836 94.082 212.119 93.173L209.392 91.759C207.574 90.749 206.665 91.052 205.453 92.668C202.928 96.91 198.585 99.738 191.313 99.738C182.526 99.738 177.779 95.193 177.779 87.517V82.669H210.806C213.533 82.669 214.442 81.255 214.442 79.134V73.276C214.442 61.358 207.17 52.369 191.616 52.369C176.769 52.369 168.79 60.348 168.79 73.983V86.507C168.79 98.829 175.557 107.515 191.313 107.515ZM177.779 75.7V72.771C177.779 64.792 182.526 60.045 191.616 60.045C200.807 60.045 205.453 64.792 205.453 72.771V75.7H177.779ZM244.309 107.515C256.429 107.515 263.297 102.566 266.428 93.577C267.236 91.658 266.529 90.85 264.812 90.143L261.277 89.133C259.358 88.527 258.55 88.83 257.843 90.749C256.025 96.506 251.884 99.536 244.612 99.536C235.926 99.536 231.381 95.092 231.381 87.517V72.266C231.381 64.792 235.724 60.348 244.612 60.348C252.086 60.348 255.823 63.277 257.742 68.832C258.449 70.65 259.257 71.155 261.176 70.448L264.61 69.337C266.327 68.731 266.832 67.822 266.226 65.903C263.701 57.924 257.136 52.369 244.915 52.369C229.664 52.369 222.392 60.146 222.392 72.67V87.214C222.392 99.738 229.462 107.515 244.309 107.515ZM303.003 106C304.821 106 305.427 105.293 305.427 103.475V99.94C305.427 98.021 304.821 97.415 303.003 97.415C293.105 97.415 289.873 95.395 289.873 84.285V62.166H303.104C304.922 62.166 305.528 61.56 305.528 59.843V56.308C305.528 54.49 304.922 53.884 303.104 53.884H289.873V44.188C289.873 42.37 289.267 41.764 287.449 41.764H283.308C281.49 41.764 280.884 42.37 280.884 44.188V53.884H272.501C270.683 53.884 270.077 54.49 270.077 56.308V59.843C270.077 61.56 270.683 62.166 272.501 62.166H280.884V84.588C280.884 101.455 286.641 106 303.003 106ZM333.765 107.515C348.309 107.515 356.49 100.142 356.49 88.224V71.66C356.49 59.742 348.309 52.369 333.765 52.369C319.524 52.369 311.141 59.742 311.141 71.66V88.224C311.141 100.142 319.524 107.515 333.765 107.515ZM320.13 88.224V71.66C320.13 64.59 325.382 60.55 333.765 60.55C342.451 60.55 347.501 64.59 347.501 71.66V88.224C347.501 95.193 342.451 99.334 333.765 99.334C325.382 99.334 320.13 95.193 320.13 88.224ZM369.269 106H373.41C375.228 106 375.834 105.394 375.834 103.576V65.802C375.834 64.994 375.935 64.287 377.248 63.782C380.177 62.772 384.015 62.065 388.964 62.065H392.398C394.216 62.065 394.822 61.459 394.822 59.641V56.308C394.822 54.49 394.216 53.884 392.398 53.884H389.166C380.278 53.884 374.42 55.5 370.683 57.015C367.552 58.227 366.845 59.439 366.845 62.57V103.576C366.845 105.394 367.451 106 369.269 106Z" fill="white"/>
</svg>
